SplineFontDB: 3.0
FontName: Antic-Regular
FullName: Antic
FamilyName: Antic
Weight: Book
Copyright: Copyright (c) 2011, Santiago Orozco (hi@typemade.mx), with Reserved Font Name "Antic"
Version: 1.001
ItalicAngle: 0
UnderlinePosition: -50
UnderlineWidth: 50
Ascent: 800
Descent: 200
sfntRevision: 0x00010041
LayerCount: 2
Layer: 0 1 "Back"  1
Layer: 1 1 "Fore"  0
XUID: [1021 288 713564382 16513467]
FSType: 0
OS2Version: 3
OS2_WeightWidthSlopeOnly: 0
OS2_UseTypoMetrics: 1
CreationTime: 1312752692
ModificationTime: 1314377558
PfmFamily: 81
TTFWeight: 400
TTFWidth: 5
LineGap: 0
VLineGap: 0
Panose: 0 0 0 0 0 0 0 0 0 0
OS2TypoAscent: 140
OS2TypoAOffset: 1
OS2TypoDescent: -51
OS2TypoDOffset: 1
OS2TypoLinegap: 0
OS2WinAscent: 0
OS2WinAOffset: 1
OS2WinDescent: 0
OS2WinDOffset: 1
HheadAscent: 0
HheadAOffset: 1
HheadDescent: 0
HheadDOffset: 1
OS2SubXSize: 700
OS2SubYSize: 650
OS2SubXOff: 0
OS2SubYOff: 140
OS2SupXSize: 700
OS2SupYSize: 650
OS2SupXOff: 0
OS2SupYOff: 477
OS2StrikeYSize: 50
OS2StrikeYPos: 250
OS2Vendor: 'pyrs'
OS2CodePages: 20000111.00000000
OS2UnicodeRanges: 80000027.0800200a.14000000.00000000
Lookup: 258 0 0 "'kern' Horizontal Kerning in Latin lookup 0"  {"'kern' Horizontal Kerning in Latin lookup 0 per glyph data 0"  "'kern' Horizontal Kerning in Latin lookup 0 per glyph data 1"  "'kern' Horizontal Kerning in Latin lookup 0 kerning class 2"  } ['kern' ('latn' <'dflt' > ) ]
MarkAttachClasses: 1
DEI: 91125
KernClass2: 32+ 21 "'kern' Horizontal Kerning in Latin lookup 0 kerning class 2" 
 50 A Agrave Aacute Acircumflex Atilde Adieresis Aring
 10 C Ccedilla
 5 D Eth
 37 E Egrave Eacute Ecircumflex Edieresis
 1 G
 52 H I J M N Igrave Iacute Icircumflex Idieresis Ntilde
 1 K
 1 L
 46 O Q Ograve Oacute Ocircumflex Otilde Odieresis
 1 R
 1 S
 1 T
 37 U Ugrave Uacute Ucircumflex Udieresis
 1 W
 18 Y Yacute Ydieresis
 63 a h m n agrave aacute acircumflex atilde adieresis aring ntilde
 9 at oslash
 9 b p thorn
 10 c ccedilla

StartChar: exclam
Encoding: 33 33 4
Width: 282
GlyphClass: 2
Flags: W
LayerCount: 2
Fore
SplineSet
172 129 m 1,0,-1
 112 129 l 1,1,-1
 112 695 l 1,2,-1
 172 700 l 1,3,-1
 172 129 l 1,0,-1
136 -21 m 0,4,5
 149 -18 149 -18 159.5 -7.5 c 128,-1,6
 170 3 170 3 174 18 c 1,7,8
 177 35 177 35 173 42.5 c 128,-1,9
 169 50 169 50 149 47 c 0,10,11
 135 44 135 44 125 32.5 c 128,-1,12
 115 21 115 21 111 4 c 1,13,14
 109 -12 109 -12 114 -18 c 128,-1,15
 119 -24 119 -24 136 -21 c 0,4,5
EndSplineSet
EndChar

StartChar: quotedbl
Encoding: 34 34 5
Width: 358
GlyphClass: 2
Flags: W
LayerCount: 2
Fore
SplineSet
128 719 m 1,0,1
 125 704 125 704 123.5 684.5 c 128,-1,2
 122 665 122 665 120.5 647.5 c 128,-1,3
 119 630 119 630 118.5 617 c 128,-1,4
 118 604 118 604 118 603 c 2,5,-1
 80 600 l 2,6,7
 80 601 80 601 77.5 633.5 c 128,-1,8
 75 666 75 666 74 718 c 1,9,-1
 128 719 l 1,0,1
248 719 m 1,10,11
 245 704 245 704 243.5 684.5 c 128,-1,12
 242 665 242 665 240.5 647.5 c 128,-1,13
 239 630 239 630 238.5 617 c 128,-1,14
 238 604 238 604 238 603 c 2,15,-1
 200 600 l 2,16,17
 200 601 200 601 197.5 633.5 c 128,-1,18
 195 666 195 666 194 718 c 1,19,-1
 248 719 l 1,10,11
EndSplineSet
EndChar

StartChar: numbersign
Encoding: 35 35 6
Width: 600
GlyphClass: 2
Flags: W
LayerCount: 2
Fore
SplineSet
69 516 m 1,0,-1
 191 516 l 1,1,-1
 220 679 l 1,2,-1
 280 679 l 1,3,-1
 251 516 l 1,4,-1
 393 516 l 1,5,-1
 422 679 l 1,6,-1
 482 679 l 1,7,-1
 453 516 l 1,8,-1
 560 516 l 1,9,-1
 554 458 l 1,10,-1
 443 458 l 1,11,-1
 413 287 l 1,12,-1
 520 287 l 1,13,-1
 514 229 l 1,14,-1
 403 229 l 1,15,-1
 371 44 l 1,16,-1
 311 44 l 1,17,-1
 343 229 l 1,18,-1
 201 229 l 1,19,-1
 169 44 l 1,20,-1
 109 44 l 1,21,-1
 141 229 l 1,22,-1
 23 229 l 1,23,-1
 29 287 l 1,24,-1
 151 287 l 1,25,-1
 181 458 l 1,26,-1
 63 458 l 1,27,-1
 69 516 l 1,0,-1
211 287 m 1,28,-1
 353 287 l 1,29,-1
 383 458 l 1,30,-1
 241 458 l 1,31,-1
 211 287 l 1,28,-1
EndSplineSet
EndChar

StartChar: dollar
Encoding: 36 36 7
Width: 583
GlyphClass: 2
Flags: W
LayerCount: 2
Fore
SplineSet
440 531 m 1,0,1
 404 537 404 537 372.5 542 c 128,-1,2
 341 547 341 547 306 547 c 2,3,-1
 301 547 l 1,4,-1
 301 334 l 1,5,6
 335 325 335 325 368.5 313.5 c 128,-1,7
 402 302 402 302 429 283.5 c 128,-1,8
 456 265 456 265 472.5 236.5 c 128,-1,9
 489 208 489 208 489 165 c 0,10,11
 489 124 489 124 474 94 c 128,-1,12
 459 64 459 64 433 43 c 128,-1,13
 407 22 407 22 373 11 c 128,-1,14
 339 0 339 0 301 -3 c 1,15,-1
 301 -100 l 1,16,-1
 266 -100 l 1,17,-1
 266 -4 l 1,18,19
 248 -3 248 -3 221.5 0 c 128,-1,20
 195 3 195 3 166.5 9 c 128,-1,21
 138 15 138 15 111 25.5 c 128,-1,22
 84 36 84 36 65 52 c 1,23,-1
 86 97 l 1,24,25
 100 85 100 85 121 76 c 128,-1,26
 142 67 142 67 166.5 61 c 128,-1,27
 191 55 191 55 216.5 52 c 128,-1,28
 242 49 242 49 264 49 c 2,29,-1
 266 49 l 1,30,-1
 266 288 l 1,31,32
 232 297 232 297 199.5 307.5 c 128,-1,33
 167 318 167 318 141.5 334.5 c 128,-1,34
 116 351 116 351 100 376 c 128,-1,35
 84 401 84 401 84 440 c 0,36,37
 84 509 84 509 133 551 c 128,-1,38
 182 593 182 593 266 599 c 1,39,-1
 266 700 l 1,40,-1
 301 700 l 1,41,-1
 301 600 l 1,42,43
 327 599 327 599 353.5 596 c 128,-1,44
 380 593 380 593 402 590 c 0,45,46
 428 586 428 586 452 582 c 1,47,-1
 440 531 l 1,0,1
429 161 m 0,48,49
 429 188 429 188 418.5 206.5 c 128,-1,50
 408 225 408 225 390.5 238.5 c 128,-1,51
 373 252 373 252 350 261 c 128,-1,52
 327 270 327 270 301 278 c 1,53,-1
 301 51 l 1,54,55
 328 54 328 54 351.5 61.5 c 128,-1,56
 375 69 375 69 392 82.5 c 128,-1,57
 409 96 409 96 419 115.5 c 128,-1,58
 429 135 429 135 429 161 c 0,48,49
149 446 m 0,59,60
 149 423 149 423 158.5 407 c 128,-1,61
 168 391 168 391 183.5 379.5 c 128,-1,62
 199 368 199 368 220.5 359.5 c 128,-1,63
 242 351 242 351 266 344 c 1,64,-1
 266 544 l 1,65,66
 209 537 209 537 179 512 c 128,-1,67
 149 487 149 487 149 446 c 0,59,60
EndSplineSet
EndChar

StartChar: percent
Encoding: 37 37 8
Width: 653
GlyphClass: 2
Flags: W
LayerCount: 2
Fore
SplineSet
558 500 m 1,0,-1
 180 0 l 1,1,-1
 120 0 l 1,2,-1
 498 500 l 1,3,-1
 558 500 l 1,0,-1
80 400 m 0,4,5
 80 424 80 424 89.5 446 c 128,-1,6
 99 468 99 468 115 484.5 c 128,-1,7
 131 501 131 501 153 510.5 c 128,-1,8
 175 520 175 520 200 520 c 0,9,10
 224 520 224 520 246 514 c 128,-1,11
 268 508 268 508 284.5 494.5 c 128,-1,12
 301 481 301 481 310.5 457.5 c 128,-1,13
 320 434 320 434 320 400 c 0,14,15
 320 375 320 375 310.5 353 c 128,-1,16
 301 331 301 331 284.5 315 c 128,-1,17
 268 299 268 299 246 289.5 c 128,-1,18
 224 280 224 280 200 280 c 0,19,20
 175 280 175 280 153 286 c 128,-1,21
 131 292 131 292 115 305.5 c 128,-1,22
 99 319 99 319 89.5 342 c 128,-1,23
 80 365 80 365 80 400 c 0,4,5
120 400 m 0,24,25
 120 358 120 358 143 338 c 128,-1,26
 166 318 166 318 200 318 c 0,27,28
 233 318 233 318 256.5 341.5 c 128,-1,29
 280 365 280 365 280 400 c 0,30,31
 280 442 280 442 256.5 462 c 128,-1,32
 233 482 233 482 200 482 c 0,33,34
 166 482 166 482 143 458 c 128,-1,35
 120 434 120 434 120 400 c 0,24,25
370 115 m 0,36,37
 370 139 370 139 379.5 161 c 128,-1,38
 389 183 389 183 405 199.5 c 128,-1,39
 421 216 421 216 443 225.5 c 128,-1,40
 465 235 465 235 490 235 c 0,41,42
 514 235 514 235 536 229 c 128,-1,43
 558 223 558 223 574.5 209.5 c 128,-1,44
 591 196 591 196 600.5 172.5 c 128,-1,45
 610 149 610 149 610 115 c 0,46,47
 610 90 610 90 600.5 68 c 128,-1,48
 591 46 591 46 574.5 30 c 128,-1,49
 558 14 558 14 536 4.5 c 128,-1,50
 514 -5 514 -5 490 -5 c 0,51,52
 465 -5 465 -5 443 1 c 128,-1,53
 421 7 421 7 405 20.5 c 128,-1,54
 389 34 389 34 379.5 57 c 128,-1,55
 370 80 370 80 370 115 c 0,36,37
410 115 m 0,56,57
 410 73 410 73 433 53 c 128,-1,58
 456 33 456 33 490 33 c 0,59,60
 523 33 523 33 546.5 56.5 c 128,-1,61
 570 80 570 80 570 115 c 0,62,63
 570 157 570 157 546.5 177 c 128,-1,64
 523 197 523 197 490 197 c 0,65,66
 456 197 456 197 433 173 c 128,-1,67
 410 149 410 149 410 115 c 0,56,57
EndSplineSet
EndChar

StartChar: ampersand
Encoding: 38 38 9
Width: 938
GlyphClass: 2
Flags: W
LayerCount: 2
Fore
SplineSet
524 634 m 1,0,1
 516 641 516 641 501 651 c 128,-1,2
 486 661 486 661 467 670.5 c 128,-1,3
 448 680 448 680 425.5 687 c 128,-1,4
 403 694 403 694 380 694 c 0,5,6
 344 694 344 694 321 682.5 c 128,-1,7
 298 671 298 671 285.5 655 c 128,-1,8
 273 639 273 639 268.5 621.5 c 128,-1,9
 264 604 264 604 264 593 c 0,10,11
 264 556 264 556 296 504 c 128,-1,12
 328 452 328 452 377.5 394 c 128,-1,13
 427 336 427 336 487.5 277 c 128,-1,14
 548 218 548 218 604 167 c 1,15,16
 624 192 624 192 638.5 217.5 c 128,-1,17
 653 243 653 243 662.5 265.5 c 128,-1,18
 672 288 672 288 677.5 306 c 128,-1,19
 683 324 683 324 686 335 c 1,20,-1
 743 322 l 1,21,22
 741 312 741 312 735 291.5 c 128,-1,23
 729 271 729 271 718 244.5 c 128,-1,24
 707 218 707 218 690 188 c 128,-1,25
 673 158 673 158 648 128 c 1,26,27
 698 84 698 84 733 55 c 128,-1,28
 768 26 768 26 777 19 c 1,29,30
 774 16 774 16 771 12 c 0,31,32
 768 9 768 9 765 4.5 c 128,-1,33
 762 0 762 0 758 -4 c 0,34,35
 749 -15 749 -15 739 -27 c 1,36,37
 722 -14 722 -14 701 4 c 0,38,39
 683 19 683 19 659 39.5 c 128,-1,40
 635 60 635 60 606 86 c 1,41,42
 561 48 561 48 495.5 22 c 128,-1,43
 430 -4 430 -4 338 -4 c 0,44,45
 211 -4 211 -4 141 52.5 c 128,-1,46
 71 109 71 109 71 229 c 0,47,48
 71 281 71 281 84.5 320.5 c 128,-1,49
 98 360 98 360 122.5 388.5 c 128,-1,50
 147 417 147 417 180.5 435 c 128,-1,51
 214 453 214 453 255 461 c 1,52,53
 229 500 229 500 214 536 c 128,-1,54
 199 572 199 572 199 601 c 0,55,56
 199 622 199 622 208 647.5 c 128,-1,57
 217 673 217 673 238 695.5 c 128,-1,58
 259 718 259 718 293 733.5 c 128,-1,59
 327 749 327 749 376 749 c 0,60,61
 416 749 416 749 447.5 739 c 128,-1,62
 479 729 479 729 502 716 c 128,-1,63
 525 703 525 703 539.5 690.5 c 128,-1,64
 554 678 554 678 560 674 c 1,65,-1
 524 634 l 1,0,1
345 51 m 0,66,67
 418 51 418 51 471 72 c 128,-1,68
 524 93 524 93 562 125 c 1,69,70
 528 156 528 156 491.5 191 c 128,-1,71
 455 226 455 226 420 262.5 c 128,-1,72
 385 299 385 299 351.5 337 c 128,-1,73
 318 375 318 375 290 411 c 1,74,75
 217 403 217 403 176.5 357.5 c 128,-1,76
 136 312 136 312 136 231 c 0,77,78
 136 192 136 192 147.5 159 c 128,-1,79
 159 126 159 126 183.5 102 c 128,-1,80
 208 78 208 78 248 64.5 c 128,-1,81
 288 51 288 51 345 51 c 0,66,67
EndSplineSet
EndChar

StartChar: quotesingle
Encoding: 39 39 10
Width: 200
GlyphClass: 2
Flags: W
LayerCount: 2
Fore
SplineSet
64 715 m 1,0,-1
 118 718 l 1,1,2
 118 692 118 692 117 666.5 c 128,-1,3
 116 641 116 641 115 621 c 128,-1,4
 114 601 114 601 113 588 c 128,-1,5
 112 575 112 575 112 575 c 1,6,-1
 64 573 l 2,7,8
 64 574 64 574 64.5 591 c 128,-1,9
 65 608 65 608 65 630.5 c 128,-1,10
 65 653 65 653 65 676.5 c 128,-1,11
 65 700 65 700 64 715 c 1,0,-1
EndSplineSet
EndChar

StartChar: parenleft
Encoding: 40 40 11
Width: 346
GlyphClass: 2
Flags: W
LayerCount: 2
Fore
SplineSet
267 721 m 1,0,1
 228 699 228 699 198 643 c 0,2,3
 185 619 185 619 172.5 585.5 c 128,-1,4
 160 552 160 552 150.5 506 c 128,-1,5
 141 460 141 460 135 401.5 c 128,-1,6
 129 343 129 343 129 270 c 0,7,8
 129 173 129 173 138.5 102.5 c 128,-1,9
 148 32 148 32 163 -17.5 c 128,-1,10
 178 -67 178 -67 195.5 -97.5 c 128,-1,11
 213 -128 213 -128 228 -145.5 c 128,-1,12
 243 -163 243 -163 254 -170 c 128,-1,13
 265 -177 265 -177 267 -178 c 1,14,-1
 235 -200 l 1,15,16
 233 -199 233 -199 219 -193 c 128,-1,17
 205 -187 205 -187 186 -169.5 c 128,-1,18
 167 -152 167 -152 145.5 -120 c 128,-1,19
 124 -88 124 -88 106 -36 c 128,-1,20
 88 16 88 16 76 91 c 128,-1,21
 64 166 64 166 64 270 c 0,22,23
 64 351 64 351 71 414.5 c 128,-1,24
 78 478 78 478 90 527 c 128,-1,25
 102 576 102 576 117.5 611.5 c 128,-1,26
 133 647 133 647 149 672 c 0,27,28
 187 730 187 730 235 750 c 1,29,-1
 267 721 l 1,0,1
EndSplineSet
EndChar

StartChar: parenright
Encoding: 41 41 12
Width: 400
GlyphClass: 2
Flags: W
LayerCount: 2
Fore
SplineSet
96 750 m 1,0,1
 143 730 143 730 181 672 c 0,2,3
 197 647 197 647 212.5 611.5 c 128,-1,4
 228 576 228 576 240 527 c 128,-1,5
 252 478 252 478 259.5 414.5 c 128,-1,6
 267 351 267 351 267 270 c 0,7,8
 267 166 267 166 255 91 c 128,-1,9
 243 16 243 16 225 -36 c 128,-1,10
 207 -88 207 -88 185.5 -120 c 128,-1,11
 164 -152 164 -152 145 -169.5 c 128,-1,12
 126 -187 126 -187 112.5 -193 c 128,-1,13
 99 -199 99 -199 96 -200 c 1,14,-1
 64 -178 l 1,15,16
 66 -177 66 -177 77 -170 c 128,-1,17
 88 -163 88 -163 103 -145.5 c 128,-1,18
 118 -128 118 -128 135.5 -97.5 c 128,-1,19
 153 -67 153 -67 168 -17.5 c 128,-1,20
 183 32 183 32 192.5 102.5 c 128,-1,21
 202 173 202 173 202 270 c 0,22,23
 202 343 202 343 196 401.5 c 128,-1,24
 190 460 190 460 180 506 c 128,-1,25
 170 552 170 552 158 585.5 c 128,-1,26
 146 619 146 619 133 643 c 0,27,28
 102 699 102 699 64 721 c 1,29,-1
 96 750 l 1,0,1
EndSplineSet
EndChar

StartChar: asterisk
Encoding: 42 42 13
Width: 556
GlyphClass: 2
Flags: W
LayerCount: 2
Fore
SplineSet
427 656 m 1,0,-1
 443 609 l 1,1,2
 411 598 411 598 379 590.5 c 128,-1,3
 347 583 347 583 325 578 c 1,4,-1
 400 483 l 1,5,-1
 361 454 l 1,6,7
 339 483 339 483 321.5 512 c 128,-1,8
 304 541 304 541 293 559 c 1,9,10
 286 548 286 548 276.5 534.5 c 128,-1,11
 267 521 267 521 257.5 506.5 c 128,-1,12
 248 492 248 492 239.5 479 c 128,-1,13
 231 466 231 466 225 457 c 1,14,-1
 186 485 l 1,15,16
 207 513 207 513 228.5 538.5 c 128,-1,17
 250 564 250 564 264 581 c 1,18,-1
 148 613 l 1,19,-1
 162 660 l 1,20,21
 194 649 194 649 226 635.5 c 128,-1,22
 258 622 258 622 278 613 c 1,23,24
 278 626 278 626 277.5 642.5 c 128,-1,25
 277 659 277 659 276.5 676.5 c 128,-1,26
 276 694 276 694 275.5 709.5 c 128,-1,27
 275 725 275 725 274 736 c 1,28,29
 286 736 286 736 298 735.5 c 128,-1,30
 310 735 310 735 322 735 c 1,31,32
 322 700 322 700 319 667 c 128,-1,33
 316 634 316 634 314 613 c 1,34,-1
 427 656 l 1,0,-1
EndSplineSet
EndChar

StartChar: plus
Encoding: 43 43 14
Width: 799
GlyphClass: 2
Flags: W
LayerCount: 2
Fore
SplineSet
366 290 m 1,0,-1
 366 500 l 1,1,-1
 426 500 l 1,2,-1
 426 290 l 1,3,-1
 646 290 l 1,4,-1
 646 232 l 1,5,-1
 426 232 l 1,6,-1
 426 0 l 1,7,-1
 366 0 l 1,8,-1
 366 232 l 1,9,-1
 146 232 l 1,10,-1
 146 290 l 1,11,-1
 366 290 l 1,0,-1
EndSplineSet
EndChar

StartChar: comma
Encoding: 44 44 15
Width: 110
GlyphClass: 2
Flags: W
LayerCount: 2
Fore
SplineSet
33 65 m 1,0,1
 47 65 47 65 60 64.5 c 128,-1,2
 73 64 73 64 87 64 c 1,3,4
 87 38 87 38 82.5 9 c 128,-1,5
 78 -20 78 -20 72.5 -45 c 128,-1,6
 67 -70 67 -70 63 -86.5 c 128,-1,7
 59 -103 59 -103 59 -103 c 1,8,-1
 13 -101 l 2,9,10
 13 -100 13 -100 16.5 -79.5 c 128,-1,11
 20 -59 20 -59 24 -32 c 128,-1,12
 28 -5 28 -5 31 22.5 c 128,-1,13
 34 50 34 50 33 65 c 1,0,1
EndSplineSet
EndChar

StartChar: hyphen
Encoding: 45 45 16
Width: 600
GlyphClass: 2
Flags: W
LayerCount: 2
Fore
SplineSet
448 290 m 1,0,-1
 448 232 l 1,1,-1
 146 232 l 1,2,-1
 146 290 l 1,3,-1
 448 290 l 1,0,-1
EndSplineSet
EndChar

StartChar: period
Encoding: 46 46 17
Width: 143
GlyphClass: 2
Flags: W
LayerCount: 2
Fore
SplineSet
34 29 m 0,0,1
 34 48 34 48 43.5 59 c 128,-1,2
 53 70 53 70 69 70 c 0,3,4
 90 70 90 70 97 59 c 128,-1,5
 104 48 104 48 104 29 c 0,6,7
 104 12 104 12 93.5 2 c 128,-1,8
 83 -8 83 -8 69 -8 c 0,9,10
 49 -8 49 -8 41.5 2 c 128,-1,11
 34 12 34 12 34 29 c 0,0,1
EndSplineSet
EndChar

StartChar: slash
Encoding: 47 47 18
Width: 600
GlyphClass: 2
Flags: W
LayerCount: 2
Fore
SplineSet
490 749 m 1,0,-1
 172 -200 l 1,1,-1
 112 -200 l 1,2,-1
 430 749 l 1,3,-1
 490 749 l 1,0,-1
EndSplineSet
EndChar

StartChar: zero
Encoding: 48 48 19
Width: 700
GlyphClass: 2
Flags: W
LayerCount: 2
Fore
SplineSet
153 342 m 0,0,1
 153 264 153 264 169.5 208.5 c 128,-1,2
 186 153 186 153 213 118 c 128,-1,3
 240 83 240 83 275.5 67 c 128,-1,4
 311 51 311 51 350 51 c 256,5,6
 389 51 389 51 424.5 70 c 128,-1,7
 460 89 460 89 487 126 c 128,-1,8
 514 163 514 163 530.5 217.5 c 128,-1,9
 547 272 547 272 547 342 c 0,10,11
 547 418 547 418 530.5 473 c 128,-1,12
 514 528 514 528 487 563.5 c 128,-1,13
 460 599 460 599 424.5 616 c 128,-1,14
 389 633 389 633 350 633 c 256,15,16
 311 633 311 633 275.5 613.5 c 128,-1,17
 240 594 240 594 213 557 c 128,-1,18
 186 520 186 520 169.5 466 c 128,-1,19
 153 412 153 412 153 342 c 0,0,1
85 342 m 0,20,21
 85 425 85 425 106.5 489.5 c 128,-1,22
 128 554 128 554 164.5 598 c 128,-1,23
 201 642 201 642 249 665 c 128,-1,24
 297 688 297 688 350 688 c 256,25,26
 403 688 403 688 451 668 c 128,-1,27
 499 648 499 648 535.5 605.5 c 128,-1,28
 572 563 572 563 593.5 497.5 c 128,-1,29
 615 432 615 432 615 342 c 0,30,31
 615 259 615 259 593.5 194.5 c 128,-1,32
 572 130 572 130 535.5 86 c 128,-1,33
 499 42 499 42 451 19 c 128,-1,34
 403 -4 403 -4 350 -4 c 256,35,36
 297 -4 297 -4 249 15 c 128,-1,37
 201 34 201 34 164.5 76 c 128,-1,38
 128 118 128 118 106.5 183.5 c 128,-1,39
 85 249 85 249 85 342 c 0,20,21
EndSplineSet
PairPos2: "'kern' Horizontal Kerning in Latin lookup 0 per glyph data 1" dotlessi dx=0 dy=0 dh=-93 dv=0 dx=0 dy=0 dh=0 dv=0
PairPos2: "'kern' Horizontal Kerning in Latin lookup 0 per glyph data 1" thorn dx=0 dy=0 dh=-93 dv=0 dx=0 dy=0 dh=0 dv=0
PairPos2: "'kern' Horizontal Kerning in Latin lookup 0 per glyph data 1" ntilde dx=0 dy=0 dh=-93 dv=0 dx=0 dy=0 dh=0 dv=0
PairPos2: "'kern' Horizontal Kerning in Latin lookup 0 per glyph data 1" idieresis dx=0 dy=0 dh=-93 dv=0 dx=0 dy=0 dh=0 dv=0
PairPos2: "'kern' Horizontal Kerning in Latin lookup 0 per glyph data 1" icircumflex dx=0 dy=0 dh=-93 dv=0 dx=0 dy=0 dh=0 dv=0
PairPos2: "'kern' Horizontal Kerning in Latin lookup 0 per glyph data 1" iacute dx=0 dy=0 dh=-93 dv=0 dx=0 dy=0 dh=0 dv=0
PairPos2: "'kern' Horizontal Kerning in Latin lookup 0 per glyph data 1" igrave dx=0 dy=0 dh=-93 dv=0 dx=0 dy=0 dh=0 dv=0
PairPos2: "'kern' Horizontal Kerning in Latin lookup 0 per glyph data 1" germandbls dx=0 dy=0 dh=-93 dv=0 dx=0 dy=0 dh=0 dv=0
PairPos2: "'kern' Horizontal Kerning in Latin lookup 0 per glyph data 1" mu dx=0 dy=0 dh=-93 dv=0 dx=0 dy=0 dh=0 dv=0
PairPos2: "'kern' Horizontal Kerning in Latin lookup 0 per glyph data 1" brokenbar dx=0 dy=0 dh=-93 dv=0 dx=0 dy=0 dh=0 dv=0
PairPos2: "'kern' Horizontal Kerning in Latin lookup 0 per glyph data 1" exclamdown dx=0 dy=0 dh=-93 dv=0 dx=0 dy=0 dh=0 dv=0
PairPos2: "'kern' Horizontal Kerning in Latin lookup 0 per glyph data 1" bar dx=0 dy=0 dh=-93 dv=0 dx=0 dy=0 dh=0 dv=0
PairPos2: "'kern' Horizontal Kerning in Latin lookup 0 per glyph data 1" r dx=0 dy=0 dh=-93 dv=0 dx=0 dy=0 dh=0 dv=0
PairPos2: "'kern' Horizontal Kerning in Latin lookup 0 per glyph data 1" p dx=0 dy=0 dh=-93 dv=0 dx=0 dy=0 dh=0 dv=0
PairPos2: "'kern' Horizontal Kerning in Latin lookup 0 per glyph data 1" n dx=0 dy=0 dh=-93 dv=0 dx=0 dy=0 dh=0 dv=0
PairPos2: "'kern' Horizontal Kerning in Latin lookup 0 per glyph data 1" m dx=0 dy=0 dh=-93 dv=0 dx=0 dy=0 dh=0 dv=0
PairPos2: "'kern' Horizontal Kerning in Latin lookup 0 per glyph data 1" l dx=0 dy=0 dh=-93 dv=0 dx=0 dy=0 dh=0 dv=0
PairPos2: "'kern' Horizontal Kerning in Latin lookup 0 per glyph data 1" k dx=0 dy=0 dh=-93 dv=0 dx=0 dy=0 dh=0 dv=0
PairPos2: "'kern' Horizontal Kerning in Latin lookup 0 per glyph data 1" j dx=0 dy=0 dh=-93 dv=0 dx=0 dy=0 dh=0 dv=0
PairPos2: "'kern' Horizontal Kerning in Latin lookup 0 per glyph data 1" i dx=0 dy=0 dh=-93 dv=0 dx=0 dy=0 dh=0 dv=0
PairPos2: "'kern' Horizontal Kerning in Latin lookup 0 per glyph data 1" h dx=0 dy=0 dh=-93 dv=0 dx=0 dy=0 dh=0 dv=0
PairPos2: "'kern' Horizontal Kerning in Latin lookup 0 per glyph data 1" f dx=0 dy=0 dh=-93 dv=0 dx=0 dy=0 dh=0 dv=0
PairPos2: "'kern' Horizontal Kerning in Latin lookup 0 per glyph data 1" b dx=0 dy=0 dh=-93 dv=0 dx=0 dy=0 dh=0 dv=0
PairPos2: "'kern' Horizontal Kerning in Latin lookup 0 per glyph data 1" bracketright dx=0 dy=0 dh=-93 dv=0 dx=0 dy=0 dh=0 dv=0
PairPos2: "'kern' Horizontal Kerning in Latin lookup 0 per glyph data 1" bracketleft dx=0 dy=0 dh=-93 dv=0 dx=0 dy=0 dh=0 dv=0
PairPos2: "'kern' Horizontal Kerning in Latin lookup 0 per glyph data 1" semicolon dx=0 dy=0 dh=-21 dv=0 dx=0 dy=0 dh=0 dv=0
PairPos2: "'kern' Horizontal Kerning in Latin lookup 0 per glyph data 1" colon dx=0 dy=0 dh=-21 dv=0 dx=0 dy=0 dh=0 dv=0
PairPos2: "'kern' Horizontal Kerning in Latin lookup 0 per glyph data 1" nine dx=0 dy=0 dh=-54 dv=0 dx=0 dy=0 dh=0 dv=0
PairPos2: "'kern' Horizontal Kerning in Latin lookup 0 per glyph data 1" eight dx=0 dy=0 dh=-53 dv=0 dx=0 dy=0 dh=0 dv=0
PairPos2: "'kern' Horizontal Kerning in Latin lookup 0 per glyph data 1" seven dx=0 dy=0 dh=-74 dv=0 dx=0 dy=0 dh=0 dv=0
PairPos2: "'kern' Horizontal Kerning in Latin lookup 0 per glyph data 1" six dx=0 dy=0 dh=-52 dv=0 dx=0 dy=0 dh=0 dv=0
PairPos2: "'kern' Horizontal Kerning in Latin lookup 0 per glyph data 1" five dx=0 dy=0 dh=-60 dv=0 dx=0 dy=0 dh=0 dv=0
PairPos2: "'kern' Horizontal Kerning in Latin lookup 0 per glyph data 1" four dx=0 dy=0 dh=-96 dv=0 dx=0 dy=0 dh=0 dv=0
PairPos2: "'kern' Horizontal Kerning in Latin lookup 0 per glyph data 1" three dx=0 dy=0 dh=-84 dv=0 dx=0 dy=0 dh=0 dv=0
PairPos2: "'kern' Horizontal Kerning in Latin lookup 0 per glyph data 1" two dx=0 dy=0 dh=-70 dv=0 dx=0 dy=0 dh=0 dv=0
PairPos2: "'kern' Horizontal Kerning in Latin lookup 0 per glyph data 1" one dx=0 dy=0 dh=-93 dv=0 dx=0 dy=0 dh=0 dv=0
PairPos2: "'kern' Horizontal Kerning in Latin lookup 0 per glyph data 1" zero dx=0 dy=0 dh=-73 dv=0 dx=0 dy=0 dh=0 dv=0
PairPos2: "'kern' Horizontal Kerning in Latin lookup 0 per glyph data 1" parenright dx=0 dy=0 dh=-93 dv=0 dx=0 dy=0 dh=0 dv=0
PairPos2: "'kern' Horizontal Kerning in Latin lookup 0 per glyph data 1" parenleft dx=0 dy=0 dh=-93 dv=0 dx=0 dy=0 dh=0 dv=0
PairPos2: "'kern' Horizontal Kerning in Latin lookup 0 per glyph data 1" exclam dx=0 dy=0 dh=-93 dv=0 dx=0 dy=0 dh=0 dv=0
EndChar

StartChar: one
Encoding: 49 49 20
Width: 488
GlyphClass: 2
Flags: W
LayerCount: 2
Fore
SplineSet
78 577 m 1,0,1
 78 589 78 589 77.5 601 c 128,-1,2
 77 613 77 613 77 626 c 1,3,-1
 237 662 l 1,4,-1
 300 662 l 1,5,-1
 300 0 l 1,6,-1
 237 0 l 1,7,-1
 237 613 l 1,8,-1
 78 577 l 1,9,-1
 78 577 l 1,0,1
EndSplineSet
EndChar

StartChar: two
Encoding: 50 50 21
Width: 572
GlyphClass: 2
Flags: W
LayerCount: 2
Fore
SplineSet
110 613 m 1,0,1
 137 628 137 628 169 639 c 1,2,3
 195 649 195 649 229.5 657.5 c 128,-1,4
 264 666 264 666 300 666 c 0,5,6
 332 666 332 666 365.5 657.5 c 128,-1,7
 399 649 399 649 426 628.5 c 128,-1,8
 453 608 453 608 470 573.5 c 128,-1,9
 487 539 487 539 487 487 c 0,10,11
 487 424 487 424 457.5 367 c 128,-1,12
 428 310 428 310 383 256.5 c 128,-1,13
 338 203 338 203 283 153 c 128,-1,14
 228 103 228 103 177 55 c 1,15,-1
 503 55 l 1,16,-1
 509 0 l 1,17,-1
 101 0 l 1,18,-1
 90 55 l 1,19,20
 164 127 164 127 225 186 c 128,-1,21
 286 245 286 245 329.5 296.5 c 128,-1,22
 373 348 373 348 396.5 394.5 c 128,-1,23
 420 441 420 441 420 489 c 0,24,25
 420 504 420 504 415.5 525 c 128,-1,26
 411 546 411 546 397 565 c 128,-1,27
 383 584 383 584 358 597 c 128,-1,28
 333 610 333 610 292 610 c 0,29,30
 264 610 264 610 236.5 603 c 128,-1,31
 209 596 209 596 186 588 c 0,32,33
 160 578 160 578 135 566 c 1,34,-1
 110 613 l 1,0,1
EndSplineSet
PairPos2: "'kern' Horizontal Kerning in Latin lookup 0 per glyph data 1" dotlessi dx=0 dy=0 dh=-65 dv=0 dx=0 dy=0 dh=0 dv=0
PairPos2: "'kern' Horizontal Kerning in Latin lookup 0 per glyph data 1" thorn dx=0 dy=0 dh=-65 dv=0 dx=0 dy=0 dh=0 dv=0
PairPos2: "'kern' Horizontal Kerning in Latin lookup 0 per glyph data 1" ntilde dx=0 dy=0 dh=-65 dv=0 dx=0 dy=0 dh=0 dv=0
PairPos2: "'kern' Horizontal Kerning in Latin lookup 0 per glyph data 1" idieresis dx=0 dy=0 dh=-65 dv=0 dx=0 dy=0 dh=0 dv=0
PairPos2: "'kern' Horizontal Kerning in Latin lookup 0 per glyph data 1" icircumflex dx=0 dy=0 dh=-65 dv=0 dx=0 dy=0 dh=0 dv=0
PairPos2: "'kern' Horizontal Kerning in Latin lookup 0 per glyph data 1" iacute dx=0 dy=0 dh=-65 dv=0 dx=0 dy=0 dh=0 dv=0
PairPos2: "'kern' Horizontal Kerning in Latin lookup 0 per glyph data 1" igrave dx=0 dy=0 dh=-65 dv=0 dx=0 dy=0 dh=0 dv=0
PairPos2: "'kern' Horizontal Kerning in Latin lookup 0 per glyph data 1" germandbls dx=0 dy=0 dh=-65 dv=0 dx=0 dy=0 dh=0 dv=0
PairPos2: "'kern' Horizontal Kerning in Latin lookup 0 per glyph data 1" mu dx=0 dy=0 dh=-65 dv=0 dx=0 dy=0 dh=0 dv=0
PairPos2: "'kern' Horizontal Kerning in Latin lookup 0 per glyph data 1" brokenbar dx=0 dy=0 dh=-65 dv=0 dx=0 dy=0 dh=0 dv=0
PairPos2: "'kern' Horizontal Kerning in Latin lookup 0 per glyph data 1" exclamdown dx=0 dy=0 dh=-65 dv=0 dx=0 dy=0 dh=0 dv=0
PairPos2: "'kern' Horizontal Kerning in Latin lookup 0 per glyph data 1" bar dx=0 dy=0 dh=-65 dv=0 dx=0 dy=0 dh=0 dv=0
PairPos2: "'kern' Horizontal Kerning in Latin lookup 0 per glyph data 1" r dx=0 dy=0 dh=-65 dv=0 dx=0 dy=0 dh=0 dv=0
PairPos2: "'kern' Horizontal Kerning in Latin lookup 0 per glyph data 1" p dx=0 dy=0 dh=-65 dv=0 dx=0 dy=0 dh=0 dv=0
PairPos2: "'kern' Horizontal Kerning in Latin lookup 0 per glyph data 1" n dx=0 dy=0 dh=-65 dv=0 dx=0 dy=0 dh=0 dv=0
PairPos2: "'kern' Horizontal Kerning in Latin lookup 0 per glyph data 1" m dx=0 dy=0 dh=-65 dv=0 dx=0 dy=0 dh=0 dv=0
PairPos2: "'kern' Horizontal Kerning in Latin lookup 0 per glyph data 1" l dx=0 dy=0 dh=-65 dv=0 dx=0 dy=0 dh=0 dv=0
PairPos2: "'kern' Horizontal Kerning in Latin lookup 0 per glyph data 1" k dx=0 dy=0 dh=-65 dv=0 dx=0 dy=0 dh=0 dv=0
PairPos2: "'kern' Horizontal Kerning in Latin lookup 0 per glyph data 1" j dx=0 dy=0 dh=-65 dv=0 dx=0 dy=0 dh=0 dv=0
PairPos2: "'kern' Horizontal Kerning in Latin lookup 0 per glyph data 1" i dx=0 dy=0 dh=-65 dv=0 dx=0 dy=0 dh=0 dv=0
PairPos2: "'kern' Horizontal Kerning in Latin lookup 0 per glyph data 1" h dx=0 dy=0 dh=-65 dv=0 dx=0 dy=0 dh=0 dv=0
PairPos2: "'kern' Horizontal Kerning in Latin lookup 0 per glyph data 1" f dx=0 dy=0 dh=-65 dv=0 dx=0 dy=0 dh=0 dv=0
PairPos2: "'kern' Horizontal Kerning in Latin lookup 0 per glyph data 1" b dx=0 dy=0 dh=-65 dv=0 dx=0 dy=0 dh=0 dv=0
PairPos2: "'kern' Horizontal Kerning in Latin lookup 0 per glyph data 1" bracketright dx=0 dy=0 dh=-65 dv=0 dx=0 dy=0 dh=0 dv=0
PairPos2: "'kern' Horizontal Kerning in Latin lookup 0 per glyph data 1" bracketleft dx=0 dy=0 dh=-65 dv=0 dx=0 dy=0 dh=0 dv=0
PairPos2: "'kern' Horizontal Kerning in Latin lookup 0 per glyph data 1" nine dx=0 dy=0 dh=-29 dv=0 dx=0 dy=0 dh=0 dv=0
PairPos2: "'kern' Horizontal Kerning in Latin lookup 0 per glyph data 1" eight dx=0 dy=0 dh=-51 dv=0 dx=0 dy=0 dh=0 dv=0
PairPos2: "'kern' Horizontal Kerning in Latin lookup 0 per glyph data 1" seven dx=0 dy=0 dh=-44 dv=0 dx=0 dy=0 dh=0 dv=0
PairPos2: "'kern' Horizontal Kerning in Latin lookup 0 per glyph data 1" six dx=0 dy=0 dh=-44 dv=0 dx=0 dy=0 dh=0 dv=0
PairPos2: "'kern' Horizontal Kerning in Latin lookup 0 per glyph data 1" five dx=0 dy=0 dh=-22 dv=0 dx=0 dy=0 dh=0 dv=0
PairPos2: "'kern' Horizontal Kerning in Latin lookup 0 per glyph data 1" four dx=0 dy=0 dh=-88 dv=0 dx=0 dy=0 dh=0 dv=0
PairPos2: "'kern' Horizontal Kerning in Latin lookup 0 per glyph data 1" three dx=0 dy=0 dh=-43 dv=0 dx=0 dy=0 dh=0 dv=0
PairPos2: "'kern' Horizontal Kerning in Latin lookup 0 per glyph data 1" two dx=0 dy=0 dh=-50 dv=0 dx=0 dy=0 dh=0 dv=0
PairPos2: "'kern' Horizontal Kerning in Latin lookup 0 per glyph data 1" one dx=0 dy=0 dh=-65 dv=0 dx=0 dy=0 dh=0 dv=0
PairPos2: "'kern' Horizontal Kerning in Latin lookup 0 per glyph data 1" zero dx=0 dy=0 dh=-59 dv=0 dx=0 dy=0 dh=0 dv=0
PairPos2: "'kern' Horizontal Kerning in Latin lookup 0 per glyph data 1" parenright dx=0 dy=0 dh=-65 dv=0 dx=0 dy=0 dh=0 dv=0
PairPos2: "'kern' Horizontal Kerning in Latin lookup 0 per glyph data 1" parenleft dx=0 dy=0 dh=-65 dv=0 dx=0 dy=0 dh=0 dv=0
PairPos2: "'kern' Horizontal Kerning in Latin lookup 0 per glyph data 1" exclam dx=0 dy=0 dh=-65 dv=0 dx=0 dy=0 dh=0 dv=0
EndChar

StartChar: three
Encoding: 51 51 22
Width: 560
GlyphClass: 2
Flags: W
LayerCount: 2
Fore
SplineSet
190 369 m 1,0,1
 210 369 210 369 231 369 c 128,-1,2
 252 369 252 369 273 368 c 1,3,4
 282 369 282 369 304.5 376 c 128,-1,5
 327 383 327 383 350 399 c 128,-1,6
 373 415 373 415 391 442.5 c 128,-1,7
 409 470 409 470 409 514 c 0,8,9
 409 530 409 530 403.5 547 c 128,-1,10
 398 564 398 564 385.5 578 c 128,-1,11
 373 592 373 592 351.5 601 c 128,-1,12
 330 610 330 610 297 610 c 0,13,14
 266 610 266 610 237.5 603 c 128,-1,15
 209 596 209 596 186 588 c 0,16,17
 160 578 160 578 135 566 c 1,18,-1
 118 616 l 1,19,20
 143 630 143 630 173 641 c 0,21,22
 199 650 199 650 231.5 658 c 128,-1,23
 264 666 264 666 302 666 c 0,24,25
 338 666 338 666 370 657 c 128,-1,26
 402 648 402 648 426 630 c 128,-1,27
 450 612 450 612 463.5 585 c 128,-1,28
 477 558 477 558 477 522 c 0,29,30
 477 487 477 487 466.5 460.5 c 128,-1,31
 456 434 456 434 438.5 414.5 c 128,-1,32
 421 395 421 395 400 381 c 128,-1,33
 379 367 379 367 358 358 c 1,34,35
 384 352 384 352 406.5 340.5 c 128,-1,36
 429 329 429 329 445.5 310.5 c 128,-1,37
 462 292 462 292 471.5 265 c 128,-1,38
 481 238 481 238 481 201 c 0,39,40
 481 147 481 147 462 108.5 c 128,-1,41
 443 70 443 70 407.5 45.5 c 128,-1,42
 372 21 372 21 322.5 9 c 128,-1,43
 273 -3 273 -3 212 -3 c 0,44,45
 183 -3 183 -3 153 0 c 128,-1,46
 123 3 123 3 87 13 c 1,47,-1
 103 65 l 1,48,49
 126 57 126 57 153 54.5 c 128,-1,50
 180 52 180 52 206 52 c 0,51,52
 306 52 306 52 359.5 88 c 128,-1,53
 413 124 413 124 413 198 c 0,54,55
 413 245 413 245 391.5 270.5 c 128,-1,56
 370 296 370 296 337.5 308 c 128,-1,57
 305 320 305 320 265.5 322 c 128,-1,58
 226 324 226 324 190 324 c 1,59,-1
 190 369 l 1,0,1
EndSplineSet
PairPos2: "'kern' Horizontal Kerning in Latin lookup 0 per glyph data 1" dotlessi dx=0 dy=0 dh=-64 dv=0 dx=0 dy=0 dh=0 dv=0
PairPos2: "'kern' Horizontal Kerning in Latin lookup 0 per glyph data 1" thorn dx=0 dy=0 dh=-64 dv=0 dx=0 dy=0 dh=0 dv=0
PairPos2: "'kern' Horizontal Kerning in Latin lookup 0 per glyph data 1" ntilde dx=0 dy=0 dh=-64 dv=0 dx=0 dy=0 dh=0 dv=0
PairPos2: "'kern' Horizontal Kerning in Latin lookup 0 per glyph data 1" idieresis dx=0 dy=0 dh=-64 dv=0 dx=0 dy=0 dh=0 dv=0
PairPos2: "'kern' Horizontal Kerning in Latin lookup 0 per glyph data 1" icircumflex dx=0 dy=0 dh=-64 dv=0 dx=0 dy=0 dh=0 dv=0
PairPos2: "'kern' Horizontal Kerning in Latin lookup 0 per glyph data 1" iacute dx=0 dy=0 dh=-64 dv=0 dx=0 dy=0 dh=0 dv=0
PairPos2: "'kern' Horizontal Kerning in Latin lookup 0 per glyph data 1" igrave dx=0 dy=0 dh=-64 dv=0 dx=0 dy=0 dh=0 dv=0
PairPos2: "'kern' Horizontal Kerning in Latin lookup 0 per glyph data 1" germandbls dx=0 dy=0 dh=-64 dv=0 dx=0 dy=0 dh=0 dv=0
PairPos2: "'kern' Horizontal Kerning in Latin lookup 0 per glyph data 1" mu dx=0 dy=0 dh=-64 dv=0 dx=0 dy=0 dh=0 dv=0
PairPos2: "'kern' Horizontal Kerning in Latin lookup 0 per glyph data 1" brokenbar dx=0 dy=0 dh=-64 dv=0 dx=0 dy=0 dh=0 dv=0
PairPos2: "'kern' Horizontal Kerning in Latin lookup 0 per glyph data 1" exclamdown dx=0 dy=0 dh=-64 dv=0 dx=0 dy=0 dh=0 dv=0
PairPos2: "'kern' Horizontal Kerning in Latin lookup 0 per glyph data 1" bar dx=0 dy=0 dh=-64 dv=0 dx=0 dy=0 dh=0 dv=0
PairPos2: "'kern' Horizontal Kerning in Latin lookup 0 per glyph data 1" r dx=0 dy=0 dh=-64 dv=0 dx=0 dy=0 dh=0 dv=0
PairPos2: "'kern' Horizontal Kerning in Latin lookup 0 per glyph data 1" p dx=0 dy=0 dh=-64 dv=0 dx=0 dy=0 dh=0 dv=0
PairPos2: "'kern' Horizontal Kerning in Latin lookup 0 per glyph data 1" n dx=0 dy=0 dh=-64 dv=0 dx=0 dy=0 dh=0 dv=0
PairPos2: "'kern' Horizontal Kerning in Latin lookup 0 per glyph data 1" m dx=0 dy=0 dh=-64 dv=0 dx=0 dy=0 dh=0 dv=0
PairPos2: "'kern' Horizontal Kerning in Latin lookup 0 per glyph data 1" l dx=0 dy=0 dh=-64 dv=0 dx=0 dy=0 dh=0 dv=0
PairPos2: "'kern' Horizontal Kerning in Latin lookup 0 per glyph data 1" k dx=0 dy=0 dh=-64 dv=0 dx=0 dy=0 dh=0 dv=0
PairPos2: "'kern' Horizontal Kerning in Latin lookup 0 per glyph data 1" j dx=0 dy=0 dh=-64 dv=0 dx=0 dy=0 dh=0 dv=0
PairPos2: "'kern' Horizontal Kerning in Latin lookup 0 per glyph data 1" i dx=0 dy=0 dh=-64 dv=0 dx=0 dy=0 dh=0 dv=0
PairPos2: "'kern' Horizontal Kerning in Latin lookup 0 per glyph data 1" h dx=0 dy=0 dh=-64 dv=0 dx=0 dy=0 dh=0 dv=0
PairPos2: "'kern' Horizontal Kerning in Latin lookup 0 per glyph data 1" f dx=0 dy=0 dh=-64 dv=0 dx=0 dy=0 dh=0 dv=0
PairPos2: "'kern' Horizontal Kerning in Latin lookup 0 per glyph data 1" b dx=0 dy=0 dh=-64 dv=0 dx=0 dy=0 dh=0 dv=0
PairPos2: "'kern' Horizontal Kerning in Latin lookup 0 per glyph data 1" bracketright dx=0 dy=0 dh=-64 dv=0 dx=0 dy=0 dh=0 dv=0
PairPos2: "'kern' Horizontal Kerning in Latin lookup 0 per glyph data 1" bracketleft dx=0 dy=0 dh=-64 dv=0 dx=0 dy=0 dh=0 dv=0
PairPos2: "'kern' Horizontal Kerning in Latin lookup 0 per glyph data 1" nine dx=0 dy=0 dh=-59 dv=0 dx=0 dy=0 dh=0 dv=0
PairPos2: "'kern' Horizontal Kerning in Latin lookup 0 per glyph data 1" eight dx=0 dy=0 dh=-51 dv=0 dx=0 dy=0 dh=0 dv=0
PairPos2: "'kern' Horizontal Kerning in Latin lookup 0 per glyph data 1" seven dx=0 dy=0 dh=-67 dv=0 dx=0 dy=0 dh=0 dv=0
PairPos2: "'kern' Horizontal Kerning in Latin lookup 0 per glyph data 1" six dx=0 dy=0 dh=-37 dv=0 dx=0 dy=0 dh=0 dv=0
PairPos2: "'kern' Horizontal Kerning in Latin lookup 0 per glyph data 1" five dx=0 dy=0 dh=-36 dv=0 dx=0 dy=0 dh=0 dv=0
PairPos2: "'kern' Horizontal Kerning in Latin lookup 0 per glyph data 1" four dx=0 dy=0 dh=-59 dv=0 dx=0 dy=0 dh=0 dv=0
PairPos2: "'kern' Horizontal Kerning in Latin lookup 0 per glyph data 1" three dx=0 dy=0 dh=-59 dv=0 dx=0 dy=0 dh=0 dv=0
PairPos2: "'kern' Horizontal Kerning in Latin lookup 0 per glyph data 1" two dx=0 dy=0 dh=-59 dv=0 dx=0 dy=0 dh=0 dv=0
PairPos2: "'kern' Horizontal Kerning in Latin lookup 0 per glyph data 1" one dx=0 dy=0 dh=-64 dv=0 dx=0 dy=0 dh=0 dv=0
PairPos2: "'kern' Horizontal Kerning in Latin lookup 0 per glyph data 1" zero dx=0 dy=0 dh=-66 dv=0 dx=0 dy=0 dh=0 dv=0
PairPos2: "'kern' Horizontal Kerning in Latin lookup 0 per glyph data 1" parenright dx=0 dy=0 dh=-64 dv=0 dx=0 dy=0 dh=0 dv=0
PairPos2: "'kern' Horizontal Kerning in Latin lookup 0 per glyph data 1" parenleft dx=0 dy=0 dh=-64 dv=0 dx=0 dy=0 dh=0 dv=0
PairPos2: "'kern' Horizontal Kerning in Latin lookup 0 per glyph data 1" exclam dx=0 dy=0 dh=-64 dv=0 dx=0 dy=0 dh=0 dv=0
EndChar

StartChar: four
Encoding: 52 52 23
Width: 601
GlyphClass: 2
Flags: W
LayerCount: 2
Fore
SplineSet
402 0 m 1,0,-1
 402 140 l 1,1,-1
 102 140 l 1,2,-1
 85 195 l 1,3,-1
 402 662 l 1,4,-1
 470 662 l 1,5,-1
 470 195 l 1,6,-1
 516 195 l 1,7,-1
 517 140 l 1,8,-1
 470 140 l 1,9,-1
 470 0 l 1,10,-1
 402 0 l 1,0,-1
402 195 m 1,11,-1
 402 562 l 1,12,-1
 152 195 l 1,13,-1
 402 195 l 1,11,-1
EndSplineSet
EndChar

StartChar: five
Encoding: 53 53 24
Width: 475
GlyphClass: 2
Flags: W
LayerCount: 2
Fore
SplineSet
129 662 m 1,0,-1
 415 662 l 1,1,-1
 415 607 l 1,2,-1
 192 607 l 1,3,-1
 178 369 l 1,4,5
 221 369 221 369 264.5 364 c 128,-1,6
 308 359 308 359 343 341.5 c 128,-1,7
 378 324 378 324 399.5 291 c 128,-1,8
 421 258 421 258 421 201 c 0,9,10
 421 147 421 147 402 108.5 c 128,-1,11
 383 70 383 70 347.5 45.5 c 128,-1,12
 312 21 312 21 262.5 9 c 128,-1,13
 213 -3 213 -3 152 -3 c 0,14,15
 123 -3 123 -3 93 0 c 128,-1,16
 63 3 63 3 27 13 c 1,17,-1
 43 65 l 1,18,19
 66 57 66 57 93 54.5 c 128,-1,20
 120 52 120 52 146 52 c 0,21,22
 246 52 246 52 299.5 88 c 128,-1,23
 353 124 353 124 353 198 c 0,24,25
 353 245 353 245 331 270.5 c 128,-1,26
 309 296 309 296 274.5 308 c 128,-1,27
 240 320 240 320 199 322 c 128,-1,28
 158 324 158 324 120 324 c 2,29,-1
 109 324 l 1,30,-1
 129 662 l 1,0,-1
EndSplineSet
PairPos2: "'kern' Horizontal Kerning in Latin lookup 0 per glyph data 1" dotlessi dx=0 dy=0 dh=-43 dv=0 dx=0 dy=0 dh=0 dv=0
PairPos2: "'kern' Horizontal Kerning in Latin lookup 0 per glyph data 1" thorn dx=0 dy=0 dh=-43 dv=0 dx=0 dy=0 dh=0 dv=0
PairPos2: "'kern' Horizontal Kerning in Latin lookup 0 per glyph data 1" ntilde dx=0 dy=0 dh=-43 dv=0 dx=0 dy=0 dh=0 dv=0
PairPos2: "'kern' Horizontal Kerning in Latin lookup 0 per glyph data 1" idieresis dx=0 dy=0 dh=-43 dv=0 dx=0 dy=0 dh=0 dv=0
PairPos2: "'kern' Horizontal Kerning in Latin lookup 0 per glyph data 1" icircumflex dx=0 dy=0 dh=-43 dv=0 dx=0 dy=0 dh=0 dv=0
PairPos2: "'kern' Horizontal Kerning in Latin lookup 0 per glyph data 1" iacute dx=0 dy=0 dh=-43 dv=0 dx=0 dy=0 dh=0 dv=0
PairPos2: "'kern' Horizontal Kerning in Latin lookup 0 per glyph data 1" igrave dx=0 dy=0 dh=-43 dv=0 dx=0 dy=0 dh=0 dv=0
PairPos2: "'kern' Horizontal Kerning in Latin lookup 0 per glyph data 1" germandbls dx=0 dy=0 dh=-43 dv=0 dx=0 dy=0 dh=0 dv=0
PairPos2: "'kern' Horizontal Kerning in Latin lookup 0 per glyph data 1" mu dx=0 dy=0 dh=-43 dv=0 dx=0 dy=0 dh=0 dv=0
PairPos2: "'kern' Horizontal Kerning in Latin lookup 0 per glyph data 1" brokenbar dx=0 dy=0 dh=-43 dv=0 dx=0 dy=0 dh=0 dv=0
PairPos2: "'kern' Horizontal Kerning in Latin lookup 0 per glyph data 1" exclamdown dx=0 dy=0 dh=-43 dv=0 dx=0 dy=0 dh=0 dv=0
PairPos2: "'kern' Horizontal Kerning in Latin lookup 0 per glyph data 1" bar dx=0 dy=0 dh=-43 dv=0 dx=0 dy=0 dh=0 dv=0
PairPos2: "'kern' Horizontal Kerning in Latin lookup 0 per glyph data 1" r dx=0 dy=0 dh=-43 dv=0 dx=0 dy=0 dh=0 dv=0
PairPos2: "'kern' Horizontal Kerning in Latin lookup 0 per glyph data 1" p dx=0 dy=0 dh=-43 dv=0 dx=0 dy=0 dh=0 dv=0
PairPos2: "'kern' Horizontal Kerning in Latin lookup 0 per glyph data 1" n dx=0 dy=0 dh=-43 dv=0 dx=0 dy=0 dh=0 dv=0
PairPos2: "'kern' Horizontal Kerning in Latin lookup 0 per glyph data 1" m dx=0 dy=0 dh=-43 dv=0 dx=0 dy=0 dh=0 dv=0
PairPos2: "'kern' Horizontal Kerning in Latin lookup 0 per glyph data 1" l dx=0 dy=0 dh=-43 dv=0 dx=0 dy=0 dh=0 dv=0
PairPos2: "'kern' Horizontal Kerning in Latin lookup 0 per glyph data 1" k dx=0 dy=0 dh=-43 dv=0 dx=0 dy=0 dh=0 dv=0
PairPos2: "'kern' Horizontal Kerning in Latin lookup 0 per glyph data 1" j dx=0 dy=0 dh=-43 dv=0 dx=0 dy=0 dh=0 dv=0
PairPos2: "'kern' Horizontal Kerning in Latin lookup 0 per glyph data 1" i dx=0 dy=0 dh=-43 dv=0 dx=0 dy=0 dh=0 dv=0
PairPos2: "'kern' Horizontal Kerning in Latin lookup 0 per glyph data 1" h dx=0 dy=0 dh=-43 dv=0 dx=0 dy=0 dh=0 dv=0
PairPos2: "'kern' Horizontal Kerning in Latin lookup 0 per glyph data 1" f dx=0 dy=0 dh=-43 dv=0 dx=0 dy=0 dh=0 dv=0
PairPos2: "'kern' Horizontal Kerning in Latin lookup 0 per glyph data 1" b dx=0 dy=0 dh=-43 dv=0 dx=0 dy=0 dh=0 dv=0
PairPos2: "'kern' Horizontal Kerning in Latin lookup 0 per glyph data 1" bracketright dx=0 dy=0 dh=-43 dv=0 dx=0 dy=0 dh=0 dv=0
PairPos2: "'kern' Horizontal Kerning in Latin lookup 0 per glyph data 1" bracketleft dx=0 dy=0 dh=-43 dv=0 dx=0 dy=0 dh=0 dv=0
PairPos2: "'kern' Horizontal Kerning in Latin lookup 0 per glyph data 1" nine dx=0 dy=0 dh=-29 dv=0 dx=0 dy=0 dh=0 dv=0
PairPos2: "'kern' Horizontal Kerning in Latin lookup 0 per glyph data 1" eight dx=0 dy=0 dh=-44 dv=0 dx=0 dy=0 dh=0 dv=0
PairPos2: "'kern' Horizontal Kerning in Latin lookup 0 per glyph data 1" seven dx=0 dy=0 dh=-37 dv=0 dx=0 dy=0 dh=0 dv=0
PairPos2: "'kern' Horizontal Kerning in Latin lookup 0 per glyph data 1" six dx=0 dy=0 dh=-15 dv=0 dx=0 dy=0 dh=0 dv=0
PairPos2: "'kern' Horizontal Kerning in Latin lookup 0 per glyph data 1" five dx=0 dy=0 dh=-37 dv=0 dx=0 dy=0 dh=0 dv=0
PairPos2: "'kern' Horizontal Kerning in Latin lookup 0 per glyph data 1" four dx=0 dy=0 dh=-45 dv=0 dx=0 dy=0 dh=0 dv=0
PairPos2: "'kern' Horizontal Kerning in Latin lookup 0 per glyph data 1" three dx=0 dy=0 dh=-68 dv=0 dx=0 dy=0 dh=0 dv=0
PairPos2: "'kern' Horizontal Kerning in Latin lookup 0 per glyph data 1" two dx=0 dy=0 dh=-58 dv=0 dx=0 dy=0 dh=0 dv=0
PairPos2: "'kern' Horizontal Kerning in Latin lookup 0 per glyph data 1" one dx=0 dy=0 dh=-43 dv=0 dx=0 dy=0 dh=0 dv=0
PairPos2: "'kern' Horizontal Kerning in Latin lookup 0 per glyph data 1" zero dx=0 dy=0 dh=-37 dv=0 dx=0 dy=0 dh=0 dv=0
PairPos2: "'kern' Horizontal Kerning in Latin lookup 0 per glyph data 1" parenright dx=0 dy=0 dh=-43 dv=0 dx=0 dy=0 dh=0 dv=0
PairPos2: "'kern' Horizontal Kerning in Latin lookup 0 per glyph data 1" parenleft dx=0 dy=0 dh=-43 dv=0 dx=0 dy=0 dh=0 dv=0
PairPos2: "'kern' Horizontal Kerning in Latin lookup 0 per glyph data 1" exclam dx=0 dy=0 dh=-43 dv=0 dx=0 dy=0 dh=0 dv=0
EndChar

StartChar: six
Encoding: 54 54 25
Width: 601
GlyphClass: 2
Flags: W
LayerCount: 2
Fore
SplineSet
464 614 m 1,0,1
 458 610 458 610 428.5 593.5 c 128,-1,2
 399 577 399 577 359.5 548.5 c 128,-1,3
 320 520 320 520 277 480 c 128,-1,4
 234 440 234 440 200 389 c 1,5,6
 233 388 233 388 266 386.5 c 128,-1,7
 299 385 299 385 321 382 c 0,8,9
 354 377 354 377 383.5 364.5 c 128,-1,10
 413 352 413 352 434.5 329.5 c 128,-1,11
 456 307 456 307 468.5 274.5 c 128,-1,12
 481 242 481 242 481 198 c 0,13,14
 481 153 481 153 465.5 116 c 128,-1,15
 450 79 450 79 421.5 52.5 c 128,-1,16
 393 26 393 26 353 11 c 128,-1,17
 313 -4 313 -4 264 -4 c 0,18,19
 226 -4 226 -4 191 6 c 128,-1,20
 156 16 156 16 129 38.5 c 128,-1,21
 102 61 102 61 86 97.5 c 128,-1,22
 70 134 70 134 70 187 c 0,23,24
 70 258 70 258 95 320 c 128,-1,25
 120 382 120 382 157.5 433 c 128,-1,26
 195 484 195 484 240.5 524.5 c 128,-1,27
 286 565 286 565 326.5 594 c 128,-1,28
 367 623 367 623 397.5 640 c 128,-1,29
 428 657 428 657 437 662 c 1,30,-1
 464 614 l 1,0,1
309 327 m 0,31,32
 285 331 285 331 250 332 c 128,-1,33
 215 333 215 333 170 334 c 1,34,35
 155 301 155 301 146.5 265 c 128,-1,36
 138 229 138 229 138 189 c 0,37,38
 138 148 138 148 150 121.5 c 128,-1,39
 162 95 162 95 181 79.5 c 128,-1,40
 200 64 200 64 223 57.5 c 128,-1,41
 246 51 246 51 268 51 c 0,42,43
 300 51 300 51 327 62 c 128,-1,44
 354 73 354 73 373 93 c 128,-1,45
 392 113 392 113 402.5 139.5 c 128,-1,46
 413 166 413 166 413 198 c 0,47,48
 413 256 413 256 383.5 288 c 128,-1,49
 354 320 354 320 309 327 c 0,31,32
EndSplineSet
PairPos2: "'kern' Horizontal Kerning in Latin lookup 0 per glyph data 1" dotlessi dx=0 dy=0 dh=-93 dv=0 dx=0 dy=0 dh=0 dv=0
PairPos2: "'kern' Horizontal Kerning in Latin lookup 0 per glyph data 1" thorn dx=0 dy=0 dh=-93 dv=0 dx=0 dy=0 dh=0 dv=0
PairPos2: "'kern' Horizontal Kerning in Latin lookup 0 per glyph data 1" ntilde dx=0 dy=0 dh=-93 dv=0 dx=0 dy=0 dh=0 dv=0
PairPos2: "'kern' Horizontal Kerning in Latin lookup 0 per glyph data 1" idieresis dx=0 dy=0 dh=-93 dv=0 dx=0 dy=0 dh=0 dv=0
PairPos2: "'kern' Horizontal Kerning in Latin lookup 0 per glyph data 1" icircumflex dx=0 dy=0 dh=-93 dv=0 dx=0 dy=0 dh=0 dv=0
PairPos2: "'kern' Horizontal Kerning in Latin lookup 0 per glyph data 1" iacute dx=0 dy=0 dh=-93 dv=0 dx=0 dy=0 dh=0 dv=0
PairPos2: "'kern' Horizontal Kerning in Latin lookup 0 per glyph data 1" igrave dx=0 dy=0 dh=-93 dv=0 dx=0 dy=0 dh=0 dv=0
PairPos2: "'kern' Horizontal Kerning in Latin lookup 0 per glyph data 1" germandbls dx=0 dy=0 dh=-93 dv=0 dx=0 dy=0 dh=0 dv=0
PairPos2: "'kern' Horizontal Kerning in Latin lookup 0 per glyph data 1" mu dx=0 dy=0 dh=-93 dv=0 dx=0 dy=0 dh=0 dv=0
PairPos2: "'kern' Horizontal Kerning in Latin lookup 0 per glyph data 1" brokenbar dx=0 dy=0 dh=-93 dv=0 dx=0 dy=0 dh=0 dv=0
PairPos2: "'kern' Horizontal Kerning in Latin lookup 0 per glyph data 1" exclamdown dx=0 dy=0 dh=-93 dv=0 dx=0 dy=0 dh=0 dv=0
PairPos2: "'kern' Horizontal Kerning in Latin lookup 0 per glyph data 1" bar dx=0 dy=0 dh=-93 dv=0 dx=0 dy=0 dh=0 dv=0
PairPos2: "'kern' Horizontal Kerning in Latin lookup 0 per glyph data 1" r dx=0 dy=0 dh=-93 dv=0 dx=0 dy=0 dh=0 dv=0
PairPos2: "'kern' Horizontal Kerning in Latin lookup 0 per glyph data 1" p dx=0 dy=0 dh=-93 dv=0 dx=0 dy=0 dh=0 dv=0
PairPos2: "'kern' Horizontal Kerning in Latin lookup 0 per glyph data 1" n dx=0 dy=0 dh=-93 dv=0 dx=0 dy=0 dh=0 dv=0
PairPos2: "'kern' Horizontal Kerning in Latin lookup 0 per glyph data 1" m dx=0 dy=0 dh=-93 dv=0 dx=0 dy=0 dh=0 dv=0
PairPos2: "'kern' Horizontal Kerning in Latin lookup 0 per glyph data 1" l dx=0 dy=0 dh=-93 dv=0 dx=0 dy=0 dh=0 dv=0
PairPos2: "'kern' Horizontal Kerning in Latin lookup 0 per glyph data 1" k dx=0 dy=0 dh=-93 dv=0 dx=0 dy=0 dh=0 dv=0
PairPos2: "'kern' Horizontal Kerning in Latin lookup 0 per glyph data 1" j dx=0 dy=0 dh=-93 dv=0 dx=0 dy=0 dh=0 dv=0
PairPos2: "'kern' Horizontal Kerning in Latin lookup 0 per glyph data 1" i dx=0 dy=0 dh=-93 dv=0 dx=0 dy=0 dh=0 dv=0
PairPos2: "'kern' Horizontal Kerning in Latin lookup 0 per glyph data 1" h dx=0 dy=0 dh=-93 dv=0 dx=0 dy=0 dh=0 dv=0
PairPos2: "'kern' Horizontal Kerning in Latin lookup 0 per glyph data 1" f dx=0 dy=0 dh=-93 dv=0 dx=0 dy=0 dh=0 dv=0
PairPos2: "'kern' Horizontal Kerning in Latin lookup 0 per glyph data 1" b dx=0 dy=0 dh=-93 dv=0 dx=0 dy=0 dh=0 dv=0
PairPos2: "'kern' Horizontal Kerning in Latin lookup 0 per glyph data 1" bracketright dx=0 dy=0 dh=-93 dv=0 dx=0 dy=0 dh=0 dv=0
PairPos2: "'kern' Horizontal Kerning in Latin lookup 0 per glyph data 1" bracketleft dx=0 dy=0 dh=-93 dv=0 dx=0 dy=0 dh=0 dv=0
PairPos2: "'kern' Horizontal Kerning in Latin lookup 0 per glyph data 1" nine dx=0 dy=0 dh=-89 dv=0 dx=0 dy=0 dh=0 dv=0
PairPos2: "'kern' Horizontal Kerning in Latin lookup 0 per glyph data 1" eight dx=0 dy=0 dh=-89 dv=0 dx=0 dy=0 dh=0 dv=0
PairPos2: "'kern' Horizontal Kerning in Latin lookup 0 per glyph data 1" seven dx=0 dy=0 dh=-96 dv=0 dx=0 dy=0 dh=0 dv=0
PairPos2: "'kern' Horizontal Kerning in Latin lookup 0 per glyph data 1" six dx=0 dy=0 dh=-81 dv=0 dx=0 dy=0 dh=0 dv=0
PairPos2: "'kern' Horizontal Kerning in Latin lookup 0 per glyph data 1" five dx=0 dy=0 dh=-73 dv=0 dx=0 dy=0 dh=0 dv=0
PairPos2: "'kern' Horizontal Kerning in Latin lookup 0 per glyph data 1" four dx=0 dy=0 dh=-103 dv=0 dx=0 dy=0 dh=0 dv=0
PairPos2: "'kern' Horizontal Kerning in Latin lookup 0 per glyph data 1" three dx=0 dy=0 dh=-96 dv=0 dx=0 dy=0 dh=0 dv=0
PairPos2: "'kern' Horizontal Kerning in Latin lookup 0 per glyph data 1" two dx=0 dy=0 dh=-88 dv=0 dx=0 dy=0 dh=0 dv=0
PairPos2: "'kern' Horizontal Kerning in Latin lookup 0 per glyph data 1" one dx=0 dy=0 dh=-93 dv=0 dx=0 dy=0 dh=0 dv=0
PairPos2: "'kern' Horizontal Kerning in Latin lookup 0 per glyph data 1" zero dx=0 dy=0 dh=-96 dv=0 dx=0 dy=0 dh=0 dv=0
PairPos2: "'kern' Horizontal Kerning in Latin lookup 0 per glyph data 1" parenright dx=0 dy=0 dh=-93 dv=0 dx=0 dy=0 dh=0 dv=0
PairPos2: "'kern' Horizontal Kerning in Latin lookup 0 per glyph data 1" parenleft dx=0 dy=0 dh=-93 dv=0 dx=0 dy=0 dh=0 dv=0
PairPos2: "'kern' Horizontal Kerning in Latin lookup 0 per glyph data 1" exclam dx=0 dy=0 dh=-93 dv=0 dx=0 dy=0 dh=0 dv=0
EndChar

StartChar: seven
Encoding: 55 55 26
Width: 564
GlyphClass: 2
Flags: W
LayerCount: 2
Fore
SplineSet
90 662 m 1,0,-1
 461 662 l 1,1,-1
 475 607 l 1,2,-1
 223 0 l 1,3,-1
 157 0 l 1,4,-1
 409 607 l 1,5,-1
 90 607 l 1,6,-1
 90 662 l 1,0,-1
EndSplineSet
EndChar

StartChar: eight
Encoding: 56 56 27
Width: 613
GlyphClass: 2
Flags: W
LayerCount: 2
Fore
SplineSet
532 173 m 0,0,1
 532 157 532 157 525.5 127.5 c 128,-1,2
 519 98 519 98 496 68.5 c 128,-1,3
 473 39 473 39 428.5 17.5 c 128,-1,4
 384 -4 384 -4 308 -4 c 256,5,6
 232 -4 232 -4 188 17.5 c 128,-1,7
 144 39 144 39 121.5 68.5 c 128,-1,8
 99 98 99 98 92.5 127.5 c 128,-1,9
 86 157 86 157 86 173 c 0,10,11
 86 214 86 214 95 245 c 128,-1,12
 104 276 104 276 119 300.5 c 128,-1,13
 134 325 134 325 154.5 344.5 c 128,-1,14
 175 364 175 364 199 382 c 1,15,16
 166 400 166 400 145 431 c 128,-1,17
 124 462 124 462 124 518 c 0,18,19
 124 561 124 561 139.5 589.5 c 128,-1,20
 155 618 155 618 181 635 c 128,-1,21
 207 652 207 652 240 659 c 128,-1,22
 273 666 273 666 308 666 c 0,23,24
 318 666 318 666 336 665 c 128,-1,25
 354 664 354 664 374.5 660 c 128,-1,26
 395 656 395 656 416.5 647 c 128,-1,27
 438 638 438 638 455 621.5 c 128,-1,28
 472 605 472 605 483 580 c 128,-1,29
 494 555 494 555 494 518 c 0,30,31
 494 464 494 464 470 427 c 128,-1,32
 446 390 446 390 417 367 c 1,33,34
 441 357 441 357 461.5 342 c 128,-1,35
 482 327 482 327 498 304.5 c 128,-1,36
 514 282 514 282 523 250 c 128,-1,37
 532 218 532 218 532 173 c 0,0,1
151 173 m 0,38,39
 151 127 151 127 172.5 102 c 128,-1,40
 194 77 194 77 221.5 65 c 128,-1,41
 249 53 249 53 274.5 51 c 128,-1,42
 300 49 300 49 308 49 c 0,43,44
 363 49 363 49 395 64.5 c 128,-1,45
 427 80 427 80 443 101 c 128,-1,46
 459 122 459 122 463 142.5 c 128,-1,47
 467 163 467 163 467 173 c 0,48,49
 467 231 467 231 445.5 264 c 128,-1,50
 424 297 424 297 390.5 315 c 128,-1,51
 357 333 357 333 316.5 342.5 c 128,-1,52
 276 352 276 352 239 365 c 1,53,54
 224 353 224 353 208.5 336 c 128,-1,55
 193 319 193 319 180.5 296 c 128,-1,56
 168 273 168 273 159.5 242.5 c 128,-1,57
 151 212 151 212 151 173 c 0,38,39
417 471 m 1,58,59
 422 485 422 485 424.5 503.5 c 128,-1,60
 427 522 427 522 425 545 c 1,61,62
 422 555 422 555 415.5 567 c 128,-1,63
 409 579 409 579 395.5 589 c 128,-1,64
 382 599 382 599 360.5 606 c 128,-1,65
 339 613 339 613 308 613 c 0,66,67
 267 613 267 613 243 601.5 c 128,-1,68
 219 590 219 590 207 574.5 c 128,-1,69
 195 559 195 559 192 543.5 c 128,-1,70
 189 528 189 528 189 519 c 0,71,72
 189 480 189 480 205 457.5 c 128,-1,73
 221 435 221 435 247 421.5 c 128,-1,74
 273 408 273 408 306 400.5 c 128,-1,75
 339 393 339 393 373 383 c 1,76,77
 387 397 387 397 399.5 418.5 c 128,-1,78
 412 440 412 440 417 471 c 1,58,59
EndSplineSet
PairPos2: "'kern' Horizontal Kerning in Latin lookup 0 per glyph data 1" dotlessi dx=0 dy=0 dh=-79 dv=0 dx=0 dy=0 dh=0 dv=0
PairPos2: "'kern' Horizontal Kerning in Latin lookup 0 per glyph data 1" thorn dx=0 dy=0 dh=-79 dv=0 dx=0 dy=0 dh=0 dv=0
PairPos2: "'kern' Horizontal Kerning in Latin lookup 0 per glyph data 1" ntilde dx=0 dy=0 dh=-79 dv=0 dx=0 dy=0 dh=0 dv=0
PairPos2: "'kern' Horizontal Kerning in Latin lookup 0 per glyph data 1" idieresis dx=0 dy=0 dh=-79 dv=0 dx=0 dy=0 dh=0 dv=0
PairPos2: "'kern' Horizontal Kerning in Latin lookup 0 per glyph data 1" icircumflex dx=0 dy=0 dh=-79 dv=0 dx=0 dy=0 dh=0 dv=0
PairPos2: "'kern' Horizontal Kerning in Latin lookup 0 per glyph data 1" iacute dx=0 dy=0 dh=-79 dv=0 dx=0 dy=0 dh=0 dv=0
PairPos2: "'kern' Horizontal Kerning in Latin lookup 0 per glyph data 1" igrave dx=0 dy=0 dh=-79 dv=0 dx=0 dy=0 dh=0 dv=0
PairPos2: "'kern' Horizontal Kerning in Latin lookup 0 per glyph data 1" germandbls dx=0 dy=0 dh=-79 dv=0 dx=0 dy=0 dh=0 dv=0
PairPos2: "'kern' Horizontal Kerning in Latin lookup 0 per glyph data 1" mu dx=0 dy=0 dh=-79 dv=0 dx=0 dy=0 dh=0 dv=0
PairPos2: "'kern' Horizontal Kerning in Latin lookup 0 per glyph data 1" brokenbar dx=0 dy=0 dh=-79 dv=0 dx=0 dy=0 dh=0 dv=0
PairPos2: "'kern' Horizontal Kerning in Latin lookup 0 per glyph data 1" exclamdown dx=0 dy=0 dh=-79 dv=0 dx=0 dy=0 dh=0 dv=0
PairPos2: "'kern' Horizontal Kerning in Latin lookup 0 per glyph data 1" bar dx=0 dy=0 dh=-79 dv=0 dx=0 dy=0 dh=0 dv=0
PairPos2: "'kern' Horizontal Kerning in Latin lookup 0 per glyph data 1" r dx=0 dy=0 dh=-79 dv=0 dx=0 dy=0 dh=0 dv=0
PairPos2: "'kern' Horizontal Kerning in Latin lookup 0 per glyph data 1" p dx=0 dy=0 dh=-79 dv=0 dx=0 dy=0 dh=0 dv=0
PairPos2: "'kern' Horizontal Kerning in Latin lookup 0 per glyph data 1" n dx=0 dy=0 dh=-79 dv=0 dx=0 dy=0 dh=0 dv=0
PairPos2: "'kern' Horizontal Kerning in Latin lookup 0 per glyph data 1" m dx=0 dy=0 dh=-79 dv=0 dx=0 dy=0 dh=0 dv=0
PairPos2: "'kern' Horizontal Kerning in Latin lookup 0 per glyph data 1" l dx=0 dy=0 dh=-79 dv=0 dx=0 dy=0 dh=0 dv=0
PairPos2: "'kern' Horizontal Kerning in Latin lookup 0 per glyph data 1" k dx=0 dy=0 dh=-79 dv=0 dx=0 dy=0 dh=0 dv=0
PairPos2: "'kern' Horizontal Kerning in Latin lookup 0 per glyph data 1" j dx=0 dy=0 dh=-79 dv=0 dx=0 dy=0 dh=0 dv=0
PairPos2: "'kern' Horizontal Kerning in Latin lookup 0 per glyph data 1" i dx=0 dy=0 dh=-79 dv=0 dx=0 dy=0 dh=0 dv=0
PairPos2: "'kern' Horizontal Kerning in Latin lookup 0 per glyph data 1" h dx=0 dy=0 dh=-79 dv=0 dx=0 dy=0 dh=0 dv=0
PairPos2: "'kern' Horizontal Kerning in Latin lookup 0 per glyph data 1" f dx=0 dy=0 dh=-79 dv=0 dx=0 dy=0 dh=0 dv=0
PairPos2: "'kern' Horizontal Kerning in Latin lookup 0 per glyph data 1" b dx=0 dy=0 dh=-79 dv=0 dx=0 dy=0 dh=0 dv=0
PairPos2: "'kern' Horizontal Kerning in Latin lookup 0 per glyph data 1" bracketright dx=0 dy=0 dh=-79 dv=0 dx=0 dy=0 dh=0 dv=0
PairPos2: "'kern' Horizontal Kerning in Latin lookup 0 per glyph data 1" bracketleft dx=0 dy=0 dh=-79 dv=0 dx=0 dy=0 dh=0 dv=0
PairPos2: "'kern' Horizontal Kerning in Latin lookup 0 per glyph data 1" nine dx=0 dy=0 dh=-64 dv=0 dx=0 dy=0 dh=0 dv=0
PairPos2: "'kern' Horizontal Kerning in Latin lookup 0 per glyph data 1" eight dx=0 dy=0 dh=-82 dv=0 dx=0 dy=0 dh=0 dv=0
PairPos2: "'kern' Horizontal Kerning in Latin lookup 0 per glyph data 1" seven dx=0 dy=0 dh=-89 dv=0 dx=0 dy=0 dh=0 dv=0
PairPos2: "'kern' Horizontal Kerning in Latin lookup 0 per glyph data 1" six dx=0 dy=0 dh=-66 dv=0 dx=0 dy=0 dh=0 dv=0
PairPos2: "'kern' Horizontal Kerning in Latin lookup 0 per glyph data 1" five dx=0 dy=0 dh=-59 dv=0 dx=0 dy=0 dh=0 dv=0
PairPos2: "'kern' Horizontal Kerning in Latin lookup 0 per glyph data 1" four dx=0 dy=0 dh=-74 dv=0 dx=0 dy=0 dh=0 dv=0
PairPos2: "'kern' Horizontal Kerning in Latin lookup 0 per glyph data 1" three dx=0 dy=0 dh=-66 dv=0 dx=0 dy=0 dh=0 dv=0
PairPos2: "'kern' Horizontal Kerning in Latin lookup 0 per glyph data 1" two dx=0 dy=0 dh=-73 dv=0 dx=0 dy=0 dh=0 dv=0
PairPos2: "'kern' Horizontal Kerning in Latin lookup 0 per glyph data 1" one dx=0 dy=0 dh=-79 dv=0 dx=0 dy=0 dh=0 dv=0
PairPos2: "'kern' Horizontal Kerning in Latin lookup 0 per glyph data 1" zero dx=0 dy=0 dh=-88 dv=0 dx=0 dy=0 dh=0 dv=0
PairPos2: "'kern' Horizontal Kerning in Latin lookup 0 per glyph data 1" parenright dx=0 dy=0 dh=-79 dv=0 dx=0 dy=0 dh=0 dv=0
PairPos2: "'kern' Horizontal Kerning in Latin lookup 0 per glyph data 1" parenleft dx=0 dy=0 dh=-79 dv=0 dx=0 dy=0 dh=0 dv=0
PairPos2: "'kern' Horizontal Kerning in Latin lookup 0 per glyph data 1" exclam dx=0 dy=0 dh=-79 dv=0 dx=0 dy=0 dh=0 dv=0
EndChar

StartChar: nine
Encoding: 57 57 28
Width: 601
GlyphClass: 2
Flags: W
LayerCount: 2
Fore
SplineSet
86 44 m 1,0,1
 92 48 92 48 121.5 64 c 128,-1,2
 151 80 151 80 190.5 108.5 c 128,-1,3
 230 137 230 137 273 177 c 128,-1,4
 316 217 316 217 350 269 c 1,5,6
 318 269 318 269 285 270.5 c 128,-1,7
 252 272 252 272 230 276 c 0,8,9
 197 281 197 281 167.5 293.5 c 128,-1,10
 138 306 138 306 116.5 328.5 c 128,-1,11
 95 351 95 351 82.5 383.5 c 128,-1,12
 70 416 70 416 70 460 c 0,13,14
 70 505 70 505 85.5 542 c 128,-1,15
 101 579 101 579 129.5 605.5 c 128,-1,16
 158 632 158 632 198 647 c 128,-1,17
 238 662 238 662 287 662 c 0,18,19
 325 662 325 662 360 652 c 128,-1,20
 395 642 395 642 422 619.5 c 128,-1,21
 449 597 449 597 465 560.5 c 128,-1,22
 481 524 481 524 481 471 c 0,23,24
 481 400 481 400 456 338 c 128,-1,25
 431 276 431 276 393.5 225 c 128,-1,26
 356 174 356 174 310.5 133.5 c 128,-1,27
 265 93 265 93 224.5 64 c 128,-1,28
 184 35 184 35 153.5 17.5 c 128,-1,29
 123 0 123 0 114 -4 c 1,30,-1
 86 44 l 1,0,1
242 331 m 1,31,32
 265 326 265 326 300.5 325 c 128,-1,33
 336 324 336 324 381 324 c 1,34,35
 396 356 396 356 404.5 392.5 c 128,-1,36
 413 429 413 429 413 469 c 256,37,38
 413 509 413 509 400.5 536 c 128,-1,39
 388 563 388 563 369 578.5 c 128,-1,40
 350 594 350 594 327 600.5 c 128,-1,41
 304 607 304 607 283 607 c 0,42,43
 250 607 250 607 223.5 596 c 128,-1,44
 197 585 197 585 178 565 c 128,-1,45
 159 545 159 545 148.5 518 c 128,-1,46
 138 491 138 491 138 460 c 0,47,48
 138 401 138 401 167.5 369 c 128,-1,49
 197 337 197 337 242 331 c 1,31,32
EndSplineSet
PairPos2: "'kern' Horizontal Kerning in Latin lookup 0 per glyph data 1" dotlessi dx=0 dy=0 dh=-93 dv=0 dx=0 dy=0 dh=0 dv=0
PairPos2: "'kern' Horizontal Kerning in Latin lookup 0 per glyph data 1" thorn dx=0 dy=0 dh=-93 dv=0 dx=0 dy=0 dh=0 dv=0
PairPos2: "'kern' Horizontal Kerning in Latin lookup 0 per glyph data 1" ntilde dx=0 dy=0 dh=-93 dv=0 dx=0 dy=0 dh=0 dv=0
PairPos2: "'kern' Horizontal Kerning in Latin lookup 0 per glyph data 1" idieresis dx=0 dy=0 dh=-93 dv=0 dx=0 dy=0 dh=0 dv=0
PairPos2: "'kern' Horizontal Kerning in Latin lookup 0 per glyph data 1" icircumflex dx=0 dy=0 dh=-93 dv=0 dx=0 dy=0 dh=0 dv=0
PairPos2: "'kern' Horizontal Kerning in Latin lookup 0 per glyph data 1" iacute dx=0 dy=0 dh=-93 dv=0 dx=0 dy=0 dh=0 dv=0
PairPos2: "'kern' Horizontal Kerning in Latin lookup 0 per glyph data 1" igrave dx=0 dy=0 dh=-93 dv=0 dx=0 dy=0 dh=0 dv=0
PairPos2: "'kern' Horizontal Kerning in Latin lookup 0 per glyph data 1" germandbls dx=0 dy=0 dh=-93 dv=0 dx=0 dy=0 dh=0 dv=0
PairPos2: "'kern' Horizontal Kerning in Latin lookup 0 per glyph data 1" mu dx=0 dy=0 dh=-93 dv=0 dx=0 dy=0 dh=0 dv=0
PairPos2: "'kern' Horizontal Kerning in Latin lookup 0 per glyph data 1" brokenbar dx=0 dy=0 dh=-93 dv=0 dx=0 dy=0 dh=0 dv=0
PairPos2: "'kern' Horizontal Kerning in Latin lookup 0 per glyph data 1" exclamdown dx=0 dy=0 dh=-93 dv=0 dx=0 dy=0 dh=0 dv=0
PairPos2: "'kern' Horizontal Kerning in Latin lookup 0 per glyph data 1" bar dx=0 dy=0 dh=-93 dv=0 dx=0 dy=0 dh=0 dv=0
PairPos2: "'kern' Horizontal Kerning in Latin lookup 0 per glyph data 1" r dx=0 dy=0 dh=-93 dv=0 dx=0 dy=0 dh=0 dv=0
PairPos2: "'kern' Horizontal Kerning in Latin lookup 0 per glyph data 1" p dx=0 dy=0 dh=-93 dv=0 dx=0 dy=0 dh=0 dv=0
PairPos2: "'kern' Horizontal Kerning in Latin lookup 0 per glyph data 1" n dx=0 dy=0 dh=-93 dv=0 dx=0 dy=0 dh=0 dv=0
PairPos2: "'kern' Horizontal Kerning in Latin lookup 0 per glyph data 1" m dx=0 dy=0 dh=-93 dv=0 dx=0 dy=0 dh=0 dv=0
PairPos2: "'kern' Horizontal Kerning in Latin lookup 0 per glyph data 1" l dx=0 dy=0 dh=-93 dv=0 dx=0 dy=0 dh=0 dv=0
PairPos2: "'kern' Horizontal Kerning in Latin lookup 0 per glyph data 1" k dx=0 dy=0 dh=-93 dv=0 dx=0 dy=0 dh=0 dv=0
PairPos2: "'kern' Horizontal Kerning in Latin lookup 0 per glyph data 1" j dx=0 dy=0 dh=-93 dv=0 dx=0 dy=0 dh=0 dv=0
PairPos2: "'kern' Horizontal Kerning in Latin lookup 0 per glyph data 1" i dx=0 dy=0 dh=-93 dv=0 dx=0 dy=0 dh=0 dv=0
PairPos2: "'kern' Horizontal Kerning in Latin lookup 0 per glyph data 1" h dx=0 dy=0 dh=-93 dv=0 dx=0 dy=0 dh=0 dv=0
PairPos2: "'kern' Horizontal Kerning in Latin lookup 0 per glyph data 1" f dx=0 dy=0 dh=-93 dv=0 dx=0 dy=0 dh=0 dv=0
PairPos2: "'kern' Horizontal Kerning in Latin lookup 0 per glyph data 1" b dx=0 dy=0 dh=-93 dv=0 dx=0 dy=0 dh=0 dv=0
PairPos2: "'kern' Horizontal Kerning in Latin lookup 0 per glyph data 1" bracketright dx=0 dy=0 dh=-93 dv=0 dx=0 dy=0 dh=0 dv=0
PairPos2: "'kern' Horizontal Kerning in Latin lookup 0 per glyph data 1" bracketleft dx=0 dy=0 dh=-93 dv=0 dx=0 dy=0 dh=0 dv=0
PairPos2: "'kern' Horizontal Kerning in Latin lookup 0 per glyph data 1" nine dx=0 dy=0 dh=-103 dv=0 dx=0 dy=0 dh=0 dv=0
PairPos2: "'kern' Horizontal Kerning in Latin lookup 0 per glyph data 1" eight dx=0 dy=0 dh=-133 dv=0 dx=0 dy=0 dh=0 dv=0
PairPos2: "'kern' Horizontal Kerning in Latin lookup 0 per glyph data 1" seven dx=0 dy=0 dh=-126 dv=0 dx=0 dy=0 dh=0 dv=0
PairPos2: "'kern' Horizontal Kerning in Latin lookup 0 per glyph data 1" six dx=0 dy=0 dh=-125 dv=0 dx=0 dy=0 dh=0 dv=0
PairPos2: "'kern' Horizontal Kerning in Latin lookup 0 per glyph data 1" five dx=0 dy=0 dh=-104 dv=0 dx=0 dy=0 dh=0 dv=0
PairPos2: "'kern' Horizontal Kerning in Latin lookup 0 per glyph data 1" four dx=0 dy=0 dh=-126 dv=0 dx=0 dy=0 dh=0 dv=0
PairPos2: "'kern' Horizontal Kerning in Latin lookup 0 per glyph data 1" three dx=0 dy=0 dh=-133 dv=0 dx=0 dy=0 dh=0 dv=0
PairPos2: "'kern' Horizontal Kerning in Latin lookup 0 per glyph data 1" two dx=0 dy=0 dh=-125 dv=0 dx=0 dy=0 dh=0 dv=0
PairPos2: "'kern' Horizontal Kerning in Latin lookup 0 per glyph data 1" one dx=0 dy=0 dh=-93 dv=0 dx=0 dy=0 dh=0 dv=0
PairPos2: "'kern' Horizontal Kerning in Latin lookup 0 per glyph data 1" zero dx=0 dy=0 dh=-103 dv=0 dx=0 dy=0 dh=0 dv=0
PairPos2: "'kern' Horizontal Kerning in Latin lookup 0 per glyph data 1" parenright dx=0 dy=0 dh=-93 dv=0 dx=0 dy=0 dh=0 dv=0
PairPos2: "'kern' Horizontal Kerning in Latin lookup 0 per glyph data 1" parenleft dx=0 dy=0 dh=-93 dv=0 dx=0 dy=0 dh=0 dv=0
PairPos2: "'kern' Horizontal Kerning in Latin lookup 0 per glyph data 1" exclam dx=0 dy=0 dh=-93 dv=0 dx=0 dy=0 dh=0 dv=0
EndChar

StartChar: colon
Encoding: 58 58 29
Width: 250
GlyphClass: 2
Flags: W
LayerCount: 2
Fore
SplineSet
79 29 m 0,0,1
 79 48 79 48 88.5 59 c 128,-1,2
 98 70 98 70 114 70 c 0,3,4
 135 70 135 70 142 59 c 128,-1,5
 149 48 149 48 149 29 c 0,6,7
 149 12 149 12 138.5 2 c 128,-1,8
 128 -8 128 -8 114 -8 c 0,9,10
 94 -8 94 -8 86.5 2 c 128,-1,11
 79 12 79 12 79 29 c 0,0,1
79 432 m 0,12,13
 79 451 79 451 88.5 462 c 128,-1,14
 98 473 98 473 114 473 c 0,15,16
 135 473 135 473 142 462 c 128,-1,17
 149 451 149 451 149 432 c 0,18,19
 149 415 149 415 138.5 405 c 128,-1,20
 128 395 128 395 114 395 c 0,21,22
 94 395 94 395 86.5 405 c 128,-1,23
 79 415 79 415 79 432 c 0,12,13
EndSplineSet
EndChar

StartChar: semicolon
Encoding: 59 59 30
Width: 232
GlyphClass: 2
Flags: W
LayerCount: 2
Fore
SplineSet
127 64 m 1,0,1
 127 44 127 44 123.5 15.5 c 128,-1,2
 120 -13 120 -13 115.5 -38.5 c 128,-1,3
 111 -64 111 -64 107 -82.5 c 128,-1,4
 103 -101 103 -101 103 -102 c 1,5,-1
 68 -102 l 1,6,7
 68 -101 68 -101 72 -82.5 c 128,-1,8
 76 -64 76 -64 80.5 -38.5 c 128,-1,9
 85 -13 85 -13 88.5 15.5 c 128,-1,10
 92 44 92 44 92 64 c 1,11,-1
 127 64 l 1,0,1
79 432 m 0,12,13
 79 451 79 451 88.5 462 c 128,-1,14
 98 473 98 473 114 473 c 0,15,16
 135 473 135 473 142 462 c 128,-1,17
 149 451 149 451 149 432 c 0,18,19
 149 415 149 415 138.5 405 c 128,-1,20
 128 395 128 395 114 395 c 0,21,22
 94 395 94 395 86.5 405 c 128,-1,23
 79 415 79 415 79 432 c 0,12,13
EndSplineSet
EndChar

StartChar: less
Encoding: 60 60 31
Width: 569
GlyphClass: 2
Flags: W
LayerCount: 2
Fore
SplineSet
452 500 m 1,0,-1
 455 448 l 1,1,-1
 181 299 l 1,2,3
 250 263 250 263 318 226.5 c 128,-1,4
 386 190 386 190 455 153 c 1,5,-1
 452 100 l 1,6,-1
 100 300 l 1,7,-1
 452 500 l 1,0,-1
EndSplineSet
EndChar

StartChar: equal
Encoding: 61 61 32
Width: 739
GlyphClass: 2
Flags: W
LayerCount: 2
Fore
SplineSet
600 383 m 1,0,-1
 600 325 l 1,1,-1
 146 325 l 1,2,-1
 146 383 l 1,3,-1
 600 383 l 1,0,-1
600 161 m 1,4,-1
 600 103 l 1,5,-1
 146 103 l 1,6,-1
 146 161 l 1,7,-1
 600 161 l 1,4,-1
EndSplineSet
EndChar

StartChar: greater
Encoding: 62 62 33
Width: 569
GlyphClass: 2
Flags: W
LayerCount: 2
Fore
SplineSet
100 153 m 1,0,1
 169 190 169 190 236.5 226.5 c 128,-1,2
 304 263 304 263 373 299 c 1,3,-1
 100 448 l 1,4,-1
 103 500 l 1,5,-1
 455 300 l 1,6,-1
 103 100 l 1,7,-1
 100 153 l 1,0,1
EndSplineSet
EndChar

StartChar: question
Encoding: 63 63 34
Width: 500
GlyphClass: 2
Flags: W
LayerCount: 2
Fore
SplineSet
58 638 m 1,0,1
 80 655 80 655 108 669 c 0,2,3
 131 681 131 681 164 690.5 c 128,-1,4
 197 700 197 700 237 700 c 256,5,6
 277 700 277 700 309.5 688.5 c 128,-1,7
 342 677 342 677 365 657.5 c 128,-1,8
 388 638 388 638 401 610.5 c 128,-1,9
 414 583 414 583 414 552 c 0,10,11
 414 528 414 528 405.5 506.5 c 128,-1,12
 397 485 397 485 380 462 c 128,-1,13
 363 439 363 439 338.5 413 c 128,-1,14
 314 387 314 387 282 355 c 0,15,16
 243 317 243 317 214 261 c 128,-1,17
 185 205 185 205 185 128 c 1,18,-1
 140 128 l 1,19,20
 140 215 140 215 163 270 c 128,-1,21
 186 325 186 325 221 362 c 0,22,23
 251 393 251 393 274.5 418.5 c 128,-1,24
 298 444 298 444 314.5 466 c 128,-1,25
 331 488 331 488 340 508.5 c 128,-1,26
 349 529 349 529 349 551 c 0,27,28
 348 593 348 593 318.5 619.5 c 128,-1,29
 289 646 289 646 237 648 c 0,30,31
 206 649 206 649 178.5 642 c 128,-1,32
 151 635 151 635 129 625 c 0,33,34
 103 614 103 614 81 599 c 1,35,-1
 58 638 l 1,0,1
127 6 m 0,36,37
 127 26 127 26 137.5 37.5 c 128,-1,38
 148 49 148 49 165 49 c 0,39,40
 187 49 187 49 195 37.5 c 128,-1,41
 203 26 203 26 203 6 c 0,42,43
 203 -12 203 -12 192.5 -23 c 128,-1,44
 182 -34 182 -34 165 -34 c 0,45,46
 145 -34 145 -34 136 -23 c 128,-1,47
 127 -12 127 -12 127 6 c 0,36,37
EndSplineSet
EndChar

StartChar: at
Encoding: 64 64 35
Width: 1070
GlyphClass: 2
Flags: W
LayerCount: 2
Fore
SplineSet
720 47 m 1,0,1
 721 29 721 29 736 21 c 128,-1,2
 751 13 751 13 771.5 17 c 128,-1,3
 792 21 792 21 816 37 c 128,-1,4
 840 53 840 53 860.5 82.5 c 128,-1,5
 881 112 881 112 894.5 155.5 c 128,-1,6
 908 199 908 199 908 257 c 0,7,8
 908 365 908 365 877.5 441 c 128,-1,9
 847 517 847 517 795.5 565 c 128,-1,10
 744 613 744 613 676.5 635 c 128,-1,11
 609 657 609 657 535 657 c 0,12,13
 452 657 452 657 381.5 624 c 128,-1,14
 311 591 311 591 259.5 534 c 128,-1,15
 208 477 208 477 179 399.5 c 128,-1,16
 150 322 150 322 150 233 c 0,17,18
 150 128 150 128 179.5 53.5 c 128,-1,19
 209 -21 209 -21 260.5 -67.5 c 128,-1,20
 312 -114 312 -114 381.5 -135.5 c 128,-1,21
 451 -157 451 -157 530 -157 c 0,22,23
 583 -157 583 -157 617.5 -146.5 c 128,-1,24
 652 -136 652 -136 675 -125 c 1,25,-1
 704 -175 l 1,26,27
 681 -188 681 -188 634 -201.5 c 128,-1,28
 587 -215 587 -215 523 -215 c 0,29,30
 433 -215 433 -215 353.5 -189.5 c 128,-1,31
 274 -164 274 -164 214 -109.5 c 128,-1,32
 154 -55 154 -55 119.5 31 c 128,-1,33
 85 117 85 117 85 238 c 0,34,35
 85 343 85 343 120 430.5 c 128,-1,36
 155 518 155 518 215.5 581 c 128,-1,37
 276 644 276 644 358.5 679.5 c 128,-1,38
 441 715 441 715 536 715 c 0,39,40
 626 715 626 715 705.5 688 c 128,-1,41
 785 661 785 661 844.5 605.5 c 128,-1,42
 904 550 904 550 938.5 465.5 c 128,-1,43
 973 381 973 381 973 265 c 0,44,45
 973 184 973 184 950.5 126 c 128,-1,46
 928 68 928 68 893.5 31 c 128,-1,47
 859 -6 859 -6 818.5 -23 c 128,-1,48
 778 -40 778 -40 742.5 -38.5 c 128,-1,49
 707 -37 707 -37 682.5 -17.5 c 128,-1,50
 658 2 658 2 655 38 c 1,51,52
 623 24 623 24 578 10 c 128,-1,53
 533 -4 533 -4 480 -4 c 0,54,55
 452 -4 452 -4 427 1.5 c 128,-1,56
 402 7 402 7 383.5 19 c 128,-1,57
 365 31 365 31 353 51 c 128,-1,58
 341 71 341 71 338 101 c 0,59,60
 336 130 336 130 344 151.5 c 128,-1,61
 352 173 352 173 367 188 c 128,-1,62
 382 203 382 203 400.5 212.5 c 128,-1,63
 419 222 419 222 438 227 c 0,64,65
 471 235 471 235 527 241 c 128,-1,66
 583 247 583 247 655 252 c 1,67,-1
 655 336 l 2,68,69
 655 376 655 376 640.5 398.5 c 128,-1,70
 626 421 626 421 607 431 c 128,-1,71
 588 441 588 441 569 443 c 128,-1,72
 550 445 550 445 541 445 c 0,73,74
 511 445 511 445 481 438.5 c 128,-1,75
 451 432 451 432 427 423.5 c 128,-1,76
 403 415 403 415 386.5 407.5 c 128,-1,77
 370 400 370 400 366 398 c 1,78,-1
 348 446 l 1,79,80
 355 449 355 449 373.5 457.5 c 128,-1,81
 392 466 392 466 418.5 476 c 128,-1,82
 445 486 445 486 476.5 494 c 128,-1,83
 508 502 508 502 540 503 c 0,84,85
 556 503 556 503 586 500.5 c 128,-1,86
 616 498 616 498 646 484 c 128,-1,87
 676 470 676 470 698 440.5 c 128,-1,88
 720 411 720 411 720 358 c 2,89,-1
 720 47 l 1,0,1
498 42 m 0,90,91
 538 42 538 42 580.5 52.5 c 128,-1,92
 623 63 623 63 655 76 c 1,93,-1
 655 219 l 1,94,95
 634 216 634 216 606.5 212 c 128,-1,96
 579 208 579 208 551.5 203.5 c 128,-1,97
 524 199 524 199 499.5 194 c 128,-1,98
 475 189 475 189 460 184 c 0,99,100
 425 173 425 173 410 150.5 c 128,-1,101
 395 128 395 128 399 101 c 0,102,103
 402 83 402 83 411 72 c 128,-1,104
 420 61 420 61 433.5 54 c 128,-1,105
 447 47 447 47 464 44.5 c 128,-1,106
 481 42 481 42 498 42 c 0,90,91
EndSplineSet
EndChar

StartChar: A
Encoding: 65 65 36
Width: 672
GlyphClass: 2
Flags: W
LayerCount: 2
Fore
SplineSet
482 185 m 1,0,-1
 174 185 l 1,1,-1
 110 0 l 1,2,-1
 45 0 l 1,3,-1
 298 700 l 1,4,-1
 359 700 l 1,5,-1
 621 0 l 1,6,-1
 548 0 l 1,7,-1
 482 185 l 1,0,-1
191 235 m 1,8,-1
 464 235 l 1,9,-1
 325 624 l 1,10,-1
 191 235 l 1,8,-1
EndSplineSet
EndChar

StartChar: B
Encoding: 66 66 37
Width: 527
GlyphClass: 2
Flags: W
LayerCount: 2
Fore
SplineSet
75 0 m 1,0,-1
 75 700 l 1,1,-1
 225 700 l 2,2,3
 275 700 275 700 315 692 c 128,-1,4
 355 684 355 684 382.5 666.5 c 128,-1,5
 410 649 410 649 425 620.5 c 128,-1,6
 440 592 440 592 440 551 c 0,7,8
 440 530 440 530 434 508.5 c 128,-1,9
 428 487 428 487 418.5 467.5 c 128,-1,10
 409 448 409 448 396.5 431 c 128,-1,11
 384 414 384 414 371 402 c 1,12,13
 425 382 425 382 453.5 336 c 128,-1,14
 482 290 482 290 482 207 c 0,15,16
 482 144 482 144 465.5 104 c 128,-1,17
 449 64 449 64 417.5 41 c 128,-1,18
 386 18 386 18 341.5 9 c 128,-1,19
 297 0 297 0 240 0 c 2,20,-1
 75 0 l 1,0,-1
143 363 m 1,21,-1
 143 55 l 1,22,-1
 235 55 l 2,23,24
 276 55 276 55 309 59.5 c 128,-1,25
 342 64 342 64 365.5 79.5 c 128,-1,26
 389 95 389 95 401.5 124 c 128,-1,27
 414 153 414 153 414 203 c 0,28,29
 414 248 414 248 403.5 278.5 c 128,-1,30
 393 309 393 309 373.5 327.5 c 128,-1,31
 354 346 354 346 325.5 354.5 c 128,-1,32
 297 363 297 363 260 363 c 2,33,-1
 143 363 l 1,21,-1
265 418 m 2,34,35
 280 418 280 418 294.5 417 c 128,-1,36
 309 416 309 416 323 414 c 1,37,38
 339 435 339 435 355.5 469 c 128,-1,39
 372 503 372 503 372 545 c 0,40,41
 372 602 372 602 333 623.5 c 128,-1,42
 294 645 294 645 220 645 c 2,43,-1
 143 645 l 1,44,-1
 143 418 l 1,45,-1
 265 418 l 2,34,35
EndSplineSet
PairPos2: "'kern' Horizontal Kerning in Latin lookup 0 per glyph data 1" Ydieresis dx=0 dy=0 dh=-29 dv=0 dx=0 dy=0 dh=0 dv=0
PairPos2: "'kern' Horizontal Kerning in Latin lookup 0 per glyph data 1" oe dx=0 dy=0 dh=-15 dv=0 dx=0 dy=0 dh=0 dv=0
PairPos2: "'kern' Horizontal Kerning in Latin lookup 0 per glyph data 1" OE dx=0 dy=0 dh=-14 dv=0 dx=0 dy=0 dh=0 dv=0
PairPos2: "'kern' Horizontal Kerning in Latin lookup 0 per glyph data 1" dotlessi dx=0 dy=0 dh=-22 dv=0 dx=0 dy=0 dh=0 dv=0
PairPos2: "'kern' Horizontal Kerning in Latin lookup 0 per glyph data 1" ydieresis dx=0 dy=0 dh=-15 dv=0 dx=0 dy=0 dh=0 dv=0
PairPos2: "'kern' Horizontal Kerning in Latin lookup 0 per glyph data 1" thorn dx=0 dy=0 dh=-22 dv=0 dx=0 dy=0 dh=0 dv=0
PairPos2: "'kern' Horizontal Kerning in Latin lookup 0 per glyph data 1" yacute dx=0 dy=0 dh=-15 dv=0 dx=0 dy=0 dh=0 dv=0
PairPos2: "'kern' Horizontal Kerning in Latin lookup 0 per glyph data 1" udieresis dx=0 dy=0 dh=-15 dv=0 dx=0 dy=0 dh=0 dv=0
PairPos2: "'kern' Horizontal Kerning in Latin lookup 0 per glyph data 1" ucircumflex dx=0 dy=0 dh=-15 dv=0 dx=0 dy=0 dh=0 dv=0
PairPos2: "'kern' Horizontal Kerning in Latin lookup 0 per glyph data 1" uacute dx=0 dy=0 dh=-15 dv=0 dx=0 dy=0 dh=0 dv=0
PairPos2: "'kern' Horizontal Kerning in Latin lookup 0 per glyph data 1" ugrave dx=0 dy=0 dh=-15 dv=0 dx=0 dy=0 dh=0 dv=0
PairPos2: "'kern' Horizontal Kerning in Latin lookup 0 per glyph data 1" odieresis dx=0 dy=0 dh=-15 dv=0 dx=0 dy=0 dh=0 dv=0
PairPos2: "'kern' Horizontal Kerning in Latin lookup 0 per glyph data 1" otilde dx=0 dy=0 dh=-15 dv=0 dx=0 dy=0 dh=0 dv=0
PairPos2: "'kern' Horizontal Kerning in Latin lookup 0 per glyph data 1" ocircumflex dx=0 dy=0 dh=-15 dv=0 dx=0 dy=0 dh=0 dv=0
PairPos2: "'kern' Horizontal Kerning in Latin lookup 0 per glyph data 1" oacute dx=0 dy=0 dh=-15 dv=0 dx=0 dy=0 dh=0 dv=0
PairPos2: "'kern' Horizontal Kerning in Latin lookup 0 per glyph data 1" ograve dx=0 dy=0 dh=-15 dv=0 dx=0 dy=0 dh=0 dv=0
PairPos2: "'kern' Horizontal Kerning in Latin lookup 0 per glyph data 1" ntilde dx=0 dy=0 dh=-22 dv=0 dx=0 dy=0 dh=0 dv=0
PairPos2: "'kern' Horizontal Kerning in Latin lookup 0 per glyph data 1" eth dx=0 dy=0 dh=-15 dv=0 dx=0 dy=0 dh=0 dv=0
PairPos2: "'kern' Horizontal Kerning in Latin lookup 0 per glyph data 1" idieresis dx=0 dy=0 dh=-22 dv=0 dx=0 dy=0 dh=0 dv=0
PairPos2: "'kern' Horizontal Kerning in Latin lookup 0 per glyph data 1" icircumflex dx=0 dy=0 dh=-22 dv=0 dx=0 dy=0 dh=0 dv=0
PairPos2: "'kern' Horizontal Kerning in Latin lookup 0 per glyph data 1" iacute dx=0 dy=0 dh=-22 dv=0 dx=0 dy=0 dh=0 dv=0
PairPos2: "'kern' Horizontal Kerning in Latin lookup 0 per glyph data 1" igrave dx=0 dy=0 dh=-22 dv=0 dx=0 dy=0 dh=0 dv=0
PairPos2: "'kern' Horizontal Kerning in Latin lookup 0 per glyph data 1" edieresis dx=0 dy=0 dh=-25 dv=0 dx=0 dy=0 dh=0 dv=0
PairPos2: "'kern' Horizontal Kerning in Latin lookup 0 per glyph data 1" ecircumflex dx=0 dy=0 dh=-25 dv=0 dx=0 dy=0 dh=0 dv=0
PairPos2: "'kern' Horizontal Kerning in Latin lookup 0 per glyph data 1" eacute dx=0 dy=0 dh=-25 dv=0 dx=0 dy=0 dh=0 dv=0
PairPos2: "'kern' Horizontal Kerning in Latin lookup 0 per glyph data 1" egrave dx=0 dy=0 dh=-25 dv=0 dx=0 dy=0 dh=0 dv=0
PairPos2: "'kern' Horizontal Kerning in Latin lookup 0 per glyph data 1" ccedilla dx=0 dy=0 dh=-25 dv=0 dx=0 dy=0 dh=0 dv=0
PairPos2: "'kern' Horizontal Kerning in Latin lookup 0 per glyph data 1" aring dx=0 dy=0 dh=-17 dv=0 dx=0 dy=0 dh=0 dv=0
PairPos2: "'kern' Horizontal Kerning in Latin lookup 0 per glyph data 1" adieresis dx=0 dy=0 dh=-17 dv=0 dx=0 dy=0 dh=0 dv=0
PairPos2: "'kern' Horizontal Kerning in Latin lookup 0 per glyph data 1" atilde dx=0 dy=0 dh=-17 dv=0 dx=0 dy=0 dh=0 dv=0
PairPos2: "'kern' Horizontal Kerning in Latin lookup 0 per glyph data 1" acircumflex dx=0 dy=0 dh=-17 dv=0 dx=0 dy=0 dh=0 dv=0
PairPos2: "'kern' Horizontal Kerning in Latin lookup 0 per glyph data 1" aacute dx=0 dy=0 dh=-17 dv=0 dx=0 dy=0 dh=0 dv=0
PairPos2: "'kern' Horizontal Kerning in Latin lookup 0 per glyph data 1" agrave dx=0 dy=0 dh=-17 dv=0 dx=0 dy=0 dh=0 dv=0
PairPos2: "'kern' Horizontal Kerning in Latin lookup 0 per glyph data 1" germandbls dx=0 dy=0 dh=-22 dv=0 dx=0 dy=0 dh=0 dv=0
PairPos2: "'kern' Horizontal Kerning in Latin lookup 0 per glyph data 1" Thorn dx=0 dy=0 dh=-7 dv=0 dx=0 dy=0 dh=0 dv=0
PairPos2: "'kern' Horizontal Kerning in Latin lookup 0 per glyph data 1" Yacute dx=0 dy=0 dh=-29 dv=0 dx=0 dy=0 dh=0 dv=0
PairPos2: "'kern' Horizontal Kerning in Latin lookup 0 per glyph data 1" Udieresis dx=0 dy=0 dh=-5 dv=0 dx=0 dy=0 dh=0 dv=0
PairPos2: "'kern' Horizontal Kerning in Latin lookup 0 per glyph data 1" Ucircumflex dx=0 dy=0 dh=-5 dv=0 dx=0 dy=0 dh=0 dv=0
PairPos2: "'kern' Horizontal Kerning in Latin lookup 0 per glyph data 1" Uacute dx=0 dy=0 dh=-5 dv=0 dx=0 dy=0 dh=0 dv=0
PairPos2: "'kern' Horizontal Kerning in Latin lookup 0 per glyph data 1" Ugrave dx=0 dy=0 dh=-5 dv=0 dx=0 dy=0 dh=0 dv=0
PairPos2: "'kern' Horizontal Kerning in Latin lookup 0 per glyph data 1" Odieresis dx=0 dy=0 dh=-14 dv=0 dx=0 dy=0 dh=0 dv=0
PairPos2: "'kern' Horizontal Kerning in Latin lookup 0 per glyph data 1" Otilde dx=0 dy=0 dh=-14 dv=0 dx=0 dy=0 dh=0 dv=0
PairPos2: "'kern' Horizontal Kerning in Latin lookup 0 per glyph data 1" Ocircumflex dx=0 dy=0 dh=-14 dv=0 dx=0 dy=0 dh=0 dv=0
PairPos2: "'kern' Horizontal Kerning in Latin lookup 0 per glyph data 1" Oacute dx=0 dy=0 dh=-14 dv=0 dx=0 dy=0 dh=0 dv=0
PairPos2: "'kern' Horizontal Kerning in Latin lookup 0 per glyph data 1" Ograve dx=0 dy=0 dh=-14 dv=0 dx=0 dy=0 dh=0 dv=0
PairPos2: "'kern' Horizontal Kerning in Latin lookup 0 per glyph data 1" Ntilde dx=0 dy=0 dh=-7 dv=0 dx=0 dy=0 dh=0 dv=0
PairPos2: "'kern' Horizontal Kerning in Latin lookup 0 per glyph data 1" Idieresis dx=0 dy=0 dh=-7 dv=0 dx=0 dy=0 dh=0 dv=0
PairPos2: "'kern' Horizontal Kerning in Latin lookup 0 per glyph data 1" Icircumflex dx=0 dy=0 dh=-7 dv=0 dx=0 dy=0 dh=0 dv=0
PairPos2: "'kern' Horizontal Kerning in Latin lookup 0 per glyph data 1" Iacute dx=0 dy=0 dh=-7 dv=0 dx=0 dy=0 dh=0 dv=0
PairPos2: "'kern' Horizontal Kerning in Latin lookup 0 per glyph data 1" Igrave dx=0 dy=0 dh=-7 dv=0 dx=0 dy=0 dh=0 dv=0
PairPos2: "'kern' Horizontal Kerning in Latin lookup 0 per glyph data 1" Edieresis dx=0 dy=0 dh=-7 dv=0 dx=0 dy=0 dh=0 dv=0
PairPos2: "'kern' Horizontal Kerning in Latin lookup 0 per glyph data 1" Ecircumflex dx=0 dy=0 dh=-7 dv=0 dx=0 dy=0 dh=0 dv=0
PairPos2: "'kern' Horizontal Kerning in Latin lookup 0 per glyph data 1" Eacute dx=0 dy=0 dh=-7 dv=0 dx=0 dy=0 dh=0 dv=0
PairPos2: "'kern' Horizontal Kerning in Latin lookup 0 per glyph data 1" Egrave dx=0 dy=0 dh=-7 dv=0 dx=0 dy=0 dh=0 dv=0
PairPos2: "'kern' Horizontal Kerning in Latin lookup 0 per glyph data 1" Ccedilla dx=0 dy=0 dh=-14 dv=0 dx=0 dy=0 dh=0 dv=0
PairPos2: "'kern' Horizontal Kerning in Latin lookup 0 per glyph data 1" AE dx=0 dy=0 dh=-15 dv=0 dx=0 dy=0 dh=0 dv=0
PairPos2: "'kern' Horizontal Kerning in Latin lookup 0 per glyph data 1" Aring dx=0 dy=0 dh=-15 dv=0 dx=0 dy=0 dh=0 dv=0
PairPos2: "'kern' Horizontal Kerning in Latin lookup 0 per glyph data 1" Adieresis dx=0 dy=0 dh=-15 dv=0 dx=0 dy=0 dh=0 dv=0
PairPos2: "'kern' Horizontal Kerning in Latin lookup 0 per glyph data 1" Atilde dx=0 dy=0 dh=-15 dv=0 dx=0 dy=0 dh=0 dv=0
PairPos2: "'kern' Horizontal Kerning in Latin lookup 0 per glyph data 1" Acircumflex dx=0 dy=0 dh=-15 dv=0 dx=0 dy=0 dh=0 dv=0
PairPos2: "'kern' Horizontal Kerning in Latin lookup 0 per glyph data 1" Aacute dx=0 dy=0 dh=-15 dv=0 dx=0 dy=0 dh=0 dv=0
PairPos2: "'kern' Horizontal Kerning in Latin lookup 0 per glyph data 1" Agrave dx=0 dy=0 dh=-15 dv=0 dx=0 dy=0 dh=0 dv=0
PairPos2: "'kern' Horizontal Kerning in Latin lookup 0 per glyph data 1" mu dx=0 dy=0 dh=-22 dv=0 dx=0 dy=0 dh=0 dv=0
PairPos2: "'kern' Horizontal Kerning in Latin lookup 0 per glyph data 1" brokenbar dx=0 dy=0 dh=-22 dv=0 dx=0 dy=0 dh=0 dv=0
PairPos2: "'kern' Horizontal Kerning in Latin lookup 0 per glyph data 1" cent dx=0 dy=0 dh=-25 dv=0 dx=0 dy=0 dh=0 dv=0
PairPos2: "'kern' Horizontal Kerning in Latin lookup 0 per glyph data 1" exclamdown dx=0 dy=0 dh=-22 dv=0 dx=0 dy=0 dh=0 dv=0
PairPos2: "'kern' Horizontal Kerning in Latin lookup 0 per glyph data 1" bar dx=0 dy=0 dh=-22 dv=0 dx=0 dy=0 dh=0 dv=0
PairPos2: "'kern' Horizontal Kerning in Latin lookup 0 per glyph data 1" z dx=0 dy=0 dh=-30 dv=0 dx=0 dy=0 dh=0 dv=0
PairPos2: "'kern' Horizontal Kerning in Latin lookup 0 per glyph data 1" y dx=0 dy=0 dh=-15 dv=0 dx=0 dy=0 dh=0 dv=0
PairPos2: "'kern' Horizontal Kerning in Latin lookup 0 per glyph data 1" v dx=0 dy=0 dh=-37 dv=0 dx=0 dy=0 dh=0 dv=0
PairPos2: "'kern' Horizontal Kerning in Latin lookup 0 per glyph data 1" u dx=0 dy=0 dh=-15 dv=0 dx=0 dy=0 dh=0 dv=0
PairPos2: "'kern' Horizontal Kerning in Latin lookup 0 per glyph data 1" t dx=0 dy=0 dh=-15 dv=0 dx=0 dy=0 dh=0 dv=0
PairPos2: "'kern' Horizontal Kerning in Latin lookup 0 per glyph data 1" r dx=0 dy=0 dh=-22 dv=0 dx=0 dy=0 dh=0 dv=0
PairPos2: "'kern' Horizontal Kerning in Latin lookup 0 per glyph data 1" q dx=0 dy=0 dh=-25 dv=0 dx=0 dy=0 dh=0 dv=0
PairPos2: "'kern' Horizontal Kerning in Latin lookup 0 per glyph data 1" p dx=0 dy=0 dh=-22 dv=0 dx=0 dy=0 dh=0 dv=0
PairPos2: "'kern' Horizontal Kerning in Latin lookup 0 per glyph data 1" o dx=0 dy=0 dh=-15 dv=0 dx=0 dy=0 dh=0 dv=0
PairPos2: "'kern' Horizontal Kerning in Latin lookup 0 per glyph data 1" n dx=0 dy=0 dh=-22 dv=0 dx=0 dy=0 dh=0 dv=0
PairPos2: "'kern' Horizontal Kerning in Latin lookup 0 per glyph data 1" m dx=0 dy=0 dh=-22 dv=0 dx=0 dy=0 dh=0 dv=0
PairPos2: "'kern' Horizontal Kerning in Latin lookup 0 per glyph data 1" l dx=0 dy=0 dh=-22 dv=0 dx=0 dy=0 dh=0 dv=0
PairPos2: "'kern' Horizontal Kerning in Latin lookup 0 per glyph data 1" k dx=0 dy=0 dh=-22 dv=0 dx=0 dy=0 dh=0 dv=0
PairPos2: "'kern' Horizontal Kerning in Latin lookup 0 per glyph data 1" j dx=0 dy=0 dh=-22 dv=0 dx=0 dy=0 dh=0 dv=0
PairPos2: "'kern' Horizontal Kerning in Latin lookup 0 per glyph data 1" i dx=0 dy=0 dh=-22 dv=0 dx=0 dy=0 dh=0 dv=0
PairPos2: "'kern' Horizontal Kerning in Latin lookup 0 per glyph data 1" h dx=0 dy=0 dh=-22 dv=0 dx=0 dy=0 dh=0 dv=0
PairPos2: "'kern' Horizontal Kerning in Latin lookup 0 per glyph data 1" f dx=0 dy=0 dh=-22 dv=0 dx=0 dy=0 dh=0 dv=0
PairPos2: "'kern' Horizontal Kerning in Latin lookup 0 per glyph data 1" e dx=0 dy=0 dh=-25 dv=0 dx=0 dy=0 dh=0 dv=0
PairPos2: "'kern' Horizontal Kerning in Latin lookup 0 per glyph data 1" d dx=0 dy=0 dh=-25 dv=0 dx=0 dy=0 dh=0 dv=0
PairPos2: "'kern' Horizontal Kerning in Latin lookup 0 per glyph data 1" c dx=0 dy=0 dh=-25 dv=0 dx=0 dy=0 dh=0 dv=0
PairPos2: "'kern' Horizontal Kerning in Latin lookup 0 per glyph data 1" b dx=0 dy=0 dh=-22 dv=0 dx=0 dy=0 dh=0 dv=0
PairPos2: "'kern' Horizontal Kerning in Latin lookup 0 per glyph data 1" a dx=0 dy=0 dh=-17 dv=0 dx=0 dy=0 dh=0 dv=0
PairPos2: "'kern' Horizontal Kerning in Latin lookup 0 per glyph data 1" bracketright dx=0 dy=0 dh=-22 dv=0 dx=0 dy=0 dh=0 dv=0
PairPos2: "'kern' Horizontal Kerning in Latin lookup 0 per glyph data 1" bracketleft dx=0 dy=0 dh=-22 dv=0 dx=0 dy=0 dh=0 dv=0
PairPos2: "'kern' Horizontal Kerning in Latin lookup 0 per glyph data 1" Z dx=0 dy=0 dh=-5 dv=0 dx=0 dy=0 dh=0 dv=0
PairPos2: "'kern' Horizontal Kerning in Latin lookup 0 per glyph data 1" Y dx=0 dy=0 dh=-29 dv=0 dx=0 dy=0 dh=0 dv=0
PairPos2: "'kern' Horizontal Kerning in Latin lookup 0 per glyph data 1" W dx=0 dy=0 dh=-22 dv=0 dx=0 dy=0 dh=0 dv=0
PairPos2: "'kern' Horizontal Kerning in Latin lookup 0 per glyph data 1" V dx=0 dy=0 dh=-22 dv=0 dx=0 dy=0 dh=0 dv=0
PairPos2: "'kern' Horizontal Kerning in Latin lookup 0 per glyph data 1" U dx=0 dy=0 dh=-5 dv=0 dx=0 dy=0 dh=0 dv=0
PairPos2: "'kern' Horizontal Kerning in Latin lookup 0 per glyph data 1" T dx=0 dy=0 dh=-22 dv=0 dx=0 dy=0 dh=0 dv=0
PairPos2: "'kern' Horizontal Kerning in Latin lookup 0 per glyph data 1" S dx=0 dy=0 dh=-10 dv=0 dx=0 dy=0 dh=0 dv=0
PairPos2: "'kern' Horizontal Kerning in Latin lookup 0 per glyph data 1" R dx=0 dy=0 dh=-7 dv=0 dx=0 dy=0 dh=0 dv=0
PairPos2: "'kern' Horizontal Kerning in Latin lookup 0 per glyph data 1" Q dx=0 dy=0 dh=-14 dv=0 dx=0 dy=0 dh=0 dv=0
PairPos2: "'kern' Horizontal Kerning in Latin lookup 0 per glyph data 1" P dx=0 dy=0 dh=-7 dv=0 dx=0 dy=0 dh=0 dv=0
PairPos2: "'kern' Horizontal Kerning in Latin lookup 0 per glyph data 1" O dx=0 dy=0 dh=-14 dv=0 dx=0 dy=0 dh=0 dv=0
PairPos2: "'kern' Horizontal Kerning in Latin lookup 0 per glyph data 1" N dx=0 dy=0 dh=-7 dv=0 dx=0 dy=0 dh=0 dv=0
PairPos2: "'kern' Horizontal Kerning in Latin lookup 0 per glyph data 1" M dx=0 dy=0 dh=-7 dv=0 dx=0 dy=0 dh=0 dv=0
PairPos2: "'kern' Horizontal Kerning in Latin lookup 0 per glyph data 1" L dx=0 dy=0 dh=-7 dv=0 dx=0 dy=0 dh=0 dv=0
PairPos2: "'kern' Horizontal Kerning in Latin lookup 0 per glyph data 1" K dx=0 dy=0 dh=-7 dv=0 dx=0 dy=0 dh=0 dv=0
PairPos2: "'kern' Horizontal Kerning in Latin lookup 0 per glyph data 1" J dx=0 dy=0 dh=-7 dv=0 dx=0 dy=0 dh=0 dv=0
PairPos2: "'kern' Horizontal Kerning in Latin lookup 0 per glyph data 1" I dx=0 dy=0 dh=-7 dv=0 dx=0 dy=0 dh=0 dv=0
PairPos2: "'kern' Horizontal Kerning in Latin lookup 0 per glyph data 1" H dx=0 dy=0 dh=-7 dv=0 dx=0 dy=0 dh=0 dv=0
PairPos2: "'kern' Horizontal Kerning in Latin lookup 0 per glyph data 1" G dx=0 dy=0 dh=-14 dv=0 dx=0 dy=0 dh=0 dv=0
PairPos2: "'kern' Horizontal Kerning in Latin lookup 0 per glyph data 1" F dx=0 dy=0 dh=-7 dv=0 dx=0 dy=0 dh=0 dv=0
PairPos2: "'kern' Horizontal Kerning in Latin lookup 0 per glyph data 1" E dx=0 dy=0 dh=-7 dv=0 dx=0 dy=0 dh=0 dv=0
PairPos2: "'kern' Horizontal Kerning in Latin lookup 0 per glyph data 1" D dx=0 dy=0 dh=-7 dv=0 dx=0 dy=0 dh=0 dv=0
PairPos2: "'kern' Horizontal Kerning in Latin lookup 0 per glyph data 1" C dx=0 dy=0 dh=-14 dv=0 dx=0 dy=0 dh=0 dv=0
PairPos2: "'kern' Horizontal Kerning in Latin lookup 0 per glyph data 1" B dx=0 dy=0 dh=-7 dv=0 dx=0 dy=0 dh=0 dv=0
PairPos2: "'kern' Horizontal Kerning in Latin lookup 0 per glyph data 1" A dx=0 dy=0 dh=-15 dv=0 dx=0 dy=0 dh=0 dv=0
PairPos2: "'kern' Horizontal Kerning in Latin lookup 0 per glyph data 1" one dx=0 dy=0 dh=-22 dv=0 dx=0 dy=0 dh=0 dv=0
PairPos2: "'kern' Horizontal Kerning in Latin lookup 0 per glyph data 1" parenright dx=0 dy=0 dh=-22 dv=0 dx=0 dy=0 dh=0 dv=0
PairPos2: "'kern' Horizontal Kerning in Latin lookup 0 per glyph data 1" parenleft dx=0 dy=0 dh=-22 dv=0 dx=0 dy=0 dh=0 dv=0
PairPos2: "'kern' Horizontal Kerning in Latin lookup 0 per glyph data 1" exclam dx=0 dy=0 dh=-22 dv=0 dx=0 dy=0 dh=0 dv=0
EndChar

StartChar: C
Encoding: 67 67 38
Width: 592
GlyphClass: 2
Flags: W
LayerCount: 2
Fore
SplineSet
492 626 m 1,0,1
 469 635 469 635 439.5 640.5 c 128,-1,2
 410 646 410 646 378 646 c 0,3,4
 329 646 329 646 284.5 627 c 128,-1,5
 240 608 240 608 206.5 568 c 128,-1,6
 173 528 173 528 153 466.5 c 128,-1,7
 133 405 133 405 133 320 c 0,8,9
 133 230 133 230 153.5 177 c 128,-1,10
 174 124 174 124 205.5 96 c 128,-1,11
 237 68 237 68 274.5 59.5 c 128,-1,12
 312 51 312 51 345 51 c 0,13,14
 379 51 379 51 410.5 55.5 c 128,-1,15
 442 60 442 60 468.5 66 c 128,-1,16
 495 72 495 72 513 78.5 c 128,-1,17
 531 85 531 85 538 89 c 1,18,-1
 552 40 l 1,19,20
 538 31 538 31 513.5 23 c 128,-1,21
 489 15 489 15 459.5 9 c 128,-1,22
 430 3 430 3 398 -0.5 c 128,-1,23
 366 -4 366 -4 338 -4 c 0,24,25
 295 -4 295 -4 247 7.5 c 128,-1,26
 199 19 199 19 158.5 53.5 c 128,-1,27
 118 88 118 88 91.5 151.5 c 128,-1,28
 65 215 65 215 65 320 c 0,29,30
 65 418 65 418 89.5 487.5 c 128,-1,31
 114 557 114 557 154 603 c 128,-1,32
 194 649 194 649 244.5 672 c 128,-1,33
 295 695 295 695 348 700 c 0,34,35
 380 703 380 703 410.5 700 c 128,-1,36
 441 697 441 697 467.5 689.5 c 128,-1,37
 494 682 494 682 514.5 671 c 128,-1,38
 535 660 535 660 547 647 c 1,39,-1
 547 502 l 1,40,-1
 497 499 l 1,41,-1
 492 626 l 1,0,1
EndSplineSet
EndChar

StartChar: D
Encoding: 68 68 39
Width: 623
GlyphClass: 2
Flags: W
LayerCount: 2
Fore
SplineSet
80 700 m 1,0,-1
 260 700 l 2,1,2
 321 700 321 700 375.5 683 c 128,-1,3
 430 666 430 666 470.5 627 c 128,-1,4
 511 588 511 588 534.5 524 c 128,-1,5
 558 460 558 460 558 366 c 0,6,7
 558 251 558 251 535 179.5 c 128,-1,8
 512 108 512 108 470 68 c 128,-1,9
 428 28 428 28 368.5 14 c 128,-1,10
 309 0 309 0 235 0 c 2,11,-1
 80 0 l 1,12,-1
 80 700 l 1,0,-1
148 645 m 1,13,-1
 148 55 l 1,14,-1
 230 55 l 2,15,16
 282 55 282 55 329.5 63.5 c 128,-1,17
 377 72 377 72 412.5 103.5 c 128,-1,18
 448 135 448 135 469 195.5 c 128,-1,19
 490 256 490 256 490 361 c 0,20,21
 490 442 490 442 471 496.5 c 128,-1,22
 452 551 452 551 419.5 584 c 128,-1,23
 387 617 387 617 344.5 631 c 128,-1,24
 302 645 302 645 255 645 c 2,25,-1
 148 645 l 1,13,-1
EndSplineSet
EndChar

StartChar: E
Encoding: 69 69 40
Width: 504
GlyphClass: 2
Flags: W
LayerCount: 2
Fore
SplineSet
439 640 m 1,0,-1
 148 640 l 1,1,-1
 148 377 l 1,2,-1
 418 377 l 1,3,-1
 413 317 l 1,4,-1
 148 317 l 1,5,-1
 148 60 l 1,6,-1
 464 60 l 1,7,-1
 459 0 l 1,8,-1
 80 0 l 1,9,-1
 80 700 l 1,10,-1
 444 700 l 1,11,-1
 439 640 l 1,0,-1
EndSplineSet
EndChar

StartChar: F
Encoding: 70 70 41
Width: 484
GlyphClass: 2
Flags: W
LayerCount: 2
Fore
SplineSet
439 640 m 1,0,-1
 148 640 l 1,1,-1
 148 377 l 1,2,-1
 418 377 l 1,3,-1
 413 317 l 1,4,-1
 148 317 l 1,5,-1
 148 0 l 1,6,-1
 80 0 l 1,7,-1
 80 700 l 1,8,-1
 444 700 l 1,9,-1
 439 640 l 1,0,-1
EndSplineSet
PairPos2: "'kern' Horizontal Kerning in Latin lookup 0 per glyph data 1" Ydieresis dx=0 dy=0 dh=-10 dv=0 dx=0 dy=0 dh=0 dv=0
PairPos2: "'kern' Horizontal Kerning in Latin lookup 0 per glyph data 1" oe dx=0 dy=0 dh=-52 dv=0 dx=0 dy=0 dh=0 dv=0
PairPos2: "'kern' Horizontal Kerning in Latin lookup 0 per glyph data 1" OE dx=0 dy=0 dh=-22 dv=0 dx=0 dy=0 dh=0 dv=0
PairPos2: "'kern' Horizontal Kerning in Latin lookup 0 per glyph data 1" dotlessi dx=0 dy=0 dh=-32 dv=0 dx=0 dy=0 dh=0 dv=0
PairPos2: "'kern' Horizontal Kerning in Latin lookup 0 per glyph data 1" ydieresis dx=0 dy=0 dh=-37 dv=0 dx=0 dy=0 dh=0 dv=0
PairPos2: "'kern' Horizontal Kerning in Latin lookup 0 per glyph data 1" thorn dx=0 dy=0 dh=-32 dv=0 dx=0 dy=0 dh=0 dv=0
PairPos2: "'kern' Horizontal Kerning in Latin lookup 0 per glyph data 1" yacute dx=0 dy=0 dh=-37 dv=0 dx=0 dy=0 dh=0 dv=0
PairPos2: "'kern' Horizontal Kerning in Latin lookup 0 per glyph data 1" udieresis dx=0 dy=0 dh=-32 dv=0 dx=0 dy=0 dh=0 dv=0
PairPos2: "'kern' Horizontal Kerning in Latin lookup 0 per glyph data 1" ucircumflex dx=0 dy=0 dh=-32 dv=0 dx=0 dy=0 dh=0 dv=0
PairPos2: "'kern' Horizontal Kerning in Latin lookup 0 per glyph data 1" uacute dx=0 dy=0 dh=-32 dv=0 dx=0 dy=0 dh=0 dv=0
PairPos2: "'kern' Horizontal Kerning in Latin lookup 0 per glyph data 1" ugrave dx=0 dy=0 dh=-32 dv=0 dx=0 dy=0 dh=0 dv=0
PairPos2: "'kern' Horizontal Kerning in Latin lookup 0 per glyph data 1" oslash dx=0 dy=0 dh=-67 dv=0 dx=0 dy=0 dh=0 dv=0
PairPos2: "'kern' Horizontal Kerning in Latin lookup 0 per glyph data 1" odieresis dx=0 dy=0 dh=-52 dv=0 dx=0 dy=0 dh=0 dv=0
PairPos2: "'kern' Horizontal Kerning in Latin lookup 0 per glyph data 1" otilde dx=0 dy=0 dh=-52 dv=0 dx=0 dy=0 dh=0 dv=0
PairPos2: "'kern' Horizontal Kerning in Latin lookup 0 per glyph data 1" ocircumflex dx=0 dy=0 dh=-52 dv=0 dx=0 dy=0 dh=0 dv=0
PairPos2: "'kern' Horizontal Kerning in Latin lookup 0 per glyph data 1" oacute dx=0 dy=0 dh=-52 dv=0 dx=0 dy=0 dh=0 dv=0
PairPos2: "'kern' Horizontal Kerning in Latin lookup 0 per glyph data 1" ograve dx=0 dy=0 dh=-52 dv=0 dx=0 dy=0 dh=0 dv=0
PairPos2: "'kern' Horizontal Kerning in Latin lookup 0 per glyph data 1" ntilde dx=0 dy=0 dh=-32 dv=0 dx=0 dy=0 dh=0 dv=0
PairPos2: "'kern' Horizontal Kerning in Latin lookup 0 per glyph data 1" eth dx=0 dy=0 dh=-52 dv=0 dx=0 dy=0 dh=0 dv=0
PairPos2: "'kern' Horizontal Kerning in Latin lookup 0 per glyph data 1" idieresis dx=0 dy=0 dh=-32 dv=0 dx=0 dy=0 dh=0 dv=0
PairPos2: "'kern' Horizontal Kerning in Latin lookup 0 per glyph data 1" icircumflex dx=0 dy=0 dh=-32 dv=0 dx=0 dy=0 dh=0 dv=0
PairPos2: "'kern' Horizontal Kerning in Latin lookup 0 per glyph data 1" iacute dx=0 dy=0 dh=-32 dv=0 dx=0 dy=0 dh=0 dv=0
PairPos2: "'kern' Horizontal Kerning in Latin lookup 0 per glyph data 1" igrave dx=0 dy=0 dh=-32 dv=0 dx=0 dy=0 dh=0 dv=0
PairPos2: "'kern' Horizontal Kerning in Latin lookup 0 per glyph data 1" edieresis dx=0 dy=0 dh=-25 dv=0 dx=0 dy=0 dh=0 dv=0
PairPos2: "'kern' Horizontal Kerning in Latin lookup 0 per glyph data 1" ecircumflex dx=0 dy=0 dh=-25 dv=0 dx=0 dy=0 dh=0 dv=0
PairPos2: "'kern' Horizontal Kerning in Latin lookup 0 per glyph data 1" eacute dx=0 dy=0 dh=-25 dv=0 dx=0 dy=0 dh=0 dv=0
PairPos2: "'kern' Horizontal Kerning in Latin lookup 0 per glyph data 1" egrave dx=0 dy=0 dh=-25 dv=0 dx=0 dy=0 dh=0 dv=0
PairPos2: "'kern' Horizontal Kerning in Latin lookup 0 per glyph data 1" ccedilla dx=0 dy=0 dh=-25 dv=0 dx=0 dy=0 dh=0 dv=0
PairPos2: "'kern' Horizontal Kerning in Latin lookup 0 per glyph data 1" ae dx=0 dy=0 dh=-30 dv=0 dx=0 dy=0 dh=0 dv=0
PairPos2: "'kern' Horizontal Kerning in Latin lookup 0 per glyph data 1" aring dx=0 dy=0 dh=-32 dv=0 dx=0 dy=0 dh=0 dv=0
PairPos2: "'kern' Horizontal Kerning in Latin lookup 0 per glyph data 1" adieresis dx=0 dy=0 dh=-32 dv=0 dx=0 dy=0 dh=0 dv=0
PairPos2: "'kern' Horizontal Kerning in Latin lookup 0 per glyph data 1" atilde dx=0 dy=0 dh=-32 dv=0 dx=0 dy=0 dh=0 dv=0
PairPos2: "'kern' Horizontal Kerning in Latin lookup 0 per glyph data 1" acircumflex dx=0 dy=0 dh=-32 dv=0 dx=0 dy=0 dh=0 dv=0
PairPos2: "'kern' Horizontal Kerning in Latin lookup 0 per glyph data 1" aacute dx=0 dy=0 dh=-32 dv=0 dx=0 dy=0 dh=0 dv=0
PairPos2: "'kern' Horizontal Kerning in Latin lookup 0 per glyph data 1" agrave dx=0 dy=0 dh=-32 dv=0 dx=0 dy=0 dh=0 dv=0
PairPos2: "'kern' Horizontal Kerning in Latin lookup 0 per glyph data 1" germandbls dx=0 dy=0 dh=-32 dv=0 dx=0 dy=0 dh=0 dv=0
PairPos2: "'kern' Horizontal Kerning in Latin lookup 0 per glyph data 1" Thorn dx=0 dy=0 dh=-5 dv=0 dx=0 dy=0 dh=0 dv=0
PairPos2: "'kern' Horizontal Kerning in Latin lookup 0 per glyph data 1" Yacute dx=0 dy=0 dh=-10 dv=0 dx=0 dy=0 dh=0 dv=0
PairPos2: "'kern' Horizontal Kerning in Latin lookup 0 per glyph data 1" Udieresis dx=0 dy=0 dh=-10 dv=0 dx=0 dy=0 dh=0 dv=0
PairPos2: "'kern' Horizontal Kerning in Latin lookup 0 per glyph data 1" Ucircumflex dx=0 dy=0 dh=-10 dv=0 dx=0 dy=0 dh=0 dv=0
PairPos2: "'kern' Horizontal Kerning in Latin lookup 0 per glyph data 1" Uacute dx=0 dy=0 dh=-10 dv=0 dx=0 dy=0 dh=0 dv=0
PairPos2: "'kern' Horizontal Kerning in Latin lookup 0 per glyph data 1" Ugrave dx=0 dy=0 dh=-10 dv=0 dx=0 dy=0 dh=0 dv=0
PairPos2: "'kern' Horizontal Kerning in Latin lookup 0 per glyph data 1" Oslash dx=0 dy=0 dh=-21 dv=0 dx=0 dy=0 dh=0 dv=0
PairPos2: "'kern' Horizontal Kerning in Latin lookup 0 per glyph data 1" Odieresis dx=0 dy=0 dh=-22 dv=0 dx=0 dy=0 dh=0 dv=0
PairPos2: "'kern' Horizontal Kerning in Latin lookup 0 per glyph data 1" Otilde dx=0 dy=0 dh=-22 dv=0 dx=0 dy=0 dh=0 dv=0
PairPos2: "'kern' Horizontal Kerning in Latin lookup 0 per glyph data 1" Ocircumflex dx=0 dy=0 dh=-22 dv=0 dx=0 dy=0 dh=0 dv=0
PairPos2: "'kern' Horizontal Kerning in Latin lookup 0 per glyph data 1" Oacute dx=0 dy=0 dh=-22 dv=0 dx=0 dy=0 dh=0 dv=0
PairPos2: "'kern' Horizontal Kerning in Latin lookup 0 per glyph data 1" Ograve dx=0 dy=0 dh=-22 dv=0 dx=0 dy=0 dh=0 dv=0
PairPos2: "'kern' Horizontal Kerning in Latin lookup 0 per glyph data 1" Ntilde dx=0 dy=0 dh=-5 dv=0 dx=0 dy=0 dh=0 dv=0
PairPos2: "'kern' Horizontal Kerning in Latin lookup 0 per glyph data 1" Idieresis dx=0 dy=0 dh=-5 dv=0 dx=0 dy=0 dh=0 dv=0
PairPos2: "'kern' Horizontal Kerning in Latin lookup 0 per glyph data 1" Icircumflex dx=0 dy=0 dh=-5 dv=0 dx=0 dy=0 dh=0 dv=0
PairPos2: "'kern' Horizontal Kerning in Latin lookup 0 per glyph data 1" Iacute dx=0 dy=0 dh=-5 dv=0 dx=0 dy=0 dh=0 dv=0
PairPos2: "'kern' Horizontal Kerning in Latin lookup 0 per glyph data 1" Igrave dx=0 dy=0 dh=-5 dv=0 dx=0 dy=0 dh=0 dv=0
PairPos2: "'kern' Horizontal Kerning in Latin lookup 0 per glyph data 1" Edieresis dx=0 dy=0 dh=-5 dv=0 dx=0 dy=0 dh=0 dv=0
PairPos2: "'kern' Horizontal Kerning in Latin lookup 0 per glyph data 1" Ecircumflex dx=0 dy=0 dh=-5 dv=0 dx=0 dy=0 dh=0 dv=0
PairPos2: "'kern' Horizontal Kerning in Latin lookup 0 per glyph data 1" Eacute dx=0 dy=0 dh=-5 dv=0 dx=0 dy=0 dh=0 dv=0
PairPos2: "'kern' Horizontal Kerning in Latin lookup 0 per glyph data 1" Egrave dx=0 dy=0 dh=-5 dv=0 dx=0 dy=0 dh=0 dv=0
PairPos2: "'kern' Horizontal Kerning in Latin lookup 0 per glyph data 1" Ccedilla dx=0 dy=0 dh=-22 dv=0 dx=0 dy=0 dh=0 dv=0
PairPos2: "'kern' Horizontal Kerning in Latin lookup 0 per glyph data 1" AE dx=0 dy=0 dh=-36 dv=0 dx=0 dy=0 dh=0 dv=0
PairPos2: "'kern' Horizontal Kerning in Latin lookup 0 per glyph data 1" Aring dx=0 dy=0 dh=-36 dv=0 dx=0 dy=0 dh=0 dv=0
PairPos2: "'kern' Horizontal Kerning in Latin lookup 0 per glyph data 1" Adieresis dx=0 dy=0 dh=-36 dv=0 dx=0 dy=0 dh=0 dv=0
PairPos2: "'kern' Horizontal Kerning in Latin lookup 0 per glyph data 1" Atilde dx=0 dy=0 dh=-36 dv=0 dx=0 dy=0 dh=0 dv=0
PairPos2: "'kern' Horizontal Kerning in Latin lookup 0 per glyph data 1" Acircumflex dx=0 dy=0 dh=-36 dv=0 dx=0 dy=0 dh=0 dv=0
PairPos2: "'kern' Horizontal Kerning in Latin lookup 0 per glyph data 1" Aacute dx=0 dy=0 dh=-36 dv=0 dx=0 dy=0 dh=0 dv=0
PairPos2: "'kern' Horizontal Kerning in Latin lookup 0 per glyph data 1" Agrave dx=0 dy=0 dh=-36 dv=0 dx=0 dy=0 dh=0 dv=0
PairPos2: "'kern' Horizontal Kerning in Latin lookup 0 per glyph data 1" mu dx=0 dy=0 dh=-32 dv=0 dx=0 dy=0 dh=0 dv=0
PairPos2: "'kern' Horizontal Kerning in Latin lookup 0 per glyph data 1" brokenbar dx=0 dy=0 dh=-32 dv=0 dx=0 dy=0 dh=0 dv=0
PairPos2: "'kern' Horizontal Kerning in Latin lookup 0 per glyph data 1" cent dx=0 dy=0 dh=-25 dv=0 dx=0 dy=0 dh=0 dv=0
PairPos2: "'kern' Horizontal Kerning in Latin lookup 0 per glyph data 1" exclamdown dx=0 dy=0 dh=-32 dv=0 dx=0 dy=0 dh=0 dv=0
PairPos2: "'kern' Horizontal Kerning in Latin lookup 0 per glyph data 1" bar dx=0 dy=0 dh=-32 dv=0 dx=0 dy=0 dh=0 dv=0
PairPos2: "'kern' Horizontal Kerning in Latin lookup 0 per glyph data 1" y dx=0 dy=0 dh=-37 dv=0 dx=0 dy=0 dh=0 dv=0
PairPos2: "'kern' Horizontal Kerning in Latin lookup 0 per glyph data 1" u dx=0 dy=0 dh=-32 dv=0 dx=0 dy=0 dh=0 dv=0
PairPos2: "'kern' Horizontal Kerning in Latin lookup 0 per glyph data 1" t dx=0 dy=0 dh=-32 dv=0 dx=0 dy=0 dh=0 dv=0
PairPos2: "'kern' Horizontal Kerning in Latin lookup 0 per glyph data 1" s dx=0 dy=0 dh=-32 dv=0 dx=0 dy=0 dh=0 dv=0
PairPos2: "'kern' Horizontal Kerning in Latin lookup 0 per glyph data 1" r dx=0 dy=0 dh=-32 dv=0 dx=0 dy=0 dh=0 dv=0
PairPos2: "'kern' Horizontal Kerning in Latin lookup 0 per glyph data 1" q dx=0 dy=0 dh=-25 dv=0 dx=0 dy=0 dh=0 dv=0
PairPos2: "'kern' Horizontal Kerning in Latin lookup 0 per glyph data 1" p dx=0 dy=0 dh=-32 dv=0 dx=0 dy=0 dh=0 dv=0
PairPos2: "'kern' Horizontal Kerning in Latin lookup 0 per glyph data 1" o dx=0 dy=0 dh=-52 dv=0 dx=0 dy=0 dh=0 dv=0
PairPos2: "'kern' Horizontal Kerning in Latin lookup 0 per glyph data 1" n dx=0 dy=0 dh=-32 dv=0 dx=0 dy=0 dh=0 dv=0
PairPos2: "'kern' Horizontal Kerning in Latin lookup 0 per glyph data 1" m dx=0 dy=0 dh=-32 dv=0 dx=0 dy=0 dh=0 dv=0
PairPos2: "'kern' Horizontal Kerning in Latin lookup 0 per glyph data 1" l dx=0 dy=0 dh=-32 dv=0 dx=0 dy=0 dh=0 dv=0
PairPos2: "'kern' Horizontal Kerning in Latin lookup 0 per glyph data 1" k dx=0 dy=0 dh=-32 dv=0 dx=0 dy=0 dh=0 dv=0
PairPos2: "'kern' Horizontal Kerning in Latin lookup 0 per glyph data 1" j dx=0 dy=0 dh=-32 dv=0 dx=0 dy=0 dh=0 dv=0
PairPos2: "'kern' Horizontal Kerning in Latin lookup 0 per glyph data 1" i dx=0 dy=0 dh=-32 dv=0 dx=0 dy=0 dh=0 dv=0
PairPos2: "'kern' Horizontal Kerning in Latin lookup 0 per glyph data 1" h dx=0 dy=0 dh=-32 dv=0 dx=0 dy=0 dh=0 dv=0
PairPos2: "'kern' Horizontal Kerning in Latin lookup 0 per glyph data 1" f dx=0 dy=0 dh=-32 dv=0 dx=0 dy=0 dh=0 dv=0
PairPos2: "'kern' Horizontal Kerning in Latin lookup 0 per glyph data 1" e dx=0 dy=0 dh=-25 dv=0 dx=0 dy=0 dh=0 dv=0
PairPos2: "'kern' Horizontal Kerning in Latin lookup 0 per glyph data 1" d dx=0 dy=0 dh=-25 dv=0 dx=0 dy=0 dh=0 dv=0
PairPos2: "'kern' Horizontal Kerning in Latin lookup 0 per glyph data 1" c dx=0 dy=0 dh=-25 dv=0 dx=0 dy=0 dh=0 dv=0
PairPos2: "'kern' Horizontal Kerning in Latin lookup 0 per glyph data 1" b dx=0 dy=0 dh=-32 dv=0 dx=0 dy=0 dh=0 dv=0
PairPos2: "'kern' Horizontal Kerning in Latin lookup 0 per glyph data 1" a dx=0 dy=0 dh=-32 dv=0 dx=0 dy=0 dh=0 dv=0
PairPos2: "'kern' Horizontal Kerning in Latin lookup 0 per glyph data 1" bracketright dx=0 dy=0 dh=-32 dv=0 dx=0 dy=0 dh=0 dv=0
PairPos2: "'kern' Horizontal Kerning in Latin lookup 0 per glyph data 1" bracketleft dx=0 dy=0 dh=-32 dv=0 dx=0 dy=0 dh=0 dv=0
PairPos2: "'kern' Horizontal Kerning in Latin lookup 0 per glyph data 1" Y dx=0 dy=0 dh=-10 dv=0 dx=0 dy=0 dh=0 dv=0
PairPos2: "'kern' Horizontal Kerning in Latin lookup 0 per glyph data 1" U dx=0 dy=0 dh=-10 dv=0 dx=0 dy=0 dh=0 dv=0
PairPos2: "'kern' Horizontal Kerning in Latin lookup 0 per glyph data 1" S dx=0 dy=0 dh=-15 dv=0 dx=0 dy=0 dh=0 dv=0
PairPos2: "'kern' Horizontal Kerning in Latin lookup 0 per glyph data 1" R dx=0 dy=0 dh=-5 dv=0 dx=0 dy=0 dh=0 dv=0
PairPos2: "'kern' Horizontal Kerning in Latin lookup 0 per glyph data 1" Q dx=0 dy=0 dh=-22 dv=0 dx=0 dy=0 dh=0 dv=0
PairPos2: "'kern' Horizontal Kerning in Latin lookup 0 per glyph data 1" P dx=0 dy=0 dh=-5 dv=0 dx=0 dy=0 dh=0 dv=0
PairPos2: "'kern' Horizontal Kerning in Latin lookup 0 per glyph data 1" O dx=0 dy=0 dh=-22 dv=0 dx=0 dy=0 dh=0 dv=0
PairPos2: "'kern' Horizontal Kerning in Latin lookup 0 per glyph data 1" N dx=0 dy=0 dh=-5 dv=0 dx=0 dy=0 dh=0 dv=0
PairPos2: "'kern' Horizontal Kerning in Latin lookup 0 per glyph data 1" M dx=0 dy=0 dh=-5 dv=0 dx=0 dy=0 dh=0 dv=0
PairPos2: "'kern' Horizontal Kerning in Latin lookup 0 per glyph data 1" L dx=0 dy=0 dh=-5 dv=0 dx=0 dy=0 dh=0 dv=0
PairPos2: "'kern' Horizontal Kerning in Latin lookup 0 per glyph data 1" K dx=0 dy=0 dh=-5 dv=0 dx=0 dy=0 dh=0 dv=0
PairPos2: "'kern' Horizontal Kerning in Latin lookup 0 per glyph data 1" J dx=0 dy=0 dh=-5 dv=0 dx=0 dy=0 dh=0 dv=0
PairPos2: "'kern' Horizontal Kerning in Latin lookup 0 per glyph data 1" I dx=0 dy=0 dh=-5 dv=0 dx=0 dy=0 dh=0 dv=0
PairPos2: "'kern' Horizontal Kerning in Latin lookup 0 per glyph data 1" H dx=0 dy=0 dh=-5 dv=0 dx=0 dy=0 dh=0 dv=0
PairPos2: "'kern' Horizontal Kerning in Latin lookup 0 per glyph data 1" G dx=0 dy=0 dh=-22 dv=0 dx=0 dy=0 dh=0 dv=0
PairPos2: "'kern' Horizontal Kerning in Latin lookup 0 per glyph data 1" F dx=0 dy=0 dh=-5 dv=0 dx=0 dy=0 dh=0 dv=0
PairPos2: "'kern' Horizontal Kerning in Latin lookup 0 per glyph data 1" E dx=0 dy=0 dh=-5 dv=0 dx=0 dy=0 dh=0 dv=0
PairPos2: "'kern' Horizontal Kerning in Latin lookup 0 per glyph data 1" D dx=0 dy=0 dh=-5 dv=0 dx=0 dy=0 dh=0 dv=0
PairPos2: "'kern' Horizontal Kerning in Latin lookup 0 per glyph data 1" C dx=0 dy=0 dh=-22 dv=0 dx=0 dy=0 dh=0 dv=0
PairPos2: "'kern' Horizontal Kerning in Latin lookup 0 per glyph data 1" B dx=0 dy=0 dh=-5 dv=0 dx=0 dy=0 dh=0 dv=0
PairPos2: "'kern' Horizontal Kerning in Latin lookup 0 per glyph data 1" A dx=0 dy=0 dh=-36 dv=0 dx=0 dy=0 dh=0 dv=0
PairPos2: "'kern' Horizontal Kerning in Latin lookup 0 per glyph data 1" one dx=0 dy=0 dh=-32 dv=0 dx=0 dy=0 dh=0 dv=0
PairPos2: "'kern' Horizontal Kerning in Latin lookup 0 per glyph data 1" parenright dx=0 dy=0 dh=-32 dv=0 dx=0 dy=0 dh=0 dv=0
PairPos2: "'kern' Horizontal Kerning in Latin lookup 0 per glyph data 1" parenleft dx=0 dy=0 dh=-32 dv=0 dx=0 dy=0 dh=0 dv=0
PairPos2: "'kern' Horizontal Kerning in Latin lookup 0 per glyph data 1" exclam dx=0 dy=0 dh=-32 dv=0 dx=0 dy=0 dh=0 dv=0
EndChar

StartChar: G
Encoding: 71 71 42
Width: 629
GlyphClass: 2
Flags: W
LayerCount: 2
Fore
SplineSet
528 602 m 1,0,1
 523 607 523 607 510.5 614.5 c 128,-1,2
 498 622 498 622 479 629 c 128,-1,3
 460 636 460 636 434.5 641 c 128,-1,4
 409 646 409 646 378 646 c 0,5,6
 329 646 329 646 284.5 627 c 128,-1,7
 240 608 240 608 206.5 568 c 128,-1,8
 173 528 173 528 153 466.5 c 128,-1,9
 133 405 133 405 133 320 c 0,10,11
 133 230 133 230 153.5 177 c 128,-1,12
 174 124 174 124 205.5 96 c 128,-1,13
 237 68 237 68 274.5 59.5 c 128,-1,14
 312 51 312 51 345 51 c 0,15,16
 388 51 388 51 428 57.5 c 128,-1,17
 468 64 468 64 497 72 c 1,18,-1
 502 310 l 1,19,-1
 557 310 l 1,20,-1
 557 40 l 1,21,22
 543 31 543 31 517.5 23 c 128,-1,23
 492 15 492 15 461.5 9 c 128,-1,24
 431 3 431 3 398.5 -0.5 c 128,-1,25
 366 -4 366 -4 338 -4 c 0,26,27
 295 -4 295 -4 247 7.5 c 128,-1,28
 199 19 199 19 158.5 53.5 c 128,-1,29
 118 88 118 88 91.5 151.5 c 128,-1,30
 65 215 65 215 65 320 c 0,31,32
 65 417 65 417 89.5 487 c 128,-1,33
 114 557 114 557 154 602.5 c 128,-1,34
 194 648 194 648 244.5 671.5 c 128,-1,35
 295 695 295 695 348 700 c 0,36,37
 380 703 380 703 412 700 c 128,-1,38
 444 697 444 697 471.5 689.5 c 128,-1,39
 499 682 499 682 520.5 671 c 128,-1,40
 542 660 542 660 554 647 c 1,41,-1
 528 602 l 1,0,1
EndSplineSet
EndChar

StartChar: H
Encoding: 72 72 43
Width: 616
GlyphClass: 2
Flags: W
LayerCount: 2
Fore
SplineSet
75 0 m 1,0,-1
 75 700 l 1,1,-1
 138 700 l 1,2,-1
 138 377 l 1,3,-1
 478 377 l 1,4,-1
 478 700 l 1,5,-1
 541 700 l 1,6,-1
 541 0 l 1,7,-1
 478 0 l 1,8,-1
 478 317 l 1,9,-1
 138 317 l 1,10,-1
 138 0 l 1,11,-1
 75 0 l 1,0,-1
EndSplineSet
EndChar

StartChar: I
Encoding: 73 73 44
Width: 348
GlyphClass: 2
Flags: W
LayerCount: 2
Fore
SplineSet
258 0 m 1,0,-1
 70 0 l 1,1,-1
 70 48 l 1,2,-1
 130 55 l 1,3,-1
 130 644 l 1,4,-1
 75 651 l 1,5,-1
 75 700 l 1,6,-1
 253 700 l 1,7,-1
 253 651 l 1,8,-1
 198 644 l 1,9,-1
 198 55 l 1,10,-1
 258 48 l 1,11,-1
 258 0 l 1,0,-1
EndSplineSet
EndChar

StartChar: J
Encoding: 74 74 45
Width: 226
GlyphClass: 2
Flags: W
LayerCount: 2
Fore
SplineSet
-32 -209 m 1,0,1
 -16 -194 -16 -194 3 -171.5 c 128,-1,2
 22 -149 22 -149 38.5 -121.5 c 128,-1,3
 55 -94 55 -94 66 -63 c 128,-1,4
 77 -32 77 -32 77 0 c 2,5,-1
 77 700 l 1,6,-1
 145 700 l 1,7,-1
 145 0 l 1,8,9
 146 -48 146 -48 130 -87 c 128,-1,10
 114 -126 114 -126 91 -156.5 c 128,-1,11
 68 -187 68 -187 43 -210 c 128,-1,12
 18 -233 18 -233 1 -248 c 1,13,-1
 -32 -209 l 1,0,1
EndSplineSet
EndChar

StartChar: K
Encoding: 75 75 46
Width: 555
GlyphClass: 2
Flags: W
LayerCount: 2
Fore
SplineSet
222 371 m 1,0,-1
 515 0 l 1,1,-1
 437 0 l 1,2,-1
 148 366 l 1,3,-1
 389 700 l 1,4,-1
 467 700 l 1,5,-1
 222 371 l 1,0,-1
80 0 m 1,6,-1
 80 700 l 1,7,-1
 148 700 l 1,8,-1
 148 0 l 1,9,-1
 80 0 l 1,6,-1
EndSplineSet
EndChar

StartChar: L
Encoding: 76 76 47
Width: 509
GlyphClass: 2
Flags: W
LayerCount: 2
Fore
SplineSet
459 0 m 1,0,-1
 80 0 l 1,1,-1
 80 700 l 1,2,-1
 148 700 l 1,3,-1
 148 60 l 1,4,-1
 464 60 l 1,5,-1
 459 0 l 1,0,-1
EndSplineSet
EndChar

StartChar: M
Encoding: 77 77 48
Width: 802
GlyphClass: 2
Flags: W
LayerCount: 2
Fore
SplineSet
72 0 m 1,0,-1
 72 700 l 1,1,-1
 140 700 l 1,2,-1
 397 188 l 1,3,-1
 654 700 l 1,4,-1
 722 700 l 1,5,-1
 722 0 l 1,6,-1
 659 0 l 1,7,-1
 659 584 l 1,8,-1
 431 131 l 1,9,-1
 363 131 l 1,10,-1
 135 584 l 1,11,-1
 135 0 l 1,12,-1
 72 0 l 1,0,-1
EndSplineSet
EndChar

StartChar: N
Encoding: 78 78 49
Width: 675
GlyphClass: 2
Flags: W
LayerCount: 2
Fore
SplineSet
529 0 m 1,0,-1
 130 610 l 1,1,-1
 135 0 l 1,2,-1
 72 0 l 1,3,-1
 72 700 l 1,4,-1
 145 700 l 1,5,-1
 543 90 l 1,6,-1
 539 700 l 1,7,-1
 602 700 l 1,8,-1
 602 0 l 1,9,-1
 529 0 l 1,0,-1
EndSplineSet
EndChar

StartChar: O
Encoding: 79 79 50
Width: 720
GlyphClass: 2
Flags: W
LayerCount: 2
Fore
SplineSet
65 348 m 0,0,1
 65 432 65 432 88 498 c 128,-1,2
 111 564 111 564 151 609.5 c 128,-1,3
 191 655 191 655 245 679.5 c 128,-1,4
 299 704 299 704 360 704 c 256,5,6
 421 704 421 704 475 687 c 128,-1,7
 529 670 529 670 569 629 c 128,-1,8
 609 588 609 588 632 519.5 c 128,-1,9
 655 451 655 451 655 348 c 0,10,11
 655 264 655 264 632 198.5 c 128,-1,12
 609 133 609 133 569 88 c 128,-1,13
 529 43 529 43 475 19.5 c 128,-1,14
 421 -4 421 -4 360 -4 c 256,15,16
 299 -4 299 -4 245 13 c 128,-1,17
 191 30 191 30 151 70.5 c 128,-1,18
 111 111 111 111 88 178.5 c 128,-1,19
 65 246 65 246 65 348 c 0,0,1
133 350 m 0,20,21
 133 264 133 264 151 207.5 c 128,-1,22
 169 151 169 151 199.5 117.5 c 128,-1,23
 230 84 230 84 271.5 70 c 128,-1,24
 313 56 313 56 360 56 c 256,25,26
 407 56 407 56 448.5 75 c 128,-1,27
 490 94 490 94 520.5 131.5 c 128,-1,28
 551 169 551 169 569 224 c 128,-1,29
 587 279 587 279 587 350 c 0,30,31
 587 434 587 434 569 490.5 c 128,-1,32
 551 547 551 547 520.5 581 c 128,-1,33
 490 615 490 615 448.5 629.5 c 128,-1,34
 407 644 407 644 360 644 c 256,35,36
 313 644 313 644 271.5 624.5 c 128,-1,37
 230 605 230 605 199.5 567.5 c 128,-1,38
 169 530 169 530 151 475.5 c 128,-1,39
 133 421 133 421 133 350 c 0,20,21
EndSplineSet
EndChar

StartChar: P
Encoding: 80 80 51
Width: 532
GlyphClass: 2
Flags: W
LayerCount: 2
Fore
SplineSet
80 0 m 1,0,-1
 80 700 l 1,1,-1
 225 700 l 2,2,3
 282 700 282 700 327 691.5 c 128,-1,4
 372 683 372 683 403 661 c 128,-1,5
 434 639 434 639 450.5 601.5 c 128,-1,6
 467 564 467 564 467 507 c 0,7,8
 467 443 467 443 450.5 398.5 c 128,-1,9
 434 354 434 354 403 326 c 128,-1,10
 372 298 372 298 327 285 c 128,-1,11
 282 272 282 272 225 272 c 2,12,-1
 148 272 l 1,13,-1
 148 0 l 1,14,-1
 80 0 l 1,0,-1
148 645 m 1,15,-1
 148 327 l 1,16,-1
 220 327 l 2,17,18
 262 327 262 327 295.5 335.5 c 128,-1,19
 329 344 329 344 352 364.5 c 128,-1,20
 375 385 375 385 387 418.5 c 128,-1,21
 399 452 399 452 399 503 c 0,22,23
 399 546 399 546 386.5 574 c 128,-1,24
 374 602 374 602 351 617.5 c 128,-1,25
 328 633 328 633 295 639 c 128,-1,26
 262 645 262 645 220 645 c 2,27,-1
 148 645 l 1,15,-1
EndSplineSet
PairPos2: "'kern' Horizontal Kerning in Latin lookup 0 per glyph data 1" Ydieresis dx=0 dy=0 dh=-29 dv=0 dx=0 dy=0 dh=0 dv=0
PairPos2: "'kern' Horizontal Kerning in Latin lookup 0 per glyph data 1" oe dx=0 dy=0 dh=-70 dv=0 dx=0 dy=0 dh=0 dv=0
PairPos2: "'kern' Horizontal Kerning in Latin lookup 0 per glyph data 1" OE dx=0 dy=0 dh=-25 dv=0 dx=0 dy=0 dh=0 dv=0
PairPos2: "'kern' Horizontal Kerning in Latin lookup 0 per glyph data 1" dotlessi dx=0 dy=0 dh=-40 dv=0 dx=0 dy=0 dh=0 dv=0
PairPos2: "'kern' Horizontal Kerning in Latin lookup 0 per glyph data 1" ydieresis dx=0 dy=0 dh=-34 dv=0 dx=0 dy=0 dh=0 dv=0
PairPos2: "'kern' Horizontal Kerning in Latin lookup 0 per glyph data 1" thorn dx=0 dy=0 dh=-40 dv=0 dx=0 dy=0 dh=0 dv=0
PairPos2: "'kern' Horizontal Kerning in Latin lookup 0 per glyph data 1" yacute dx=0 dy=0 dh=-34 dv=0 dx=0 dy=0 dh=0 dv=0
PairPos2: "'kern' Horizontal Kerning in Latin lookup 0 per glyph data 1" udieresis dx=0 dy=0 dh=-42 dv=0 dx=0 dy=0 dh=0 dv=0
PairPos2: "'kern' Horizontal Kerning in Latin lookup 0 per glyph data 1" ucircumflex dx=0 dy=0 dh=-42 dv=0 dx=0 dy=0 dh=0 dv=0
PairPos2: "'kern' Horizontal Kerning in Latin lookup 0 per glyph data 1" uacute dx=0 dy=0 dh=-42 dv=0 dx=0 dy=0 dh=0 dv=0
PairPos2: "'kern' Horizontal Kerning in Latin lookup 0 per glyph data 1" ugrave dx=0 dy=0 dh=-42 dv=0 dx=0 dy=0 dh=0 dv=0
PairPos2: "'kern' Horizontal Kerning in Latin lookup 0 per glyph data 1" odieresis dx=0 dy=0 dh=-70 dv=0 dx=0 dy=0 dh=0 dv=0
PairPos2: "'kern' Horizontal Kerning in Latin lookup 0 per glyph data 1" otilde dx=0 dy=0 dh=-70 dv=0 dx=0 dy=0 dh=0 dv=0
PairPos2: "'kern' Horizontal Kerning in Latin lookup 0 per glyph data 1" ocircumflex dx=0 dy=0 dh=-70 dv=0 dx=0 dy=0 dh=0 dv=0
PairPos2: "'kern' Horizontal Kerning in Latin lookup 0 per glyph data 1" oacute dx=0 dy=0 dh=-70 dv=0 dx=0 dy=0 dh=0 dv=0
PairPos2: "'kern' Horizontal Kerning in Latin lookup 0 per glyph data 1" ograve dx=0 dy=0 dh=-70 dv=0 dx=0 dy=0 dh=0 dv=0
PairPos2: "'kern' Horizontal Kerning in Latin lookup 0 per glyph data 1" ntilde dx=0 dy=0 dh=-40 dv=0 dx=0 dy=0 dh=0 dv=0
PairPos2: "'kern' Horizontal Kerning in Latin lookup 0 per glyph data 1" eth dx=0 dy=0 dh=-70 dv=0 dx=0 dy=0 dh=0 dv=0
PairPos2: "'kern' Horizontal Kerning in Latin lookup 0 per glyph data 1" idieresis dx=0 dy=0 dh=-40 dv=0 dx=0 dy=0 dh=0 dv=0
PairPos2: "'kern' Horizontal Kerning in Latin lookup 0 per glyph data 1" icircumflex dx=0 dy=0 dh=-40 dv=0 dx=0 dy=0 dh=0 dv=0
PairPos2: "'kern' Horizontal Kerning in Latin lookup 0 per glyph data 1" iacute dx=0 dy=0 dh=-40 dv=0 dx=0 dy=0 dh=0 dv=0
PairPos2: "'kern' Horizontal Kerning in Latin lookup 0 per glyph data 1" igrave dx=0 dy=0 dh=-40 dv=0 dx=0 dy=0 dh=0 dv=0
PairPos2: "'kern' Horizontal Kerning in Latin lookup 0 per glyph data 1" edieresis dx=0 dy=0 dh=-89 dv=0 dx=0 dy=0 dh=0 dv=0
PairPos2: "'kern' Horizontal Kerning in Latin lookup 0 per glyph data 1" ecircumflex dx=0 dy=0 dh=-89 dv=0 dx=0 dy=0 dh=0 dv=0
PairPos2: "'kern' Horizontal Kerning in Latin lookup 0 per glyph data 1" eacute dx=0 dy=0 dh=-89 dv=0 dx=0 dy=0 dh=0 dv=0
PairPos2: "'kern' Horizontal Kerning in Latin lookup 0 per glyph data 1" egrave dx=0 dy=0 dh=-89 dv=0 dx=0 dy=0 dh=0 dv=0
PairPos2: "'kern' Horizontal Kerning in Latin lookup 0 per glyph data 1" ccedilla dx=0 dy=0 dh=-89 dv=0 dx=0 dy=0 dh=0 dv=0
PairPos2: "'kern' Horizontal Kerning in Latin lookup 0 per glyph data 1" aring dx=0 dy=0 dh=-54 dv=0 dx=0 dy=0 dh=0 dv=0
PairPos2: "'kern' Horizontal Kerning in Latin lookup 0 per glyph data 1" adieresis dx=0 dy=0 dh=-54 dv=0 dx=0 dy=0 dh=0 dv=0
PairPos2: "'kern' Horizontal Kerning in Latin lookup 0 per glyph data 1" atilde dx=0 dy=0 dh=-54 dv=0 dx=0 dy=0 dh=0 dv=0
PairPos2: "'kern' Horizontal Kerning in Latin lookup 0 per glyph data 1" acircumflex dx=0 dy=0 dh=-54 dv=0 dx=0 dy=0 dh=0 dv=0
PairPos2: "'kern' Horizontal Kerning in Latin lookup 0 per glyph data 1" aacute dx=0 dy=0 dh=-54 dv=0 dx=0 dy=0 dh=0 dv=0
PairPos2: "'kern' Horizontal Kerning in Latin lookup 0 per glyph data 1" agrave dx=0 dy=0 dh=-54 dv=0 dx=0 dy=0 dh=0 dv=0
PairPos2: "'kern' Horizontal Kerning in Latin lookup 0 per glyph data 1" germandbls dx=0 dy=0 dh=-40 dv=0 dx=0 dy=0 dh=0 dv=0
PairPos2: "'kern' Horizontal Kerning in Latin lookup 0 per glyph data 1" Thorn dx=0 dy=0 dh=-27 dv=0 dx=0 dy=0 dh=0 dv=0
PairPos2: "'kern' Horizontal Kerning in Latin lookup 0 per glyph data 1" Yacute dx=0 dy=0 dh=-29 dv=0 dx=0 dy=0 dh=0 dv=0
PairPos2: "'kern' Horizontal Kerning in Latin lookup 0 per glyph data 1" Udieresis dx=0 dy=0 dh=-25 dv=0 dx=0 dy=0 dh=0 dv=0
PairPos2: "'kern' Horizontal Kerning in Latin lookup 0 per glyph data 1" Ucircumflex dx=0 dy=0 dh=-25 dv=0 dx=0 dy=0 dh=0 dv=0
PairPos2: "'kern' Horizontal Kerning in Latin lookup 0 per glyph data 1" Uacute dx=0 dy=0 dh=-25 dv=0 dx=0 dy=0 dh=0 dv=0
PairPos2: "'kern' Horizontal Kerning in Latin lookup 0 per glyph data 1" Ugrave dx=0 dy=0 dh=-25 dv=0 dx=0 dy=0 dh=0 dv=0
PairPos2: "'kern' Horizontal Kerning in Latin lookup 0 per glyph data 1" Odieresis dx=0 dy=0 dh=-25 dv=0 dx=0 dy=0 dh=0 dv=0
PairPos2: "'kern' Horizontal Kerning in Latin lookup 0 per glyph data 1" Otilde dx=0 dy=0 dh=-25 dv=0 dx=0 dy=0 dh=0 dv=0
PairPos2: "'kern' Horizontal Kerning in Latin lookup 0 per glyph data 1" Ocircumflex dx=0 dy=0 dh=-25 dv=0 dx=0 dy=0 dh=0 dv=0
PairPos2: "'kern' Horizontal Kerning in Latin lookup 0 per glyph data 1" Oacute dx=0 dy=0 dh=-25 dv=0 dx=0 dy=0 dh=0 dv=0
PairPos2: "'kern' Horizontal Kerning in Latin lookup 0 per glyph data 1" Ograve dx=0 dy=0 dh=-25 dv=0 dx=0 dy=0 dh=0 dv=0
PairPos2: "'kern' Horizontal Kerning in Latin lookup 0 per glyph data 1" Ntilde dx=0 dy=0 dh=-27 dv=0 dx=0 dy=0 dh=0 dv=0
PairPos2: "'kern' Horizontal Kerning in Latin lookup 0 per glyph data 1" Idieresis dx=0 dy=0 dh=-27 dv=0 dx=0 dy=0 dh=0 dv=0
PairPos2: "'kern' Horizontal Kerning in Latin lookup 0 per glyph data 1" Icircumflex dx=0 dy=0 dh=-27 dv=0 dx=0 dy=0 dh=0 dv=0
PairPos2: "'kern' Horizontal Kerning in Latin lookup 0 per glyph data 1" Iacute dx=0 dy=0 dh=-27 dv=0 dx=0 dy=0 dh=0 dv=0
PairPos2: "'kern' Horizontal Kerning in Latin lookup 0 per glyph data 1" Igrave dx=0 dy=0 dh=-27 dv=0 dx=0 dy=0 dh=0 dv=0
PairPos2: "'kern' Horizontal Kerning in Latin lookup 0 per glyph data 1" Edieresis dx=0 dy=0 dh=-27 dv=0 dx=0 dy=0 dh=0 dv=0
PairPos2: "'kern' Horizontal Kerning in Latin lookup 0 per glyph data 1" Ecircumflex dx=0 dy=0 dh=-27 dv=0 dx=0 dy=0 dh=0 dv=0
PairPos2: "'kern' Horizontal Kerning in Latin lookup 0 per glyph data 1" Eacute dx=0 dy=0 dh=-27 dv=0 dx=0 dy=0 dh=0 dv=0
PairPos2: "'kern' Horizontal Kerning in Latin lookup 0 per glyph data 1" Egrave dx=0 dy=0 dh=-27 dv=0 dx=0 dy=0 dh=0 dv=0
PairPos2: "'kern' Horizontal Kerning in Latin lookup 0 per glyph data 1" Ccedilla dx=0 dy=0 dh=-25 dv=0 dx=0 dy=0 dh=0 dv=0
PairPos2: "'kern' Horizontal Kerning in Latin lookup 0 per glyph data 1" AE dx=0 dy=0 dh=-43 dv=0 dx=0 dy=0 dh=0 dv=0
PairPos2: "'kern' Horizontal Kerning in Latin lookup 0 per glyph data 1" Aring dx=0 dy=0 dh=-43 dv=0 dx=0 dy=0 dh=0 dv=0
PairPos2: "'kern' Horizontal Kerning in Latin lookup 0 per glyph data 1" Adieresis dx=0 dy=0 dh=-43 dv=0 dx=0 dy=0 dh=0 dv=0
PairPos2: "'kern' Horizontal Kerning in Latin lookup 0 per glyph data 1" Atilde dx=0 dy=0 dh=-43 dv=0 dx=0 dy=0 dh=0 dv=0
PairPos2: "'kern' Horizontal Kerning in Latin lookup 0 per glyph data 1" Acircumflex dx=0 dy=0 dh=-43 dv=0 dx=0 dy=0 dh=0 dv=0
PairPos2: "'kern' Horizontal Kerning in Latin lookup 0 per glyph data 1" Aacute dx=0 dy=0 dh=-43 dv=0 dx=0 dy=0 dh=0 dv=0
PairPos2: "'kern' Horizontal Kerning in Latin lookup 0 per glyph data 1" Agrave dx=0 dy=0 dh=-43 dv=0 dx=0 dy=0 dh=0 dv=0
PairPos2: "'kern' Horizontal Kerning in Latin lookup 0 per glyph data 1" mu dx=0 dy=0 dh=-40 dv=0 dx=0 dy=0 dh=0 dv=0
PairPos2: "'kern' Horizontal Kerning in Latin lookup 0 per glyph data 1" brokenbar dx=0 dy=0 dh=-40 dv=0 dx=0 dy=0 dh=0 dv=0
PairPos2: "'kern' Horizontal Kerning in Latin lookup 0 per glyph data 1" cent dx=0 dy=0 dh=-89 dv=0 dx=0 dy=0 dh=0 dv=0
PairPos2: "'kern' Horizontal Kerning in Latin lookup 0 per glyph data 1" exclamdown dx=0 dy=0 dh=-40 dv=0 dx=0 dy=0 dh=0 dv=0
PairPos2: "'kern' Horizontal Kerning in Latin lookup 0 per glyph data 1" bar dx=0 dy=0 dh=-40 dv=0 dx=0 dy=0 dh=0 dv=0
PairPos2: "'kern' Horizontal Kerning in Latin lookup 0 per glyph data 1" y dx=0 dy=0 dh=-34 dv=0 dx=0 dy=0 dh=0 dv=0
PairPos2: "'kern' Horizontal Kerning in Latin lookup 0 per glyph data 1" w dx=0 dy=0 dh=-30 dv=0 dx=0 dy=0 dh=0 dv=0
PairPos2: "'kern' Horizontal Kerning in Latin lookup 0 per glyph data 1" v dx=0 dy=0 dh=-13 dv=0 dx=0 dy=0 dh=0 dv=0
PairPos2: "'kern' Horizontal Kerning in Latin lookup 0 per glyph data 1" u dx=0 dy=0 dh=-42 dv=0 dx=0 dy=0 dh=0 dv=0
PairPos2: "'kern' Horizontal Kerning in Latin lookup 0 per glyph data 1" t dx=0 dy=0 dh=-42 dv=0 dx=0 dy=0 dh=0 dv=0
PairPos2: "'kern' Horizontal Kerning in Latin lookup 0 per glyph data 1" s dx=0 dy=0 dh=-55 dv=0 dx=0 dy=0 dh=0 dv=0
PairPos2: "'kern' Horizontal Kerning in Latin lookup 0 per glyph data 1" r dx=0 dy=0 dh=-40 dv=0 dx=0 dy=0 dh=0 dv=0
PairPos2: "'kern' Horizontal Kerning in Latin lookup 0 per glyph data 1" q dx=0 dy=0 dh=-89 dv=0 dx=0 dy=0 dh=0 dv=0
PairPos2: "'kern' Horizontal Kerning in Latin lookup 0 per glyph data 1" p dx=0 dy=0 dh=-40 dv=0 dx=0 dy=0 dh=0 dv=0
PairPos2: "'kern' Horizontal Kerning in Latin lookup 0 per glyph data 1" o dx=0 dy=0 dh=-70 dv=0 dx=0 dy=0 dh=0 dv=0
PairPos2: "'kern' Horizontal Kerning in Latin lookup 0 per glyph data 1" n dx=0 dy=0 dh=-40 dv=0 dx=0 dy=0 dh=0 dv=0
PairPos2: "'kern' Horizontal Kerning in Latin lookup 0 per glyph data 1" m dx=0 dy=0 dh=-40 dv=0 dx=0 dy=0 dh=0 dv=0
PairPos2: "'kern' Horizontal Kerning in Latin lookup 0 per glyph data 1" l dx=0 dy=0 dh=-40 dv=0 dx=0 dy=0 dh=0 dv=0
PairPos2: "'kern' Horizontal Kerning in Latin lookup 0 per glyph data 1" k dx=0 dy=0 dh=-40 dv=0 dx=0 dy=0 dh=0 dv=0
PairPos2: "'kern' Horizontal Kerning in Latin lookup 0 per glyph data 1" j dx=0 dy=0 dh=-40 dv=0 dx=0 dy=0 dh=0 dv=0
PairPos2: "'kern' Horizontal Kerning in Latin lookup 0 per glyph data 1" i dx=0 dy=0 dh=-40 dv=0 dx=0 dy=0 dh=0 dv=0
PairPos2: "'kern' Horizontal Kerning in Latin lookup 0 per glyph data 1" h dx=0 dy=0 dh=-40 dv=0 dx=0 dy=0 dh=0 dv=0
PairPos2: "'kern' Horizontal Kerning in Latin lookup 0 per glyph data 1" g dx=0 dy=0 dh=-48 dv=0 dx=0 dy=0 dh=0 dv=0
PairPos2: "'kern' Horizontal Kerning in Latin lookup 0 per glyph data 1" f dx=0 dy=0 dh=-40 dv=0 dx=0 dy=0 dh=0 dv=0
PairPos2: "'kern' Horizontal Kerning in Latin lookup 0 per glyph data 1" e dx=0 dy=0 dh=-89 dv=0 dx=0 dy=0 dh=0 dv=0
PairPos2: "'kern' Horizontal Kerning in Latin lookup 0 per glyph data 1" d dx=0 dy=0 dh=-89 dv=0 dx=0 dy=0 dh=0 dv=0
PairPos2: "'kern' Horizontal Kerning in Latin lookup 0 per glyph data 1" c dx=0 dy=0 dh=-89 dv=0 dx=0 dy=0 dh=0 dv=0
PairPos2: "'kern' Horizontal Kerning in Latin lookup 0 per glyph data 1" b dx=0 dy=0 dh=-40 dv=0 dx=0 dy=0 dh=0 dv=0
PairPos2: "'kern' Horizontal Kerning in Latin lookup 0 per glyph data 1" a dx=0 dy=0 dh=-54 dv=0 dx=0 dy=0 dh=0 dv=0
PairPos2: "'kern' Horizontal Kerning in Latin lookup 0 per glyph data 1" bracketright dx=0 dy=0 dh=-40 dv=0 dx=0 dy=0 dh=0 dv=0
PairPos2: "'kern' Horizontal Kerning in Latin lookup 0 per glyph data 1" bracketleft dx=0 dy=0 dh=-40 dv=0 dx=0 dy=0 dh=0 dv=0
PairPos2: "'kern' Horizontal Kerning in Latin lookup 0 per glyph data 1" Z dx=0 dy=0 dh=-29 dv=0 dx=0 dy=0 dh=0 dv=0
PairPos2: "'kern' Horizontal Kerning in Latin lookup 0 per glyph data 1" Y dx=0 dy=0 dh=-29 dv=0 dx=0 dy=0 dh=0 dv=0
PairPos2: "'kern' Horizontal Kerning in Latin lookup 0 per glyph data 1" U dx=0 dy=0 dh=-25 dv=0 dx=0 dy=0 dh=0 dv=0
PairPos2: "'kern' Horizontal Kerning in Latin lookup 0 per glyph data 1" T dx=0 dy=0 dh=-15 dv=0 dx=0 dy=0 dh=0 dv=0
PairPos2: "'kern' Horizontal Kerning in Latin lookup 0 per glyph data 1" S dx=0 dy=0 dh=-15 dv=0 dx=0 dy=0 dh=0 dv=0
PairPos2: "'kern' Horizontal Kerning in Latin lookup 0 per glyph data 1" R dx=0 dy=0 dh=-27 dv=0 dx=0 dy=0 dh=0 dv=0
PairPos2: "'kern' Horizontal Kerning in Latin lookup 0 per glyph data 1" Q dx=0 dy=0 dh=-25 dv=0 dx=0 dy=0 dh=0 dv=0
PairPos2: "'kern' Horizontal Kerning in Latin lookup 0 per glyph data 1" P dx=0 dy=0 dh=-27 dv=0 dx=0 dy=0 dh=0 dv=0
PairPos2: "'kern' Horizontal Kerning in Latin lookup 0 per glyph data 1" O dx=0 dy=0 dh=-25 dv=0 dx=0 dy=0 dh=0 dv=0
PairPos2: "'kern' Horizontal Kerning in Latin lookup 0 per glyph data 1" N dx=0 dy=0 dh=-27 dv=0 dx=0 dy=0 dh=0 dv=0
PairPos2: "'kern' Horizontal Kerning in Latin lookup 0 per glyph data 1" M dx=0 dy=0 dh=-27 dv=0 dx=0 dy=0 dh=0 dv=0
PairPos2: "'kern' Horizontal Kerning in Latin lookup 0 per glyph data 1" L dx=0 dy=0 dh=-27 dv=0 dx=0 dy=0 dh=0 dv=0
PairPos2: "'kern' Horizontal Kerning in Latin lookup 0 per glyph data 1" K dx=0 dy=0 dh=-27 dv=0 dx=0 dy=0 dh=0 dv=0
PairPos2: "'kern' Horizontal Kerning in Latin lookup 0 per glyph data 1" J dx=0 dy=0 dh=-27 dv=0 dx=0 dy=0 dh=0 dv=0
PairPos2: "'kern' Horizontal Kerning in Latin lookup 0 per glyph data 1" I dx=0 dy=0 dh=-27 dv=0 dx=0 dy=0 dh=0 dv=0
PairPos2: "'kern' Horizontal Kerning in Latin lookup 0 per glyph data 1" H dx=0 dy=0 dh=-27 dv=0 dx=0 dy=0 dh=0 dv=0
PairPos2: "'kern' Horizontal Kerning in Latin lookup 0 per glyph data 1" G dx=0 dy=0 dh=-25 dv=0 dx=0 dy=0 dh=0 dv=0
PairPos2: "'kern' Horizontal Kerning in Latin lookup 0 per glyph data 1" F dx=0 dy=0 dh=-27 dv=0 dx=0 dy=0 dh=0 dv=0
PairPos2: "'kern' Horizontal Kerning in Latin lookup 0 per glyph data 1" E dx=0 dy=0 dh=-27 dv=0 dx=0 dy=0 dh=0 dv=0
PairPos2: "'kern' Horizontal Kerning in Latin lookup 0 per glyph data 1" D dx=0 dy=0 dh=-27 dv=0 dx=0 dy=0 dh=0 dv=0
PairPos2: "'kern' Horizontal Kerning in Latin lookup 0 per glyph data 1" C dx=0 dy=0 dh=-25 dv=0 dx=0 dy=0 dh=0 dv=0
PairPos2: "'kern' Horizontal Kerning in Latin lookup 0 per glyph data 1" B dx=0 dy=0 dh=-27 dv=0 dx=0 dy=0 dh=0 dv=0
PairPos2: "'kern' Horizontal Kerning in Latin lookup 0 per glyph data 1" A dx=0 dy=0 dh=-43 dv=0 dx=0 dy=0 dh=0 dv=0
PairPos2: "'kern' Horizontal Kerning in Latin lookup 0 per glyph data 1" one dx=0 dy=0 dh=-40 dv=0 dx=0 dy=0 dh=0 dv=0
PairPos2: "'kern' Horizontal Kerning in Latin lookup 0 per glyph data 1" parenright dx=0 dy=0 dh=-40 dv=0 dx=0 dy=0 dh=0 dv=0
PairPos2: "'kern' Horizontal Kerning in Latin lookup 0 per glyph data 1" parenleft dx=0 dy=0 dh=-40 dv=0 dx=0 dy=0 dh=0 dv=0
PairPos2: "'kern' Horizontal Kerning in Latin lookup 0 per glyph data 1" exclam dx=0 dy=0 dh=-40 dv=0 dx=0 dy=0 dh=0 dv=0
EndChar

StartChar: Q
Encoding: 81 81 52
Width: 720
GlyphClass: 2
Flags: W
LayerCount: 2
Fore
SplineSet
65 348 m 0,0,1
 65 432 65 432 88 498 c 128,-1,2
 111 564 111 564 151 609.5 c 128,-1,3
 191 655 191 655 245 679.5 c 128,-1,4
 299 704 299 704 360 704 c 256,5,6
 421 704 421 704 475 687 c 128,-1,7
 529 670 529 670 569 629 c 128,-1,8
 609 588 609 588 632 519.5 c 128,-1,9
 655 451 655 451 655 348 c 0,10,11
 655 273 655 273 636.5 213 c 128,-1,12
 618 153 618 153 585 108.5 c 128,-1,13
 552 64 552 64 507.5 36.5 c 128,-1,14
 463 9 463 9 411 0 c 1,15,16
 420 -32 420 -32 439 -61.5 c 128,-1,17
 458 -91 458 -91 481 -116 c 128,-1,18
 504 -141 504 -141 528 -161 c 128,-1,19
 552 -181 552 -181 570 -194 c 1,20,-1
 511 -200 l 1,21,22
 492 -187 492 -187 467.5 -166.5 c 128,-1,23
 443 -146 443 -146 420 -120.5 c 128,-1,24
 397 -95 397 -95 377.5 -65.5 c 128,-1,25
 358 -36 358 -36 349 -4 c 1,26,27
 290 -3 290 -3 238 15 c 128,-1,28
 186 33 186 33 147.5 74 c 128,-1,29
 109 115 109 115 87 182 c 128,-1,30
 65 249 65 249 65 348 c 0,0,1
133 350 m 0,31,32
 133 264 133 264 151 207.5 c 128,-1,33
 169 151 169 151 199.5 117.5 c 128,-1,34
 230 84 230 84 271.5 70 c 128,-1,35
 313 56 313 56 360 56 c 256,36,37
 407 56 407 56 448.5 75 c 128,-1,38
 490 94 490 94 520.5 131.5 c 128,-1,39
 551 169 551 169 569 224 c 128,-1,40
 587 279 587 279 587 350 c 0,41,42
 587 434 587 434 569 490.5 c 128,-1,43
 551 547 551 547 520.5 581 c 128,-1,44
 490 615 490 615 448.5 629.5 c 128,-1,45
 407 644 407 644 360 644 c 256,46,47
 313 644 313 644 271.5 624.5 c 128,-1,48
 230 605 230 605 199.5 567.5 c 128,-1,49
 169 530 169 530 151 475.5 c 128,-1,50
 133 421 133 421 133 350 c 0,31,32
EndSplineSet
EndChar

StartChar: R
Encoding: 82 82 53
Width: 564
GlyphClass: 2
Flags: W
LayerCount: 2
Fore
SplineSet
80 0 m 1,0,-1
 80 700 l 1,1,-1
 225 700 l 2,2,3
 282 700 282 700 327 691.5 c 128,-1,4
 372 683 372 683 403 662 c 128,-1,5
 434 641 434 641 450.5 604.5 c 128,-1,6
 467 568 467 568 467 512 c 0,7,8
 467 437 467 437 441.5 390 c 128,-1,9
 416 343 416 343 368 319 c 1,10,-1
 519 0 l 1,11,-1
 446 0 l 1,12,-1
 304 298 l 1,13,14
 268 292 268 292 225 292 c 2,15,-1
 148 292 l 1,16,-1
 148 0 l 1,17,-1
 80 0 l 1,0,-1
148 645 m 1,18,-1
 148 347 l 1,19,-1
 220 347 l 2,20,21
 262 347 262 347 295.5 355 c 128,-1,22
 329 363 329 363 352 381.5 c 128,-1,23
 375 400 375 400 387 431 c 128,-1,24
 399 462 399 462 399 508 c 0,25,26
 399 550 399 550 386.5 576.5 c 128,-1,27
 374 603 374 603 351 618.5 c 128,-1,28
 328 634 328 634 295 639.5 c 128,-1,29
 262 645 262 645 220 645 c 2,30,-1
 148 645 l 1,18,-1
EndSplineSet
EndChar

StartChar: S
Encoding: 83 83 54
Width: 557
GlyphClass: 2
Flags: W
LayerCount: 2
Fore
SplineSet
466 682 m 1,0,-1
 454 625 l 1,1,2
 377 642 377 642 304 642 c 0,3,4
 269 642 269 642 237.5 635.5 c 128,-1,5
 206 629 206 629 182 614.5 c 128,-1,6
 158 600 158 600 143.5 577.5 c 128,-1,7
 129 555 129 555 129 524 c 0,8,9
 129 479 129 479 157.5 455 c 128,-1,10
 186 431 186 431 229.5 415.5 c 128,-1,11
 273 400 273 400 323 387.5 c 128,-1,12
 373 375 373 375 416.5 353.5 c 128,-1,13
 460 332 460 332 488.5 295 c 128,-1,14
 517 258 517 258 517 194 c 0,15,16
 517 143 517 143 496 106 c 128,-1,17
 475 69 475 69 440.5 45 c 128,-1,18
 406 21 406 21 360.5 10 c 128,-1,19
 315 -1 315 -1 266 -1 c 0,20,21
 246 -1 246 -1 219.5 1 c 128,-1,22
 193 3 193 3 163 9.5 c 128,-1,23
 133 16 133 16 101.5 28 c 128,-1,24
 70 40 70 40 40 60 c 1,25,-1
 66 111 l 1,26,27
 93 92 93 92 143 75.5 c 128,-1,28
 193 59 193 59 253 59 c 0,29,30
 287 59 287 59 322 66 c 128,-1,31
 357 73 357 73 385 89 c 128,-1,32
 413 105 413 105 431 131 c 128,-1,33
 449 157 449 157 449 195 c 0,34,35
 449 246 449 246 420.5 274.5 c 128,-1,36
 392 303 392 303 348.5 320.5 c 128,-1,37
 305 338 305 338 255 350.5 c 128,-1,38
 205 363 205 363 161.5 382 c 128,-1,39
 118 401 118 401 89.5 432.5 c 128,-1,40
 61 464 61 464 61 520 c 0,41,42
 61 559 61 559 75.5 592 c 128,-1,43
 90 625 90 625 119 649.5 c 128,-1,44
 148 674 148 674 191 688 c 128,-1,45
 234 702 234 702 291 702 c 0,46,47
 337 702 337 702 383.5 696 c 128,-1,48
 430 690 430 690 466 682 c 1,0,-1
EndSplineSet
EndChar

StartChar: T
Encoding: 84 84 55
Width: 548
GlyphClass: 2
Flags: W
LayerCount: 2
Fore
SplineSet
243 0 m 1,0,-1
 243 640 l 1,1,-1
 45 640 l 1,2,-1
 50 700 l 1,3,-1
 503 700 l 1,4,-1
 498 640 l 1,5,-1
 306 640 l 1,6,-1
 306 0 l 1,7,-1
 243 0 l 1,0,-1
EndSplineSet
EndChar

StartChar: U
Encoding: 85 85 56
Width: 657
GlyphClass: 2
Flags: W
LayerCount: 2
Fore
SplineSet
585 700 m 1,0,-1
 585 300 l 2,1,2
 585 217 585 217 565 159 c 128,-1,3
 545 101 545 101 511.5 65 c 128,-1,4
 478 29 478 29 433 12.5 c 128,-1,5
 388 -4 388 -4 338 -4 c 0,6,7
 289 -4 289 -4 242.5 7 c 128,-1,8
 196 18 196 18 160 50.5 c 128,-1,9
 124 83 124 83 102 142.5 c 128,-1,10
 80 202 80 202 80 300 c 2,11,-1
 80 700 l 1,12,-1
 148 700 l 1,13,-1
 148 301 l 2,14,15
 148 221 148 221 164.5 172 c 128,-1,16
 181 123 181 123 208 96 c 128,-1,17
 235 69 235 69 269 60 c 128,-1,18
 303 51 303 51 338 51 c 0,19,20
 375 51 375 51 408 64 c 128,-1,21
 441 77 441 77 466.5 106.5 c 128,-1,22
 492 136 492 136 507 183.5 c 128,-1,23
 522 231 522 231 522 301 c 2,24,-1
 522 700 l 1,25,-1
 585 700 l 1,0,-1
EndSplineSet
EndChar

StartChar: V
Encoding: 86 86 57
Width: 664
GlyphClass: 2
Flags: W
LayerCount: 2
Fore
SplineSet
340 76 m 1,0,-1
 551 700 l 1,1,-1
 616 700 l 1,2,-1
 368 0 l 1,3,-1
 302 0 l 1,4,-1
 45 700 l 1,5,-1
 113 700 l 1,6,-1
 340 76 l 1,0,-1
EndSplineSet
PairPos2: "'kern' Horizontal Kerning in Latin lookup 0 per glyph data 1" oe dx=0 dy=0 dh=-97 dv=0 dx=0 dy=0 dh=0 dv=0
PairPos2: "'kern' Horizontal Kerning in Latin lookup 0 per glyph data 1" OE dx=0 dy=0 dh=-29 dv=0 dx=0 dy=0 dh=0 dv=0
PairPos2: "'kern' Horizontal Kerning in Latin lookup 0 per glyph data 1" dotlessi dx=0 dy=0 dh=-42 dv=0 dx=0 dy=0 dh=0 dv=0
PairPos2: "'kern' Horizontal Kerning in Latin lookup 0 per glyph data 1" thorn dx=0 dy=0 dh=-42 dv=0 dx=0 dy=0 dh=0 dv=0
PairPos2: "'kern' Horizontal Kerning in Latin lookup 0 per glyph data 1" oslash dx=0 dy=0 dh=-98 dv=0 dx=0 dy=0 dh=0 dv=0
PairPos2: "'kern' Horizontal Kerning in Latin lookup 0 per glyph data 1" odieresis dx=0 dy=0 dh=-97 dv=0 dx=0 dy=0 dh=0 dv=0
PairPos2: "'kern' Horizontal Kerning in Latin lookup 0 per glyph data 1" otilde dx=0 dy=0 dh=-97 dv=0 dx=0 dy=0 dh=0 dv=0
PairPos2: "'kern' Horizontal Kerning in Latin lookup 0 per glyph data 1" ocircumflex dx=0 dy=0 dh=-97 dv=0 dx=0 dy=0 dh=0 dv=0
PairPos2: "'kern' Horizontal Kerning in Latin lookup 0 per glyph data 1" oacute dx=0 dy=0 dh=-97 dv=0 dx=0 dy=0 dh=0 dv=0
PairPos2: "'kern' Horizontal Kerning in Latin lookup 0 per glyph data 1" ograve dx=0 dy=0 dh=-97 dv=0 dx=0 dy=0 dh=0 dv=0
PairPos2: "'kern' Horizontal Kerning in Latin lookup 0 per glyph data 1" ntilde dx=0 dy=0 dh=-42 dv=0 dx=0 dy=0 dh=0 dv=0
PairPos2: "'kern' Horizontal Kerning in Latin lookup 0 per glyph data 1" eth dx=0 dy=0 dh=-97 dv=0 dx=0 dy=0 dh=0 dv=0
PairPos2: "'kern' Horizontal Kerning in Latin lookup 0 per glyph data 1" idieresis dx=0 dy=0 dh=-42 dv=0 dx=0 dy=0 dh=0 dv=0
PairPos2: "'kern' Horizontal Kerning in Latin lookup 0 per glyph data 1" icircumflex dx=0 dy=0 dh=-42 dv=0 dx=0 dy=0 dh=0 dv=0
PairPos2: "'kern' Horizontal Kerning in Latin lookup 0 per glyph data 1" iacute dx=0 dy=0 dh=-42 dv=0 dx=0 dy=0 dh=0 dv=0
PairPos2: "'kern' Horizontal Kerning in Latin lookup 0 per glyph data 1" igrave dx=0 dy=0 dh=-42 dv=0 dx=0 dy=0 dh=0 dv=0
PairPos2: "'kern' Horizontal Kerning in Latin lookup 0 per glyph data 1" edieresis dx=0 dy=0 dh=-117 dv=0 dx=0 dy=0 dh=0 dv=0
PairPos2: "'kern' Horizontal Kerning in Latin lookup 0 per glyph data 1" ecircumflex dx=0 dy=0 dh=-117 dv=0 dx=0 dy=0 dh=0 dv=0
PairPos2: "'kern' Horizontal Kerning in Latin lookup 0 per glyph data 1" eacute dx=0 dy=0 dh=-117 dv=0 dx=0 dy=0 dh=0 dv=0
PairPos2: "'kern' Horizontal Kerning in Latin lookup 0 per glyph data 1" egrave dx=0 dy=0 dh=-117 dv=0 dx=0 dy=0 dh=0 dv=0
PairPos2: "'kern' Horizontal Kerning in Latin lookup 0 per glyph data 1" ccedilla dx=0 dy=0 dh=-117 dv=0 dx=0 dy=0 dh=0 dv=0
PairPos2: "'kern' Horizontal Kerning in Latin lookup 0 per glyph data 1" ae dx=0 dy=0 dh=-82 dv=0 dx=0 dy=0 dh=0 dv=0
PairPos2: "'kern' Horizontal Kerning in Latin lookup 0 per glyph data 1" aring dx=0 dy=0 dh=-83 dv=0 dx=0 dy=0 dh=0 dv=0
PairPos2: "'kern' Horizontal Kerning in Latin lookup 0 per glyph data 1" adieresis dx=0 dy=0 dh=-83 dv=0 dx=0 dy=0 dh=0 dv=0
PairPos2: "'kern' Horizontal Kerning in Latin lookup 0 per glyph data 1" atilde dx=0 dy=0 dh=-83 dv=0 dx=0 dy=0 dh=0 dv=0
PairPos2: "'kern' Horizontal Kerning in Latin lookup 0 per glyph data 1" acircumflex dx=0 dy=0 dh=-83 dv=0 dx=0 dy=0 dh=0 dv=0
PairPos2: "'kern' Horizontal Kerning in Latin lookup 0 per glyph data 1" aacute dx=0 dy=0 dh=-83 dv=0 dx=0 dy=0 dh=0 dv=0
PairPos2: "'kern' Horizontal Kerning in Latin lookup 0 per glyph data 1" agrave dx=0 dy=0 dh=-83 dv=0 dx=0 dy=0 dh=0 dv=0
PairPos2: "'kern' Horizontal Kerning in Latin lookup 0 per glyph data 1" germandbls dx=0 dy=0 dh=-42 dv=0 dx=0 dy=0 dh=0 dv=0
PairPos2: "'kern' Horizontal Kerning in Latin lookup 0 per glyph data 1" Thorn dx=0 dy=0 dh=-10 dv=0 dx=0 dy=0 dh=0 dv=0
PairPos2: "'kern' Horizontal Kerning in Latin lookup 0 per glyph data 1" Udieresis dx=0 dy=0 dh=-8 dv=0 dx=0 dy=0 dh=0 dv=0
PairPos2: "'kern' Horizontal Kerning in Latin lookup 0 per glyph data 1" Ucircumflex dx=0 dy=0 dh=-8 dv=0 dx=0 dy=0 dh=0 dv=0
PairPos2: "'kern' Horizontal Kerning in Latin lookup 0 per glyph data 1" Uacute dx=0 dy=0 dh=-8 dv=0 dx=0 dy=0 dh=0 dv=0
PairPos2: "'kern' Horizontal Kerning in Latin lookup 0 per glyph data 1" Ugrave dx=0 dy=0 dh=-8 dv=0 dx=0 dy=0 dh=0 dv=0
PairPos2: "'kern' Horizontal Kerning in Latin lookup 0 per glyph data 1" Odieresis dx=0 dy=0 dh=-29 dv=0 dx=0 dy=0 dh=0 dv=0
PairPos2: "'kern' Horizontal Kerning in Latin lookup 0 per glyph data 1" Otilde dx=0 dy=0 dh=-29 dv=0 dx=0 dy=0 dh=0 dv=0
PairPos2: "'kern' Horizontal Kerning in Latin lookup 0 per glyph data 1" Ocircumflex dx=0 dy=0 dh=-29 dv=0 dx=0 dy=0 dh=0 dv=0
PairPos2: "'kern' Horizontal Kerning in Latin lookup 0 per glyph data 1" Oacute dx=0 dy=0 dh=-29 dv=0 dx=0 dy=0 dh=0 dv=0
PairPos2: "'kern' Horizontal Kerning in Latin lookup 0 per glyph data 1" Ograve dx=0 dy=0 dh=-29 dv=0 dx=0 dy=0 dh=0 dv=0
PairPos2: "'kern' Horizontal Kerning in Latin lookup 0 per glyph data 1" Ntilde dx=0 dy=0 dh=-10 dv=0 dx=0 dy=0 dh=0 dv=0
PairPos2: "'kern' Horizontal Kerning in Latin lookup 0 per glyph data 1" Idieresis dx=0 dy=0 dh=-10 dv=0 dx=0 dy=0 dh=0 dv=0
PairPos2: "'kern' Horizontal Kerning in Latin lookup 0 per glyph data 1" Icircumflex dx=0 dy=0 dh=-10 dv=0 dx=0 dy=0 dh=0 dv=0
PairPos2: "'kern' Horizontal Kerning in Latin lookup 0 per glyph data 1" Iacute dx=0 dy=0 dh=-10 dv=0 dx=0 dy=0 dh=0 dv=0
PairPos2: "'kern' Horizontal Kerning in Latin lookup 0 per glyph data 1" Igrave dx=0 dy=0 dh=-10 dv=0 dx=0 dy=0 dh=0 dv=0
PairPos2: "'kern' Horizontal Kerning in Latin lookup 0 per glyph data 1" Edieresis dx=0 dy=0 dh=-10 dv=0 dx=0 dy=0 dh=0 dv=0
PairPos2: "'kern' Horizontal Kerning in Latin lookup 0 per glyph data 1" Ecircumflex dx=0 dy=0 dh=-10 dv=0 dx=0 dy=0 dh=0 dv=0
PairPos2: "'kern' Horizontal Kerning in Latin lookup 0 per glyph data 1" Eacute dx=0 dy=0 dh=-10 dv=0 dx=0 dy=0 dh=0 dv=0
PairPos2: "'kern' Horizontal Kerning in Latin lookup 0 per glyph data 1" Egrave dx=0 dy=0 dh=-10 dv=0 dx=0 dy=0 dh=0 dv=0
PairPos2: "'kern' Horizontal Kerning in Latin lookup 0 per glyph data 1" Ccedilla dx=0 dy=0 dh=-29 dv=0 dx=0 dy=0 dh=0 dv=0
PairPos2: "'kern' Horizontal Kerning in Latin lookup 0 per glyph data 1" AE dx=0 dy=0 dh=-85 dv=0 dx=0 dy=0 dh=0 dv=0
PairPos2: "'kern' Horizontal Kerning in Latin lookup 0 per glyph data 1" Aring dx=0 dy=0 dh=-85 dv=0 dx=0 dy=0 dh=0 dv=0
PairPos2: "'kern' Horizontal Kerning in Latin lookup 0 per glyph data 1" Adieresis dx=0 dy=0 dh=-85 dv=0 dx=0 dy=0 dh=0 dv=0
PairPos2: "'kern' Horizontal Kerning in Latin lookup 0 per glyph data 1" Atilde dx=0 dy=0 dh=-85 dv=0 dx=0 dy=0 dh=0 dv=0
PairPos2: "'kern' Horizontal Kerning in Latin lookup 0 per glyph data 1" Acircumflex dx=0 dy=0 dh=-85 dv=0 dx=0 dy=0 dh=0 dv=0
PairPos2: "'kern' Horizontal Kerning in Latin lookup 0 per glyph data 1" Aacute dx=0 dy=0 dh=-85 dv=0 dx=0 dy=0 dh=0 dv=0
PairPos2: "'kern' Horizontal Kerning in Latin lookup 0 per glyph data 1" Agrave dx=0 dy=0 dh=-85 dv=0 dx=0 dy=0 dh=0 dv=0
PairPos2: "'kern' Horizontal Kerning in Latin lookup 0 per glyph data 1" mu dx=0 dy=0 dh=-42 dv=0 dx=0 dy=0 dh=0 dv=0
PairPos2: "'kern' Horizontal Kerning in Latin lookup 0 per glyph data 1" brokenbar dx=0 dy=0 dh=-42 dv=0 dx=0 dy=0 dh=0 dv=0
PairPos2: "'kern' Horizontal Kerning in Latin lookup 0 per glyph data 1" cent dx=0 dy=0 dh=-117 dv=0 dx=0 dy=0 dh=0 dv=0
PairPos2: "'kern' Horizontal Kerning in Latin lookup 0 per glyph data 1" exclamdown dx=0 dy=0 dh=-42 dv=0 dx=0 dy=0 dh=0 dv=0
PairPos2: "'kern' Horizontal Kerning in Latin lookup 0 per glyph data 1" bar dx=0 dy=0 dh=-42 dv=0 dx=0 dy=0 dh=0 dv=0
PairPos2: "'kern' Horizontal Kerning in Latin lookup 0 per glyph data 1" s dx=0 dy=0 dh=-83 dv=0 dx=0 dy=0 dh=0 dv=0
PairPos2: "'kern' Horizontal Kerning in Latin lookup 0 per glyph data 1" r dx=0 dy=0 dh=-42 dv=0 dx=0 dy=0 dh=0 dv=0
PairPos2: "'kern' Horizontal Kerning in Latin lookup 0 per glyph data 1" q dx=0 dy=0 dh=-117 dv=0 dx=0 dy=0 dh=0 dv=0
PairPos2: "'kern' Horizontal Kerning in Latin lookup 0 per glyph data 1" p dx=0 dy=0 dh=-42 dv=0 dx=0 dy=0 dh=0 dv=0
PairPos2: "'kern' Horizontal Kerning in Latin lookup 0 per glyph data 1" o dx=0 dy=0 dh=-97 dv=0 dx=0 dy=0 dh=0 dv=0
PairPos2: "'kern' Horizontal Kerning in Latin lookup 0 per glyph data 1" n dx=0 dy=0 dh=-42 dv=0 dx=0 dy=0 dh=0 dv=0
PairPos2: "'kern' Horizontal Kerning in Latin lookup 0 per glyph data 1" m dx=0 dy=0 dh=-42 dv=0 dx=0 dy=0 dh=0 dv=0
PairPos2: "'kern' Horizontal Kerning in Latin lookup 0 per glyph data 1" l dx=0 dy=0 dh=-42 dv=0 dx=0 dy=0 dh=0 dv=0
PairPos2: "'kern' Horizontal Kerning in Latin lookup 0 per glyph data 1" k dx=0 dy=0 dh=-42 dv=0 dx=0 dy=0 dh=0 dv=0
PairPos2: "'kern' Horizontal Kerning in Latin lookup 0 per glyph data 1" j dx=0 dy=0 dh=-42 dv=0 dx=0 dy=0 dh=0 dv=0
PairPos2: "'kern' Horizontal Kerning in Latin lookup 0 per glyph data 1" i dx=0 dy=0 dh=-42 dv=0 dx=0 dy=0 dh=0 dv=0
PairPos2: "'kern' Horizontal Kerning in Latin lookup 0 per glyph data 1" h dx=0 dy=0 dh=-42 dv=0 dx=0 dy=0 dh=0 dv=0
PairPos2: "'kern' Horizontal Kerning in Latin lookup 0 per glyph data 1" f dx=0 dy=0 dh=-42 dv=0 dx=0 dy=0 dh=0 dv=0
PairPos2: "'kern' Horizontal Kerning in Latin lookup 0 per glyph data 1" e dx=0 dy=0 dh=-117 dv=0 dx=0 dy=0 dh=0 dv=0
PairPos2: "'kern' Horizontal Kerning in Latin lookup 0 per glyph data 1" d dx=0 dy=0 dh=-117 dv=0 dx=0 dy=0 dh=0 dv=0
PairPos2: "'kern' Horizontal Kerning in Latin lookup 0 per glyph data 1" c dx=0 dy=0 dh=-117 dv=0 dx=0 dy=0 dh=0 dv=0
PairPos2: "'kern' Horizontal Kerning in Latin lookup 0 per glyph data 1" b dx=0 dy=0 dh=-42 dv=0 dx=0 dy=0 dh=0 dv=0
PairPos2: "'kern' Horizontal Kerning in Latin lookup 0 per glyph data 1" a dx=0 dy=0 dh=-83 dv=0 dx=0 dy=0 dh=0 dv=0
PairPos2: "'kern' Horizontal Kerning in Latin lookup 0 per glyph data 1" bracketright dx=0 dy=0 dh=-42 dv=0 dx=0 dy=0 dh=0 dv=0
PairPos2: "'kern' Horizontal Kerning in Latin lookup 0 per glyph data 1" bracketleft dx=0 dy=0 dh=-42 dv=0 dx=0 dy=0 dh=0 dv=0
PairPos2: "'kern' Horizontal Kerning in Latin lookup 0 per glyph data 1" U dx=0 dy=0 dh=-8 dv=0 dx=0 dy=0 dh=0 dv=0
PairPos2: "'kern' Horizontal Kerning in Latin lookup 0 per glyph data 1" S dx=0 dy=0 dh=-15 dv=0 dx=0 dy=0 dh=0 dv=0
PairPos2: "'kern' Horizontal Kerning in Latin lookup 0 per glyph data 1" R dx=0 dy=0 dh=-10 dv=0 dx=0 dy=0 dh=0 dv=0
PairPos2: "'kern' Horizontal Kerning in Latin lookup 0 per glyph data 1" Q dx=0 dy=0 dh=-29 dv=0 dx=0 dy=0 dh=0 dv=0
PairPos2: "'kern' Horizontal Kerning in Latin lookup 0 per glyph data 1" P dx=0 dy=0 dh=-10 dv=0 dx=0 dy=0 dh=0 dv=0
PairPos2: "'kern' Horizontal Kerning in Latin lookup 0 per glyph data 1" O dx=0 dy=0 dh=-29 dv=0 dx=0 dy=0 dh=0 dv=0
PairPos2: "'kern' Horizontal Kerning in Latin lookup 0 per glyph data 1" N dx=0 dy=0 dh=-10 dv=0 dx=0 dy=0 dh=0 dv=0
PairPos2: "'kern' Horizontal Kerning in Latin lookup 0 per glyph data 1" M dx=0 dy=0 dh=-10 dv=0 dx=0 dy=0 dh=0 dv=0
PairPos2: "'kern' Horizontal Kerning in Latin lookup 0 per glyph data 1" L dx=0 dy=0 dh=-10 dv=0 dx=0 dy=0 dh=0 dv=0
PairPos2: "'kern' Horizontal Kerning in Latin lookup 0 per glyph data 1" K dx=0 dy=0 dh=-10 dv=0 dx=0 dy=0 dh=0 dv=0
PairPos2: "'kern' Horizontal Kerning in Latin lookup 0 per glyph data 1" J dx=0 dy=0 dh=-10 dv=0 dx=0 dy=0 dh=0 dv=0
PairPos2: "'kern' Horizontal Kerning in Latin lookup 0 per glyph data 1" I dx=0 dy=0 dh=-10 dv=0 dx=0 dy=0 dh=0 dv=0
PairPos2: "'kern' Horizontal Kerning in Latin lookup 0 per glyph data 1" H dx=0 dy=0 dh=-10 dv=0 dx=0 dy=0 dh=0 dv=0
PairPos2: "'kern' Horizontal Kerning in Latin lookup 0 per glyph data 1" G dx=0 dy=0 dh=-29 dv=0 dx=0 dy=0 dh=0 dv=0
PairPos2: "'kern' Horizontal Kerning in Latin lookup 0 per glyph data 1" F dx=0 dy=0 dh=-10 dv=0 dx=0 dy=0 dh=0 dv=0
PairPos2: "'kern' Horizontal Kerning in Latin lookup 0 per glyph data 1" E dx=0 dy=0 dh=-10 dv=0 dx=0 dy=0 dh=0 dv=0
PairPos2: "'kern' Horizontal Kerning in Latin lookup 0 per glyph data 1" D dx=0 dy=0 dh=-10 dv=0 dx=0 dy=0 dh=0 dv=0
PairPos2: "'kern' Horizontal Kerning in Latin lookup 0 per glyph data 1" C dx=0 dy=0 dh=-29 dv=0 dx=0 dy=0 dh=0 dv=0
PairPos2: "'kern' Horizontal Kerning in Latin lookup 0 per glyph data 1" B dx=0 dy=0 dh=-10 dv=0 dx=0 dy=0 dh=0 dv=0
PairPos2: "'kern' Horizontal Kerning in Latin lookup 0 per glyph data 1" A dx=0 dy=0 dh=-85 dv=0 dx=0 dy=0 dh=0 dv=0
PairPos2: "'kern' Horizontal Kerning in Latin lookup 0 per glyph data 1" one dx=0 dy=0 dh=-42 dv=0 dx=0 dy=0 dh=0 dv=0
PairPos2: "'kern' Horizontal Kerning in Latin lookup 0 per glyph data 1" parenright dx=0 dy=0 dh=-42 dv=0 dx=0 dy=0 dh=0 dv=0
PairPos2: "'kern' Horizontal Kerning in Latin lookup 0 per glyph data 1" parenleft dx=0 dy=0 dh=-42 dv=0 dx=0 dy=0 dh=0 dv=0
PairPos2: "'kern' Horizontal Kerning in Latin lookup 0 per glyph data 1" exclam dx=0 dy=0 dh=-42 dv=0 dx=0 dy=0 dh=0 dv=0
EndChar

StartChar: W
Encoding: 87 87 58
Width: 923
GlyphClass: 2
Flags: W
LayerCount: 2
Fore
SplineSet
637 98 m 1,0,-1
 803 700 l 1,1,-1
 868 700 l 1,2,-1
 663 0 l 1,3,-1
 602 0 l 1,4,-1
 451 596 l 1,5,-1
 286 0 l 1,6,-1
 224 0 l 1,7,-1
 45 700 l 1,8,-1
 108 700 l 1,9,-1
 260 101 l 1,10,-1
 425 700 l 1,11,-1
 481 700 l 1,12,-1
 637 98 l 1,0,-1
EndSplineSet
EndChar

StartChar: X
Encoding: 88 88 59
Width: 613
GlyphClass: 2
Flags: W
LayerCount: 2
Fore
SplineSet
297 322 m 1,0,-1
 113 0 l 1,1,-1
 43 0 l 1,2,-1
 266 373 l 1,3,-1
 60 700 l 1,4,-1
 138 700 l 1,5,-1
 310 414 l 1,6,-1
 474 700 l 1,7,-1
 544 700 l 1,8,-1
 341 363 l 1,9,-1
 570 0 l 1,10,-1
 492 0 l 1,11,-1
 297 322 l 1,0,-1
EndSplineSet
EndChar

StartChar: Y
Encoding: 89 89 60
Width: 656
GlyphClass: 2
Flags: W
LayerCount: 2
Fore
SplineSet
334 291 m 1,0,-1
 541 700 l 1,1,-1
 611 700 l 1,2,-1
 366 235 l 1,3,-1
 366 0 l 1,4,-1
 303 0 l 1,5,-1
 303 236 l 1,6,-1
 45 700 l 1,7,-1
 118 700 l 1,8,-1
 334 291 l 1,0,-1
EndSplineSet
EndChar

StartChar: Z
Encoding: 90 90 61
Width: 592
GlyphClass: 2
Flags: W
LayerCount: 2
Fore
SplineSet
61 700 m 1,0,-1
 501 700 l 1,1,-1
 511 645 l 1,2,-1
 117 55 l 1,3,-1
 544 55 l 1,4,-1
 552 0 l 1,5,-1
 50 0 l 1,6,-1
 40 55 l 1,7,-1
 433 645 l 1,8,-1
 62 645 l 1,9,-1
 61 700 l 1,0,-1
EndSplineSet
PairPos2: "'kern' Horizontal Kerning in Latin lookup 0 per glyph data 1" Ydieresis dx=0 dy=0 dh=-22 dv=0 dx=0 dy=0 dh=0 dv=0
PairPos2: "'kern' Horizontal Kerning in Latin lookup 0 per glyph data 1" oe dx=0 dy=0 dh=-49 dv=0 dx=0 dy=0 dh=0 dv=0
PairPos2: "'kern' Horizontal Kerning in Latin lookup 0 per glyph data 1" OE dx=0 dy=0 dh=-36 dv=0 dx=0 dy=0 dh=0 dv=0
PairPos2: "'kern' Horizontal Kerning in Latin lookup 0 per glyph data 1" dotlessi dx=0 dy=0 dh=-10 dv=0 dx=0 dy=0 dh=0 dv=0
PairPos2: "'kern' Horizontal Kerning in Latin lookup 0 per glyph data 1" ydieresis dx=0 dy=0 dh=-42 dv=0 dx=0 dy=0 dh=0 dv=0
PairPos2: "'kern' Horizontal Kerning in Latin lookup 0 per glyph data 1" thorn dx=0 dy=0 dh=-10 dv=0 dx=0 dy=0 dh=0 dv=0
PairPos2: "'kern' Horizontal Kerning in Latin lookup 0 per glyph data 1" yacute dx=0 dy=0 dh=-42 dv=0 dx=0 dy=0 dh=0 dv=0
PairPos2: "'kern' Horizontal Kerning in Latin lookup 0 per glyph data 1" udieresis dx=0 dy=0 dh=-20 dv=0 dx=0 dy=0 dh=0 dv=0
PairPos2: "'kern' Horizontal Kerning in Latin lookup 0 per glyph data 1" ucircumflex dx=0 dy=0 dh=-20 dv=0 dx=0 dy=0 dh=0 dv=0
PairPos2: "'kern' Horizontal Kerning in Latin lookup 0 per glyph data 1" uacute dx=0 dy=0 dh=-20 dv=0 dx=0 dy=0 dh=0 dv=0
PairPos2: "'kern' Horizontal Kerning in Latin lookup 0 per glyph data 1" ugrave dx=0 dy=0 dh=-20 dv=0 dx=0 dy=0 dh=0 dv=0
PairPos2: "'kern' Horizontal Kerning in Latin lookup 0 per glyph data 1" odieresis dx=0 dy=0 dh=-49 dv=0 dx=0 dy=0 dh=0 dv=0
PairPos2: "'kern' Horizontal Kerning in Latin lookup 0 per glyph data 1" otilde dx=0 dy=0 dh=-49 dv=0 dx=0 dy=0 dh=0 dv=0
PairPos2: "'kern' Horizontal Kerning in Latin lookup 0 per glyph data 1" ocircumflex dx=0 dy=0 dh=-49 dv=0 dx=0 dy=0 dh=0 dv=0
PairPos2: "'kern' Horizontal Kerning in Latin lookup 0 per glyph data 1" oacute dx=0 dy=0 dh=-49 dv=0 dx=0 dy=0 dh=0 dv=0
PairPos2: "'kern' Horizontal Kerning in Latin lookup 0 per glyph data 1" ograve dx=0 dy=0 dh=-49 dv=0 dx=0 dy=0 dh=0 dv=0
PairPos2: "'kern' Horizontal Kerning in Latin lookup 0 per glyph data 1" ntilde dx=0 dy=0 dh=-10 dv=0 dx=0 dy=0 dh=0 dv=0
PairPos2: "'kern' Horizontal Kerning in Latin lookup 0 per glyph data 1" eth dx=0 dy=0 dh=-49 dv=0 dx=0 dy=0 dh=0 dv=0
PairPos2: "'kern' Horizontal Kerning in Latin lookup 0 per glyph data 1" idieresis dx=0 dy=0 dh=-10 dv=0 dx=0 dy=0 dh=0 dv=0
PairPos2: "'kern' Horizontal Kerning in Latin lookup 0 per glyph data 1" icircumflex dx=0 dy=0 dh=-10 dv=0 dx=0 dy=0 dh=0 dv=0
PairPos2: "'kern' Horizontal Kerning in Latin lookup 0 per glyph data 1" iacute dx=0 dy=0 dh=-10 dv=0 dx=0 dy=0 dh=0 dv=0
PairPos2: "'kern' Horizontal Kerning in Latin lookup 0 per glyph data 1" igrave dx=0 dy=0 dh=-10 dv=0 dx=0 dy=0 dh=0 dv=0
PairPos2: "'kern' Horizontal Kerning in Latin lookup 0 per glyph data 1" edieresis dx=0 dy=0 dh=-48 dv=0 dx=0 dy=0 dh=0 dv=0
PairPos2: "'kern' Horizontal Kerning in Latin lookup 0 per glyph data 1" ecircumflex dx=0 dy=0 dh=-48 dv=0 dx=0 dy=0 dh=0 dv=0
PairPos2: "'kern' Horizontal Kerning in Latin lookup 0 per glyph data 1" eacute dx=0 dy=0 dh=-48 dv=0 dx=0 dy=0 dh=0 dv=0
PairPos2: "'kern' Horizontal Kerning in Latin lookup 0 per glyph data 1" egrave dx=0 dy=0 dh=-48 dv=0 dx=0 dy=0 dh=0 dv=0
PairPos2: "'kern' Horizontal Kerning in Latin lookup 0 per glyph data 1" ccedilla dx=0 dy=0 dh=-48 dv=0 dx=0 dy=0 dh=0 dv=0
PairPos2: "'kern' Horizontal Kerning in Latin lookup 0 per glyph data 1" aring dx=0 dy=0 dh=-8 dv=0 dx=0 dy=0 dh=0 dv=0
PairPos2: "'kern' Horizontal Kerning in Latin lookup 0 per glyph data 1" adieresis dx=0 dy=0 dh=-8 dv=0 dx=0 dy=0 dh=0 dv=0
PairPos2: "'kern' Horizontal Kerning in Latin lookup 0 per glyph data 1" atilde dx=0 dy=0 dh=-8 dv=0 dx=0 dy=0 dh=0 dv=0
PairPos2: "'kern' Horizontal Kerning in Latin lookup 0 per glyph data 1" acircumflex dx=0 dy=0 dh=-8 dv=0 dx=0 dy=0 dh=0 dv=0
PairPos2: "'kern' Horizontal Kerning in Latin lookup 0 per glyph data 1" aacute dx=0 dy=0 dh=-8 dv=0 dx=0 dy=0 dh=0 dv=0
PairPos2: "'kern' Horizontal Kerning in Latin lookup 0 per glyph data 1" agrave dx=0 dy=0 dh=-8 dv=0 dx=0 dy=0 dh=0 dv=0
PairPos2: "'kern' Horizontal Kerning in Latin lookup 0 per glyph data 1" germandbls dx=0 dy=0 dh=-10 dv=0 dx=0 dy=0 dh=0 dv=0
PairPos2: "'kern' Horizontal Kerning in Latin lookup 0 per glyph data 1" Thorn dx=0 dy=0 dh=-15 dv=0 dx=0 dy=0 dh=0 dv=0
PairPos2: "'kern' Horizontal Kerning in Latin lookup 0 per glyph data 1" Yacute dx=0 dy=0 dh=-22 dv=0 dx=0 dy=0 dh=0 dv=0
PairPos2: "'kern' Horizontal Kerning in Latin lookup 0 per glyph data 1" Udieresis dx=0 dy=0 dh=-29 dv=0 dx=0 dy=0 dh=0 dv=0
PairPos2: "'kern' Horizontal Kerning in Latin lookup 0 per glyph data 1" Ucircumflex dx=0 dy=0 dh=-29 dv=0 dx=0 dy=0 dh=0 dv=0
PairPos2: "'kern' Horizontal Kerning in Latin lookup 0 per glyph data 1" Uacute dx=0 dy=0 dh=-29 dv=0 dx=0 dy=0 dh=0 dv=0
PairPos2: "'kern' Horizontal Kerning in Latin lookup 0 per glyph data 1" Ugrave dx=0 dy=0 dh=-29 dv=0 dx=0 dy=0 dh=0 dv=0
PairPos2: "'kern' Horizontal Kerning in Latin lookup 0 per glyph data 1" Odieresis dx=0 dy=0 dh=-36 dv=0 dx=0 dy=0 dh=0 dv=0
PairPos2: "'kern' Horizontal Kerning in Latin lookup 0 per glyph data 1" Otilde dx=0 dy=0 dh=-36 dv=0 dx=0 dy=0 dh=0 dv=0
PairPos2: "'kern' Horizontal Kerning in Latin lookup 0 per glyph data 1" Ocircumflex dx=0 dy=0 dh=-36 dv=0 dx=0 dy=0 dh=0 dv=0
PairPos2: "'kern' Horizontal Kerning in Latin lookup 0 per glyph data 1" Oacute dx=0 dy=0 dh=-36 dv=0 dx=0 dy=0 dh=0 dv=0
PairPos2: "'kern' Horizontal Kerning in Latin lookup 0 per glyph data 1" Ograve dx=0 dy=0 dh=-36 dv=0 dx=0 dy=0 dh=0 dv=0
PairPos2: "'kern' Horizontal Kerning in Latin lookup 0 per glyph data 1" Ntilde dx=0 dy=0 dh=-15 dv=0 dx=0 dy=0 dh=0 dv=0
PairPos2: "'kern' Horizontal Kerning in Latin lookup 0 per glyph data 1" Idieresis dx=0 dy=0 dh=-15 dv=0 dx=0 dy=0 dh=0 dv=0
PairPos2: "'kern' Horizontal Kerning in Latin lookup 0 per glyph data 1" Icircumflex dx=0 dy=0 dh=-15 dv=0 dx=0 dy=0 dh=0 dv=0
PairPos2: "'kern' Horizontal Kerning in Latin lookup 0 per glyph data 1" Iacute dx=0 dy=0 dh=-15 dv=0 dx=0 dy=0 dh=0 dv=0
PairPos2: "'kern' Horizontal Kerning in Latin lookup 0 per glyph data 1" Igrave dx=0 dy=0 dh=-15 dv=0 dx=0 dy=0 dh=0 dv=0
PairPos2: "'kern' Horizontal Kerning in Latin lookup 0 per glyph data 1" Edieresis dx=0 dy=0 dh=-15 dv=0 dx=0 dy=0 dh=0 dv=0
PairPos2: "'kern' Horizontal Kerning in Latin lookup 0 per glyph data 1" Ecircumflex dx=0 dy=0 dh=-15 dv=0 dx=0 dy=0 dh=0 dv=0
PairPos2: "'kern' Horizontal Kerning in Latin lookup 0 per glyph data 1" Eacute dx=0 dy=0 dh=-15 dv=0 dx=0 dy=0 dh=0 dv=0
PairPos2: "'kern' Horizontal Kerning in Latin lookup 0 per glyph data 1" Egrave dx=0 dy=0 dh=-15 dv=0 dx=0 dy=0 dh=0 dv=0
PairPos2: "'kern' Horizontal Kerning in Latin lookup 0 per glyph data 1" Ccedilla dx=0 dy=0 dh=-36 dv=0 dx=0 dy=0 dh=0 dv=0
PairPos2: "'kern' Horizontal Kerning in Latin lookup 0 per glyph data 1" AE dx=0 dy=0 dh=-5 dv=0 dx=0 dy=0 dh=0 dv=0
PairPos2: "'kern' Horizontal Kerning in Latin lookup 0 per glyph data 1" Aring dx=0 dy=0 dh=-5 dv=0 dx=0 dy=0 dh=0 dv=0
PairPos2: "'kern' Horizontal Kerning in Latin lookup 0 per glyph data 1" Adieresis dx=0 dy=0 dh=-5 dv=0 dx=0 dy=0 dh=0 dv=0
PairPos2: "'kern' Horizontal Kerning in Latin lookup 0 per glyph data 1" Atilde dx=0 dy=0 dh=-5 dv=0 dx=0 dy=0 dh=0 dv=0
PairPos2: "'kern' Horizontal Kerning in Latin lookup 0 per glyph data 1" Acircumflex dx=0 dy=0 dh=-5 dv=0 dx=0 dy=0 dh=0 dv=0
PairPos2: "'kern' Horizontal Kerning in Latin lookup 0 per glyph data 1" Aacute dx=0 dy=0 dh=-5 dv=0 dx=0 dy=0 dh=0 dv=0
PairPos2: "'kern' Horizontal Kerning in Latin lookup 0 per glyph data 1" Agrave dx=0 dy=0 dh=-5 dv=0 dx=0 dy=0 dh=0 dv=0
PairPos2: "'kern' Horizontal Kerning in Latin lookup 0 per glyph data 1" mu dx=0 dy=0 dh=-10 dv=0 dx=0 dy=0 dh=0 dv=0
PairPos2: "'kern' Horizontal Kerning in Latin lookup 0 per glyph data 1" brokenbar dx=0 dy=0 dh=-10 dv=0 dx=0 dy=0 dh=0 dv=0
PairPos2: "'kern' Horizontal Kerning in Latin lookup 0 per glyph data 1" cent dx=0 dy=0 dh=-48 dv=0 dx=0 dy=0 dh=0 dv=0
PairPos2: "'kern' Horizontal Kerning in Latin lookup 0 per glyph data 1" exclamdown dx=0 dy=0 dh=-10 dv=0 dx=0 dy=0 dh=0 dv=0
PairPos2: "'kern' Horizontal Kerning in Latin lookup 0 per glyph data 1" bar dx=0 dy=0 dh=-10 dv=0 dx=0 dy=0 dh=0 dv=0
PairPos2: "'kern' Horizontal Kerning in Latin lookup 0 per glyph data 1" y dx=0 dy=0 dh=-42 dv=0 dx=0 dy=0 dh=0 dv=0
PairPos2: "'kern' Horizontal Kerning in Latin lookup 0 per glyph data 1" w dx=0 dy=0 dh=-52 dv=0 dx=0 dy=0 dh=0 dv=0
PairPos2: "'kern' Horizontal Kerning in Latin lookup 0 per glyph data 1" u dx=0 dy=0 dh=-20 dv=0 dx=0 dy=0 dh=0 dv=0
PairPos2: "'kern' Horizontal Kerning in Latin lookup 0 per glyph data 1" t dx=0 dy=0 dh=-20 dv=0 dx=0 dy=0 dh=0 dv=0
PairPos2: "'kern' Horizontal Kerning in Latin lookup 0 per glyph data 1" r dx=0 dy=0 dh=-10 dv=0 dx=0 dy=0 dh=0 dv=0
PairPos2: "'kern' Horizontal Kerning in Latin lookup 0 per glyph data 1" q dx=0 dy=0 dh=-48 dv=0 dx=0 dy=0 dh=0 dv=0
PairPos2: "'kern' Horizontal Kerning in Latin lookup 0 per glyph data 1" p dx=0 dy=0 dh=-10 dv=0 dx=0 dy=0 dh=0 dv=0
PairPos2: "'kern' Horizontal Kerning in Latin lookup 0 per glyph data 1" o dx=0 dy=0 dh=-49 dv=0 dx=0 dy=0 dh=0 dv=0
PairPos2: "'kern' Horizontal Kerning in Latin lookup 0 per glyph data 1" n dx=0 dy=0 dh=-10 dv=0 dx=0 dy=0 dh=0 dv=0
PairPos2: "'kern' Horizontal Kerning in Latin lookup 0 per glyph data 1" m dx=0 dy=0 dh=-10 dv=0 dx=0 dy=0 dh=0 dv=0
PairPos2: "'kern' Horizontal Kerning in Latin lookup 0 per glyph data 1" l dx=0 dy=0 dh=-10 dv=0 dx=0 dy=0 dh=0 dv=0
PairPos2: "'kern' Horizontal Kerning in Latin lookup 0 per glyph data 1" k dx=0 dy=0 dh=-10 dv=0 dx=0 dy=0 dh=0 dv=0
PairPos2: "'kern' Horizontal Kerning in Latin lookup 0 per glyph data 1" j dx=0 dy=0 dh=-10 dv=0 dx=0 dy=0 dh=0 dv=0
PairPos2: "'kern' Horizontal Kerning in Latin lookup 0 per glyph data 1" i dx=0 dy=0 dh=-10 dv=0 dx=0 dy=0 dh=0 dv=0
PairPos2: "'kern' Horizontal Kerning in Latin lookup 0 per glyph data 1" h dx=0 dy=0 dh=-10 dv=0 dx=0 dy=0 dh=0 dv=0
PairPos2: "'kern' Horizontal Kerning in Latin lookup 0 per glyph data 1" f dx=0 dy=0 dh=-10 dv=0 dx=0 dy=0 dh=0 dv=0
PairPos2: "'kern' Horizontal Kerning in Latin lookup 0 per glyph data 1" e dx=0 dy=0 dh=-48 dv=0 dx=0 dy=0 dh=0 dv=0
PairPos2: "'kern' Horizontal Kerning in Latin lookup 0 per glyph data 1" d dx=0 dy=0 dh=-48 dv=0 dx=0 dy=0 dh=0 dv=0
PairPos2: "'kern' Horizontal Kerning in Latin lookup 0 per glyph data 1" c dx=0 dy=0 dh=-48 dv=0 dx=0 dy=0 dh=0 dv=0
PairPos2: "'kern' Horizontal Kerning in Latin lookup 0 per glyph data 1" b dx=0 dy=0 dh=-10 dv=0 dx=0 dy=0 dh=0 dv=0
PairPos2: "'kern' Horizontal Kerning in Latin lookup 0 per glyph data 1" a dx=0 dy=0 dh=-8 dv=0 dx=0 dy=0 dh=0 dv=0
PairPos2: "'kern' Horizontal Kerning in Latin lookup 0 per glyph data 1" bracketright dx=0 dy=0 dh=-10 dv=0 dx=0 dy=0 dh=0 dv=0
PairPos2: "'kern' Horizontal Kerning in Latin lookup 0 per glyph data 1" bracketleft dx=0 dy=0 dh=-10 dv=0 dx=0 dy=0 dh=0 dv=0
PairPos2: "'kern' Horizontal Kerning in Latin lookup 0 per glyph data 1" Y dx=0 dy=0 dh=-22 dv=0 dx=0 dy=0 dh=0 dv=0
PairPos2: "'kern' Horizontal Kerning in Latin lookup 0 per glyph data 1" W dx=0 dy=0 dh=-20 dv=0 dx=0 dy=0 dh=0 dv=0
PairPos2: "'kern' Horizontal Kerning in Latin lookup 0 per glyph data 1" U dx=0 dy=0 dh=-29 dv=0 dx=0 dy=0 dh=0 dv=0
PairPos2: "'kern' Horizontal Kerning in Latin lookup 0 per glyph data 1" T dx=0 dy=0 dh=-15 dv=0 dx=0 dy=0 dh=0 dv=0
PairPos2: "'kern' Horizontal Kerning in Latin lookup 0 per glyph data 1" R dx=0 dy=0 dh=-15 dv=0 dx=0 dy=0 dh=0 dv=0
PairPos2: "'kern' Horizontal Kerning in Latin lookup 0 per glyph data 1" Q dx=0 dy=0 dh=-36 dv=0 dx=0 dy=0 dh=0 dv=0
PairPos2: "'kern' Horizontal Kerning in Latin lookup 0 per glyph data 1" P dx=0 dy=0 dh=-15 dv=0 dx=0 dy=0 dh=0 dv=0
PairPos2: "'kern' Horizontal Kerning in Latin lookup 0 per glyph data 1" O dx=0 dy=0 dh=-36 dv=0 dx=0 dy=0 dh=0 dv=0
PairPos2: "'kern' Horizontal Kerning in Latin lookup 0 per glyph data 1" N dx=0 dy=0 dh=-15 dv=0 dx=0 dy=0 dh=0 dv=0
PairPos2: "'kern' Horizontal Kerning in Latin lookup 0 per glyph data 1" M dx=0 dy=0 dh=-15 dv=0 dx=0 dy=0 dh=0 dv=0
PairPos2: "'kern' Horizontal Kerning in Latin lookup 0 per glyph data 1" L dx=0 dy=0 dh=-15 dv=0 dx=0 dy=0 dh=0 dv=0
PairPos2: "'kern' Horizontal Kerning in Latin lookup 0 per glyph data 1" K dx=0 dy=0 dh=-15 dv=0 dx=0 dy=0 dh=0 dv=0
PairPos2: "'kern' Horizontal Kerning in Latin lookup 0 per glyph data 1" J dx=0 dy=0 dh=-15 dv=0 dx=0 dy=0 dh=0 dv=0
PairPos2: "'kern' Horizontal Kerning in Latin lookup 0 per glyph data 1" I dx=0 dy=0 dh=-15 dv=0 dx=0 dy=0 dh=0 dv=0
PairPos2: "'kern' Horizontal Kerning in Latin lookup 0 per glyph data 1" H dx=0 dy=0 dh=-15 dv=0 dx=0 dy=0 dh=0 dv=0
PairPos2: "'kern' Horizontal Kerning in Latin lookup 0 per glyph data 1" G dx=0 dy=0 dh=-36 dv=0 dx=0 dy=0 dh=0 dv=0
PairPos2: "'kern' Horizontal Kerning in Latin lookup 0 per glyph data 1" F dx=0 dy=0 dh=-15 dv=0 dx=0 dy=0 dh=0 dv=0
PairPos2: "'kern' Horizontal Kerning in Latin lookup 0 per glyph data 1" E dx=0 dy=0 dh=-15 dv=0 dx=0 dy=0 dh=0 dv=0
PairPos2: "'kern' Horizontal Kerning in Latin lookup 0 per glyph data 1" D dx=0 dy=0 dh=-15 dv=0 dx=0 dy=0 dh=0 dv=0
PairPos2: "'kern' Horizontal Kerning in Latin lookup 0 per glyph data 1" C dx=0 dy=0 dh=-36 dv=0 dx=0 dy=0 dh=0 dv=0
PairPos2: "'kern' Horizontal Kerning in Latin lookup 0 per glyph data 1" B dx=0 dy=0 dh=-15 dv=0 dx=0 dy=0 dh=0 dv=0
PairPos2: "'kern' Horizontal Kerning in Latin lookup 0 per glyph data 1" A dx=0 dy=0 dh=-5 dv=0 dx=0 dy=0 dh=0 dv=0
PairPos2: "'kern' Horizontal Kerning in Latin lookup 0 per glyph data 1" one dx=0 dy=0 dh=-10 dv=0 dx=0 dy=0 dh=0 dv=0
PairPos2: "'kern' Horizontal Kerning in Latin lookup 0 per glyph data 1" parenright dx=0 dy=0 dh=-10 dv=0 dx=0 dy=0 dh=0 dv=0
PairPos2: "'kern' Horizontal Kerning in Latin lookup 0 per glyph data 1" parenleft dx=0 dy=0 dh=-10 dv=0 dx=0 dy=0 dh=0 dv=0
PairPos2: "'kern' Horizontal Kerning in Latin lookup 0 per glyph data 1" exclam dx=0 dy=0 dh=-10 dv=0 dx=0 dy=0 dh=0 dv=0
EndChar

StartChar: bracketleft
Encoding: 91 91 62
Width: 430
GlyphClass: 2
Flags: W
LayerCount: 2
Fore
SplineSet
138 -200 m 1,0,-1
 107 -200 l 1,1,-1
 107 750 l 1,2,-1
 172 750 l 1,3,-1
 172 749 l 1,4,-1
 300 749 l 1,5,-1
 300 691 l 1,6,-1
 172 691 l 1,7,-1
 172 -143 l 1,8,-1
 300 -143 l 1,9,-1
 300 -201 l 1,10,-1
 138 -201 l 1,11,-1
 138 -200 l 1,0,-1
EndSplineSet
EndChar

StartChar: backslash
Encoding: 92 92 63
Width: 600
GlyphClass: 2
Flags: W
LayerCount: 2
Fore
SplineSet
425 -200 m 1,0,-1
 107 749 l 1,1,-1
 177 749 l 1,2,-1
 495 -200 l 1,3,-1
 425 -200 l 1,0,-1
EndSplineSet
EndChar

StartChar: bracketright
Encoding: 93 93 64
Width: 430
GlyphClass: 2
Flags: W
LayerCount: 2
Fore
SplineSet
269 -201 m 1,0,-1
 107 -201 l 1,1,-1
 107 -143 l 1,2,-1
 235 -143 l 1,3,-1
 235 691 l 1,4,-1
 107 691 l 1,5,-1
 107 749 l 1,6,-1
 235 749 l 1,7,-1
 235 750 l 1,8,-1
 300 750 l 1,9,-1
 300 -200 l 1,10,-1
 269 -200 l 1,11,-1
 269 -201 l 1,0,-1
EndSplineSet
EndChar

StartChar: asciicircum
Encoding: 94 94 65
Width: 560
GlyphClass: 2
Flags: W
LayerCount: 2
Fore
SplineSet
374 300 m 1,0,1
 369 307 369 307 356 323.5 c 128,-1,2
 343 340 343 340 327.5 358.5 c 128,-1,3
 312 377 312 377 296 396 c 128,-1,4
 280 415 280 415 270 429 c 1,5,6
 259 415 259 415 244 396 c 128,-1,7
 229 377 229 377 213.5 358.5 c 128,-1,8
 198 340 198 340 185.5 323.5 c 128,-1,9
 173 307 173 307 168 300 c 1,10,-1
 136 305 l 1,11,12
 144 315 144 315 163 337.5 c 128,-1,13
 182 360 182 360 203 384 c 128,-1,14
 224 408 224 408 243 430 c 128,-1,15
 262 452 262 452 270 463 c 1,16,17
 278 452 278 452 297.5 430 c 128,-1,18
 317 408 317 408 338 384 c 128,-1,19
 359 360 359 360 378.5 337.5 c 128,-1,20
 398 315 398 315 406 305 c 1,21,-1
 374 300 l 1,0,1
EndSplineSet
EndChar

StartChar: underscore
Encoding: 95 95 66
Width: 500
GlyphClass: 2
Flags: W
LayerCount: 2
Fore
SplineSet
433 58 m 1,0,-1
 433 0 l 1,1,-1
 79 0 l 1,2,-1
 79 58 l 1,3,-1
 433 58 l 1,0,-1
EndSplineSet
EndChar

StartChar: grave
Encoding: 96 96 67
Width: 299
GlyphClass: 2
Flags: W
LayerCount: 2
Fore
SplineSet
189 595 m 1,0,-1
 71 743 l 1,1,-1
 131 750 l 1,2,-1
 235 603 l 1,3,-1
 189 595 l 1,0,-1
EndSplineSet
EndChar

StartChar: a
Encoding: 97 97 68
Width: 462
GlyphClass: 2
Flags: W
LayerCount: 2
Fore
SplineSet
357 0 m 1,0,-1
 357 38 l 1,1,2
 325 23 325 23 280 9.5 c 128,-1,3
 235 -4 235 -4 182 -4 c 0,4,5
 154 -4 154 -4 129.5 1.5 c 128,-1,6
 105 7 105 7 86 19 c 128,-1,7
 67 31 67 31 55 51 c 128,-1,8
 43 71 43 71 41 101 c 1,9,10
 38 130 38 130 46.5 151.5 c 128,-1,11
 55 173 55 173 69.5 188 c 128,-1,12
 84 203 84 203 103 212.5 c 128,-1,13
 122 222 122 222 141 227 c 0,14,15
 174 235 174 235 230 241 c 128,-1,16
 286 247 286 247 357 252 c 1,17,-1
 357 336 l 2,18,19
 357 376 357 376 343 398.5 c 128,-1,20
 329 421 329 421 310 431 c 128,-1,21
 291 441 291 441 272 443 c 128,-1,22
 253 445 253 445 243 445 c 0,23,24
 213 445 213 445 183.5 438.5 c 128,-1,25
 154 432 154 432 130 423.5 c 128,-1,26
 106 415 106 415 89.5 407.5 c 128,-1,27
 73 400 73 400 69 398 c 1,28,-1
 51 446 l 1,29,30
 57 449 57 449 76 457.5 c 128,-1,31
 95 466 95 466 121 476 c 128,-1,32
 147 486 147 486 178.5 494 c 128,-1,33
 210 502 210 502 242 503 c 0,34,35
 258 503 258 503 288 500.5 c 128,-1,36
 318 498 318 498 348 484 c 128,-1,37
 378 470 378 470 400 440.5 c 128,-1,38
 422 411 422 411 422 358 c 2,39,-1
 422 0 l 1,40,-1
 357 0 l 1,0,-1
200 42 m 0,41,42
 240 42 240 42 282.5 52 c 128,-1,43
 325 62 325 62 357 76 c 1,44,-1
 357 219 l 1,45,46
 336 216 336 216 308.5 212 c 128,-1,47
 281 208 281 208 253.5 203.5 c 128,-1,48
 226 199 226 199 202 194 c 128,-1,49
 178 189 178 189 163 184 c 0,50,51
 127 173 127 173 112 150.5 c 128,-1,52
 97 128 97 128 102 101 c 0,53,54
 105 83 105 83 114 72 c 128,-1,55
 123 61 123 61 136.5 54 c 128,-1,56
 150 47 150 47 166.5 44.5 c 128,-1,57
 183 42 183 42 200 42 c 0,41,42
EndSplineSet
EndChar

StartChar: b
Encoding: 98 98 69
Width: 508
GlyphClass: 2
Flags: W
LayerCount: 2
Fore
SplineSet
60 745 m 1,0,-1
 125 750 l 1,1,-1
 125 460 l 1,2,3
 149 480 149 480 181.5 494.5 c 128,-1,4
 214 509 214 509 259 509 c 0,5,6
 287 509 287 509 322 500.5 c 128,-1,7
 357 492 357 492 387 467 c 128,-1,8
 417 442 417 442 437.5 396 c 128,-1,9
 458 350 458 350 458 276 c 0,10,11
 458 204 458 204 438 153 c 128,-1,12
 418 102 418 102 385.5 69.5 c 128,-1,13
 353 37 353 37 312.5 20.5 c 128,-1,14
 272 4 272 4 231 1 c 0,15,16
 207 -1 207 -1 180.5 0.5 c 128,-1,17
 154 2 154 2 130 5 c 128,-1,18
 106 8 106 8 87 13 c 128,-1,19
 68 18 68 18 60 23 c 1,20,-1
 60 745 l 1,0,-1
242 451 m 0,21,22
 208 451 208 451 178 443 c 128,-1,23
 148 435 148 435 125 425 c 1,24,-1
 125 56 l 1,25,26
 154 49 154 49 188 49 c 0,27,28
 288 49 288 49 340.5 107 c 128,-1,29
 393 165 393 165 393 271 c 0,30,31
 393 329 393 329 378 364.5 c 128,-1,32
 363 400 363 400 340 419.5 c 128,-1,33
 317 439 317 439 290.5 445 c 128,-1,34
 264 451 264 451 242 451 c 0,21,22
EndSplineSet
EndChar

StartChar: c
Encoding: 99 99 70
Width: 489
GlyphClass: 2
Flags: W
LayerCount: 2
Fore
SplineSet
391 433 m 1,0,1
 372 439 372 439 349.5 442.5 c 128,-1,2
 327 446 327 446 305 446 c 0,3,4
 264 446 264 446 229 432 c 128,-1,5
 194 418 194 418 168.5 391 c 128,-1,6
 143 364 143 364 129 323.5 c 128,-1,7
 115 283 115 283 115 231 c 0,8,9
 115 174 115 174 131 139 c 128,-1,10
 147 104 147 104 171 85.5 c 128,-1,11
 195 67 195 67 224 60.5 c 128,-1,12
 253 54 253 54 280 54 c 0,13,14
 306 54 306 54 332 57.5 c 128,-1,15
 358 61 358 61 379.5 66 c 128,-1,16
 401 71 401 71 415.5 75.5 c 128,-1,17
 430 80 430 80 433 82 c 1,18,-1
 449 28 l 1,19,20
 437 21 437 21 416.5 15.5 c 128,-1,21
 396 10 396 10 372 5.5 c 128,-1,22
 348 1 348 1 322 -1.5 c 128,-1,23
 296 -4 296 -4 273 -4 c 0,24,25
 238 -4 238 -4 199 4.5 c 128,-1,26
 160 13 160 13 127 38 c 128,-1,27
 94 63 94 63 72 109 c 128,-1,28
 50 155 50 155 50 230 c 0,29,30
 50 301 50 301 70 351.5 c 128,-1,31
 90 402 90 402 122.5 434.5 c 128,-1,32
 155 467 155 467 196 484 c 128,-1,33
 237 501 237 501 280 504 c 0,34,35
 330 508 330 508 376.5 497 c 128,-1,36
 423 486 423 486 445 466 c 1,37,-1
 445 335 l 1,38,-1
 396 328 l 1,39,-1
 391 433 l 1,0,1
EndSplineSet
EndChar

StartChar: d
Encoding: 100 100 71
Width: 535
GlyphClass: 2
Flags: W
LayerCount: 2
Fore
SplineSet
495 750 m 1,0,-1
 495 23 l 1,1,-1
 490 23 l 1,2,3
 480 19 480 19 456 14.5 c 128,-1,4
 432 10 432 10 403 6 c 128,-1,5
 374 2 374 2 344 -1 c 128,-1,6
 314 -4 314 -4 293 -4 c 0,7,8
 258 -4 258 -4 219 4.5 c 128,-1,9
 180 13 180 13 147 38 c 128,-1,10
 114 63 114 63 92 109 c 128,-1,11
 70 155 70 155 70 230 c 0,12,13
 70 301 70 301 90 351.5 c 128,-1,14
 110 402 110 402 142.5 434.5 c 128,-1,15
 175 467 175 467 216 484 c 128,-1,16
 257 501 257 501 300 504 c 0,17,18
 342 507 342 507 374.5 496 c 128,-1,19
 407 485 407 485 430 470 c 1,20,-1
 430 745 l 1,21,-1
 495 750 l 1,0,-1
300 54 m 0,22,23
 331 54 331 54 366 57 c 128,-1,24
 401 60 401 60 430 64 c 1,25,-1
 430 427 l 1,26,27
 409 435 409 435 381 440.5 c 128,-1,28
 353 446 353 446 325 446 c 0,29,30
 284 446 284 446 249 432 c 128,-1,31
 214 418 214 418 188.5 391 c 128,-1,32
 163 364 163 364 149 323.5 c 128,-1,33
 135 283 135 283 135 231 c 0,34,35
 135 174 135 174 151 139 c 128,-1,36
 167 104 167 104 191.5 85.5 c 128,-1,37
 216 67 216 67 245 60.5 c 128,-1,38
 274 54 274 54 300 54 c 0,22,23
EndSplineSet
EndChar

StartChar: e
Encoding: 101 101 72
Width: 516
GlyphClass: 2
Flags: W
LayerCount: 2
Fore
SplineSet
121 263 m 1,0,1
 120 255 120 255 120 246.5 c 128,-1,2
 120 238 120 238 120 230 c 0,3,4
 120 173 120 173 136 138 c 128,-1,5
 152 103 152 103 176.5 84.5 c 128,-1,6
 201 66 201 66 231 60 c 128,-1,7
 261 54 261 54 288 54 c 0,8,9
 312 54 312 54 336.5 57 c 128,-1,10
 361 60 361 60 381.5 64 c 128,-1,11
 402 68 402 68 417.5 73 c 128,-1,12
 433 78 433 78 439 81 c 1,13,-1
 454 28 l 1,14,15
 442 21 442 21 421.5 15.5 c 128,-1,16
 401 10 401 10 377 5.5 c 128,-1,17
 353 1 353 1 327 -1.5 c 128,-1,18
 301 -4 301 -4 278 -4 c 0,19,20
 243 -4 243 -4 204 4.5 c 128,-1,21
 165 13 165 13 132 37.5 c 128,-1,22
 99 62 99 62 77 108 c 128,-1,23
 55 154 55 154 55 229 c 0,24,25
 55 300 55 300 75 351 c 128,-1,26
 95 402 95 402 127.5 435.5 c 128,-1,27
 160 469 160 469 201.5 485.5 c 128,-1,28
 243 502 243 502 285 504 c 1,29,30
 339 505 339 505 378 488.5 c 128,-1,31
 417 472 417 472 441.5 440 c 128,-1,32
 466 408 466 408 475 363 c 128,-1,33
 484 318 484 318 478 263 c 1,34,-1
 121 263 l 1,0,1
270 440 m 0,35,36
 222 432 222 432 182.5 397.5 c 128,-1,37
 143 363 143 363 128 300 c 1,38,-1
 421 300 l 1,39,40
 421 351 421 351 401.5 388.5 c 128,-1,41
 382 426 382 426 335 437 c 1,42,43
 305 446 305 446 270 440 c 0,35,36
EndSplineSet
EndChar

StartChar: f
Encoding: 102 102 73
Width: 309
GlyphClass: 2
Flags: W
LayerCount: 2
Fore
SplineSet
285 442 m 1,0,-1
 161 442 l 1,1,-1
 161 0 l 1,2,-1
 96 0 l 1,3,-1
 96 442 l 1,4,-1
 40 442 l 1,5,-1
 49 500 l 1,6,-1
 96 500 l 1,7,-1
 96 618 l 2,8,9
 96 662 96 662 111 689 c 128,-1,10
 126 716 126 716 149 730.5 c 128,-1,11
 172 745 172 745 199.5 749.5 c 128,-1,12
 227 754 227 754 251 753.5 c 128,-1,13
 275 753 275 753 293 750 c 128,-1,14
 311 747 311 747 315 746 c 1,15,-1
 305 690 l 1,16,17
 278 694 278 694 252 695 c 128,-1,18
 226 696 226 696 206 687 c 128,-1,19
 186 678 186 678 173.5 656.5 c 128,-1,20
 161 635 161 635 161 595 c 2,21,-1
 161 500 l 1,22,-1
 285 500 l 1,23,-1
 285 442 l 1,0,-1
EndSplineSet
EndChar

StartChar: g
Encoding: 103 103 74
Width: 571
GlyphClass: 2
Flags: W
LayerCount: 2
Fore
SplineSet
68 339 m 0,0,1
 68 379 68 379 84 409.5 c 128,-1,2
 100 440 100 440 127.5 461 c 128,-1,3
 155 482 155 482 192.5 493 c 128,-1,4
 230 504 230 504 274 504 c 0,5,6
 290 504 290 504 304.5 502.5 c 128,-1,7
 319 501 319 501 333 499 c 1,8,-1
 521 504 l 1,9,-1
 519 466 l 1,10,-1
 410 466 l 1,11,12
 465 425 465 425 465 342 c 0,13,14
 465 300 465 300 450 268 c 128,-1,15
 435 236 435 236 408.5 214.5 c 128,-1,16
 382 193 382 193 346 182 c 128,-1,17
 310 171 310 171 268 171 c 0,18,19
 212 171 212 171 175 181 c 1,20,21
 156 163 156 163 156 139 c 0,22,23
 156 105 156 105 193.5 90 c 128,-1,24
 231 75 231 75 296 67 c 1,25,26
 334 61 334 61 373.5 52 c 128,-1,27
 413 43 413 43 445 25.5 c 128,-1,28
 477 8 477 8 497 -20.5 c 128,-1,29
 517 -49 517 -49 517 -94 c 0,30,31
 517 -141 517 -141 495 -171.5 c 128,-1,32
 473 -202 473 -202 438.5 -219.5 c 128,-1,33
 404 -237 404 -237 361 -243.5 c 128,-1,34
 318 -250 318 -250 276 -250 c 0,35,36
 208 -250 208 -250 162.5 -237 c 128,-1,37
 117 -224 117 -224 89 -202 c 128,-1,38
 61 -180 61 -180 50 -152.5 c 128,-1,39
 39 -125 39 -125 41 -96 c 0,40,41
 43 -51 43 -51 72 -13 c 128,-1,42
 101 25 101 25 148 54 c 1,43,44
 129 68 129 68 117.5 86 c 128,-1,45
 106 104 106 104 106 130 c 0,46,47
 106 146 106 146 113 161.5 c 128,-1,48
 120 177 120 177 142 193 c 1,49,50
 102 213 102 213 85 249 c 128,-1,51
 68 285 68 285 68 339 c 0,0,1
324 4 m 1,52,53
 297 8 297 8 257.5 14.5 c 128,-1,54
 218 21 218 21 183 35 c 1,55,56
 145 3 145 3 126 -27 c 128,-1,57
 107 -57 107 -57 106 -95 c 0,58,59
 106 -114 106 -114 114 -131.5 c 128,-1,60
 122 -149 122 -149 142 -162.5 c 128,-1,61
 162 -176 162 -176 195 -184 c 128,-1,62
 228 -192 228 -192 276 -192 c 0,63,64
 307 -192 307 -192 338 -187.5 c 128,-1,65
 369 -183 369 -183 394.5 -172 c 128,-1,66
 420 -161 420 -161 436 -142 c 128,-1,67
 452 -123 452 -123 452 -94 c 0,68,69
 452 -69 452 -69 439.5 -52 c 128,-1,70
 427 -35 427 -35 408 -24 c 128,-1,71
 389 -13 389 -13 366.5 -6.5 c 128,-1,72
 344 0 344 0 324 4 c 1,52,53
133 342 m 0,73,74
 133 283 133 283 161 253.5 c 128,-1,75
 189 224 189 224 264 224 c 0,76,77
 292 224 292 224 316.5 232 c 128,-1,78
 341 240 341 240 359 255.5 c 128,-1,79
 377 271 377 271 387 293.5 c 128,-1,80
 397 316 397 316 397 345 c 0,81,82
 397 399 397 399 364 425 c 128,-1,83
 331 451 331 451 271 451 c 256,84,85
 211 451 211 451 172 423.5 c 128,-1,86
 133 396 133 396 133 342 c 0,73,74
EndSplineSet
EndChar

StartChar: h
Encoding: 104 104 75
Width: 497
GlyphClass: 2
Flags: W
LayerCount: 2
Fore
SplineSet
392 351 m 2,0,1
 392 388 392 388 375.5 407.5 c 128,-1,2
 359 427 359 427 338.5 435 c 128,-1,3
 318 443 318 443 300 444 c 128,-1,4
 282 445 282 445 278 445 c 0,5,6
 237 443 237 443 199 429.5 c 128,-1,7
 161 416 161 416 135 403 c 1,8,-1
 135 0 l 1,9,-1
 70 0 l 1,10,-1
 70 745 l 1,11,-1
 135 750 l 1,12,-1
 135 443 l 1,13,14
 163 463 163 463 202.5 482 c 128,-1,15
 242 501 242 501 287 503 c 0,16,17
 302 503 302 503 330 501 c 128,-1,18
 358 499 358 499 386.5 486 c 128,-1,19
 415 473 415 473 436 445.5 c 128,-1,20
 457 418 457 418 457 368 c 2,21,-1
 457 0 l 1,22,-1
 392 0 l 1,23,-1
 392 351 l 2,0,1
EndSplineSet
EndChar

StartChar: i
Encoding: 105 105 76
Width: 218
GlyphClass: 2
Flags: W
LayerCount: 2
Fore
SplineSet
146 505 m 1,0,-1
 146 0 l 1,1,-1
 81 0 l 1,2,-1
 81 500 l 1,3,-1
 146 505 l 1,0,-1
70 679 m 0,4,5
 70 700 70 700 81.5 712.5 c 128,-1,6
 93 725 93 725 112 725 c 0,7,8
 133 725 133 725 145.5 712.5 c 128,-1,9
 158 700 158 700 158 679 c 0,10,11
 158 656 158 656 144.5 645 c 128,-1,12
 131 634 131 634 112 634 c 0,13,14
 91 634 91 634 80.5 647 c 128,-1,15
 70 660 70 660 70 679 c 0,4,5
EndSplineSet
EndChar

StartChar: j
Encoding: 106 106 77
Width: 229
GlyphClass: 2
Flags: W
LayerCount: 2
Fore
SplineSet
93 0 m 1,0,-1
 93 500 l 1,1,-1
 158 505 l 1,2,-1
 158 0 l 1,3,-1
 93 0 l 1,0,-1
-16 -209 m 1,4,5
 0 -194 0 -194 19 -171 c 128,-1,6
 38 -148 38 -148 54.5 -120.5 c 128,-1,7
 71 -93 71 -93 82 -62 c 128,-1,8
 93 -31 93 -31 93 0 c 1,9,-1
 158 0 l 1,10,11
 159 -49 159 -49 143 -88 c 128,-1,12
 127 -127 127 -127 104 -157.5 c 128,-1,13
 81 -188 81 -188 56 -210.5 c 128,-1,14
 31 -233 31 -233 14 -248 c 1,15,-1
 -16 -209 l 1,4,5
81 679 m 0,16,17
 81 700 81 700 93 712.5 c 128,-1,18
 105 725 105 725 124 725 c 0,19,20
 145 725 145 725 157 712.5 c 128,-1,21
 169 700 169 700 169 679 c 0,22,23
 169 656 169 656 156 645 c 128,-1,24
 143 634 143 634 124 634 c 0,25,26
 103 634 103 634 92 647 c 128,-1,27
 81 660 81 660 81 679 c 0,16,17
EndSplineSet
EndChar

StartChar: k
Encoding: 107 107 78
Width: 474
GlyphClass: 2
Flags: W
LayerCount: 2
Fore
SplineSet
135 0 m 1,0,-1
 70 0 l 1,1,-1
 70 745 l 1,2,-1
 135 750 l 1,3,-1
 135 266 l 1,4,-1
 336 500 l 1,5,-1
 414 500 l 1,6,-1
 200 266 l 1,7,-1
 434 0 l 1,8,-1
 358 0 l 1,9,-1
 135 266 l 1,10,-1
 135 0 l 1,0,-1
EndSplineSet
EndChar

StartChar: l
Encoding: 108 108 79
Width: 175
GlyphClass: 2
Flags: W
LayerCount: 2
Fore
SplineSet
70 0 m 1,0,-1
 70 745 l 1,1,-1
 135 750 l 1,2,-1
 135 0 l 1,3,-1
 70 0 l 1,0,-1
EndSplineSet
EndChar

StartChar: m
Encoding: 109 109 80
Width: 788
GlyphClass: 2
Flags: W
LayerCount: 2
Fore
SplineSet
125 505 m 1,0,-1
 125 449 l 1,1,2
 150 468 150 468 183.5 484.5 c 128,-1,3
 217 501 217 501 255 503 c 0,4,5
 265 503 265 503 284.5 502 c 128,-1,6
 304 501 304 501 326.5 495 c 128,-1,7
 349 489 349 489 370.5 476.5 c 128,-1,8
 392 464 392 464 406 441 c 1,9,10
 419 451 419 451 434.5 461.5 c 128,-1,11
 450 472 450 472 468 481 c 128,-1,12
 486 490 486 490 506 496 c 128,-1,13
 526 502 526 502 548 503 c 0,14,15
 561 503 561 503 589.5 501 c 128,-1,16
 618 499 618 499 646.5 486 c 128,-1,17
 675 473 675 473 696.5 445.5 c 128,-1,18
 718 418 718 418 718 368 c 2,19,-1
 718 0 l 1,20,-1
 653 0 l 1,21,-1
 653 351 l 2,22,23
 653 388 653 388 636.5 407.5 c 128,-1,24
 620 427 620 427 599.5 435 c 128,-1,25
 579 443 579 443 561 444 c 128,-1,26
 543 445 543 445 539 445 c 0,27,28
 506 444 506 444 474.5 432.5 c 128,-1,29
 443 421 443 421 420 409 c 1,30,31
 425 389 425 389 425 368 c 2,32,-1
 425 0 l 1,33,-1
 360 0 l 1,34,-1
 360 351 l 2,35,36
 360 388 360 388 343.5 407.5 c 128,-1,37
 327 427 327 427 306.5 435 c 128,-1,38
 286 443 286 443 268 444 c 128,-1,39
 250 445 250 445 246 445 c 0,40,41
 211 443 211 443 179.5 431.5 c 128,-1,42
 148 420 148 420 125 408 c 1,43,-1
 125 0 l 1,44,-1
 60 0 l 1,45,-1
 60 500 l 1,46,-1
 125 505 l 1,0,-1
EndSplineSet
EndChar

StartChar: n
Encoding: 110 110 81
Width: 507
GlyphClass: 2
Flags: W
LayerCount: 2
Fore
SplineSet
372 351 m 2,0,1
 372 388 372 388 355.5 407.5 c 128,-1,2
 339 427 339 427 318.5 435 c 128,-1,3
 298 443 298 443 280 444 c 128,-1,4
 262 445 262 445 258 445 c 0,5,6
 220 443 220 443 184.5 430 c 128,-1,7
 149 417 149 417 125 404 c 1,8,-1
 125 0 l 1,9,-1
 60 0 l 1,10,-1
 60 500 l 1,11,-1
 125 505 l 1,12,-1
 125 445 l 1,13,14
 151 464 151 464 187 482.5 c 128,-1,15
 223 501 223 501 267 503 c 0,16,17
 280 503 280 503 308.5 501 c 128,-1,18
 337 499 337 499 365.5 486 c 128,-1,19
 394 473 394 473 415.5 445.5 c 128,-1,20
 437 418 437 418 437 368 c 2,21,-1
 437 0 l 1,22,-1
 372 0 l 1,23,-1
 372 351 l 2,0,1
EndSplineSet
EndChar

StartChar: o
Encoding: 111 111 82
Width: 575
GlyphClass: 2
Flags: W
LayerCount: 2
Fore
SplineSet
50 244 m 0,0,1
 50 305 50 305 68.5 353 c 128,-1,2
 87 401 87 401 120 434.5 c 128,-1,3
 153 468 153 468 197 486 c 128,-1,4
 241 504 241 504 292 504 c 0,5,6
 339 504 339 504 381.5 491 c 128,-1,7
 424 478 424 478 456 448.5 c 128,-1,8
 488 419 488 419 506.5 371.5 c 128,-1,9
 525 324 525 324 525 256 c 0,10,11
 525 195 525 195 506.5 147 c 128,-1,12
 488 99 488 99 455 65.5 c 128,-1,13
 422 32 422 32 378 14 c 128,-1,14
 334 -4 334 -4 283 -4 c 0,15,16
 235 -4 235 -4 193 9 c 128,-1,17
 151 22 151 22 119 51.5 c 128,-1,18
 87 81 87 81 68.5 128.5 c 128,-1,19
 50 176 50 176 50 244 c 0,0,1
115 244 m 0,20,21
 115 197 115 197 128.5 161.5 c 128,-1,22
 142 126 142 126 164.5 102 c 128,-1,23
 187 78 187 78 217.5 66 c 128,-1,24
 248 54 248 54 283 54 c 0,25,26
 320 54 320 54 352.5 67.5 c 128,-1,27
 385 81 385 81 409 106.5 c 128,-1,28
 433 132 433 132 446.5 169.5 c 128,-1,29
 460 207 460 207 460 256 c 0,30,31
 460 303 460 303 446.5 338.5 c 128,-1,32
 433 374 433 374 410.5 398 c 128,-1,33
 388 422 388 422 357 434 c 128,-1,34
 326 446 326 446 292 446 c 0,35,36
 255 446 255 446 222.5 432.5 c 128,-1,37
 190 419 190 419 166 393.5 c 128,-1,38
 142 368 142 368 128.5 330 c 128,-1,39
 115 292 115 292 115 244 c 0,20,21
EndSplineSet
EndChar

StartChar: p
Encoding: 112 112 83
Width: 518
GlyphClass: 2
Flags: W
LayerCount: 2
Fore
SplineSet
70 474 m 1,0,1
 92 481 92 481 137.5 495 c 128,-1,2
 183 509 183 509 254 509 c 0,3,4
 286 509 286 509 323.5 500.5 c 128,-1,5
 361 492 361 492 393 467.5 c 128,-1,6
 425 443 425 443 446.5 397 c 128,-1,7
 468 351 468 351 468 276 c 0,8,9
 468 203 468 203 448 152.5 c 128,-1,10
 428 102 428 102 395.5 69.5 c 128,-1,11
 363 37 363 37 322.5 20.5 c 128,-1,12
 282 4 282 4 241 1 c 0,13,14
 216 -1 216 -1 188 0 c 128,-1,15
 160 1 160 1 135 5 c 1,16,-1
 135 -245 l 1,17,-1
 70 -250 l 1,18,-1
 70 474 l 1,0,1
249 451 m 0,19,20
 223 451 223 451 192.5 446.5 c 128,-1,21
 162 442 162 442 135 434 c 1,22,-1
 135 56 l 1,23,24
 152 52 152 52 168 50.5 c 128,-1,25
 184 49 184 49 199 49 c 0,26,27
 297 49 297 49 350 107 c 128,-1,28
 403 165 403 165 403 271 c 0,29,30
 403 330 403 330 387.5 365.5 c 128,-1,31
 372 401 372 401 349 420 c 128,-1,32
 326 439 326 439 299 445 c 128,-1,33
 272 451 272 451 249 451 c 0,19,20
EndSplineSet
EndChar

StartChar: q
Encoding: 113 113 84
Width: 545
GlyphClass: 2
Flags: W
LayerCount: 2
Fore
SplineSet
485 -246 m 1,0,-1
 420 -251 l 1,1,-1
 420 10 l 1,2,3
 386 4 386 4 347.5 0 c 128,-1,4
 309 -4 309 -4 283 -4 c 0,5,6
 248 -4 248 -4 209 4.5 c 128,-1,7
 170 13 170 13 137 38 c 128,-1,8
 104 63 104 63 82 109 c 128,-1,9
 60 155 60 155 60 230 c 0,10,11
 60 301 60 301 80 351.5 c 128,-1,12
 100 402 100 402 132.5 434.5 c 128,-1,13
 165 467 165 467 206 484 c 128,-1,14
 247 501 247 501 290 504 c 0,15,16
 324 507 324 507 358.5 503 c 128,-1,17
 393 499 393 499 420.5 493.5 c 128,-1,18
 448 488 448 488 466 482.5 c 128,-1,19
 484 477 484 477 485 476 c 1,20,-1
 485 -246 l 1,0,-1
290 54 m 0,21,22
 321 54 321 54 356 57 c 128,-1,23
 391 60 391 60 420 64 c 1,24,-1
 420 429 l 1,25,26
 398 435 398 435 369.5 440.5 c 128,-1,27
 341 446 341 446 315 446 c 0,28,29
 274 446 274 446 239 432 c 128,-1,30
 204 418 204 418 178.5 391 c 128,-1,31
 153 364 153 364 139 323.5 c 128,-1,32
 125 283 125 283 125 231 c 0,33,34
 125 174 125 174 141 139 c 128,-1,35
 157 104 157 104 181.5 85.5 c 128,-1,36
 206 67 206 67 235 60.5 c 128,-1,37
 264 54 264 54 290 54 c 0,21,22
EndSplineSet
EndChar

StartChar: r
Encoding: 114 114 85
Width: 347
GlyphClass: 2
Flags: W
LayerCount: 2
Fore
SplineSet
321 430 m 1,0,1
 306 438 306 438 291.5 438.5 c 128,-1,2
 277 439 277 439 273 439 c 0,3,4
 229 438 229 438 190.5 410.5 c 128,-1,5
 152 383 152 383 125 349 c 1,6,-1
 125 0 l 1,7,-1
 60 0 l 1,8,-1
 60 500 l 1,9,-1
 125 505 l 1,10,-1
 125 393 l 1,11,12
 140 412 140 412 157 430.5 c 128,-1,13
 174 449 174 449 193.5 463.5 c 128,-1,14
 213 478 213 478 235 487 c 128,-1,15
 257 496 257 496 280 497 c 0,16,17
 292 498 292 498 310 496.5 c 128,-1,18
 328 495 328 495 347 490 c 1,19,-1
 321 430 l 1,0,1
EndSplineSet
EndChar

StartChar: s
Encoding: 115 115 86
Width: 427
GlyphClass: 2
Flags: W
LayerCount: 2
Fore
SplineSet
344 434 m 1,0,1
 341 435 341 435 331 437 c 128,-1,2
 321 439 321 439 306.5 441 c 128,-1,3
 292 443 292 443 274.5 444.5 c 128,-1,4
 257 446 257 446 239 446 c 0,5,6
 184 446 184 446 150 424 c 128,-1,7
 116 402 116 402 116 364 c 0,8,9
 116 337 116 337 136 322 c 128,-1,10
 156 307 156 307 186 296.5 c 128,-1,11
 216 286 216 286 251.5 276 c 128,-1,12
 287 266 287 266 317 250.5 c 128,-1,13
 347 235 347 235 367 210 c 128,-1,14
 387 185 387 185 387 143 c 0,15,16
 387 72 387 72 338.5 34 c 128,-1,17
 290 -4 290 -4 197 -4 c 0,18,19
 150 -4 150 -4 106.5 5.5 c 128,-1,20
 63 15 63 15 40 32 c 1,21,-1
 62 85 l 1,22,23
 68 80 68 80 81.5 74 c 128,-1,24
 95 68 95 68 114 63.5 c 128,-1,25
 133 59 133 59 155 56 c 128,-1,26
 177 53 177 53 200 53 c 0,27,28
 224 53 224 53 246 58 c 128,-1,29
 268 63 268 63 285 73.5 c 128,-1,30
 302 84 302 84 312 100.5 c 128,-1,31
 322 117 322 117 322 140 c 0,32,33
 322 170 322 170 302 187 c 128,-1,34
 282 204 282 204 252 215.5 c 128,-1,35
 222 227 222 227 186.5 236 c 128,-1,36
 151 245 151 245 121 259.5 c 128,-1,37
 91 274 91 274 71 297.5 c 128,-1,38
 51 321 51 321 51 361 c 0,39,40
 51 426 51 426 101 465 c 128,-1,41
 151 504 151 504 235 504 c 0,42,43
 256 504 256 504 278 501.5 c 128,-1,44
 300 499 300 499 318 497 c 2,45,-1
 360 490 l 1,46,-1
 344 434 l 1,0,1
EndSplineSet
EndChar

StartChar: t
Encoding: 116 116 87
Width: 332
GlyphClass: 2
Flags: W
LayerCount: 2
Fore
SplineSet
96 599 m 1,0,-1
 161 605 l 1,1,-1
 161 500 l 1,2,-1
 277 500 l 1,3,-1
 277 442 l 1,4,-1
 161 442 l 1,5,-1
 161 118 l 2,6,7
 161 94 161 94 171 81 c 128,-1,8
 181 68 181 68 197 63 c 128,-1,9
 213 58 213 58 234 60.5 c 128,-1,10
 255 63 255 63 277 72 c 1,11,-1
 289 18 l 1,12,13
 281 10 281 10 260.5 4.5 c 128,-1,14
 240 -1 240 -1 216.5 0 c 128,-1,15
 193 1 193 1 170 8.5 c 128,-1,16
 147 16 147 16 135 34 c 1,17,18
 118 50 118 50 107 74 c 128,-1,19
 96 98 96 98 96 134 c 2,20,-1
 96 442 l 1,21,-1
 40 442 l 1,22,-1
 49 500 l 1,23,-1
 96 500 l 1,24,-1
 96 599 l 1,0,-1
EndSplineSet
EndChar

StartChar: u
Encoding: 117 117 88
Width: 517
GlyphClass: 2
Flags: W
LayerCount: 2
Fore
SplineSet
135 149 m 2,0,1
 135 111 135 111 151.5 92 c 128,-1,2
 168 73 168 73 188.5 64.5 c 128,-1,3
 209 56 209 56 227 55.5 c 128,-1,4
 245 55 245 55 249 55 c 0,5,6
 287 56 287 56 322 69 c 128,-1,7
 357 82 357 82 382 95 c 1,8,-1
 382 500 l 1,9,-1
 447 505 l 1,10,-1
 447 0 l 1,11,-1
 382 0 l 1,12,-1
 382 54 l 1,13,14
 356 34 356 34 319.5 16.5 c 128,-1,15
 283 -1 283 -1 240 -3 c 0,16,17
 226 -4 226 -4 198 -1.5 c 128,-1,18
 170 1 170 1 141.5 13.5 c 128,-1,19
 113 26 113 26 91.5 54 c 128,-1,20
 70 82 70 82 70 132 c 2,21,-1
 70 500 l 1,22,-1
 135 505 l 1,23,-1
 135 149 l 2,0,1
EndSplineSet
EndChar

StartChar: v
Encoding: 118 118 89
Width: 528
GlyphClass: 2
Flags: W
LayerCount: 2
Fore
SplineSet
40 500 m 1,0,-1
 113 505 l 1,1,-1
 258 77 l 1,2,-1
 415 500 l 1,3,-1
 487 505 l 1,4,-1
 285 0 l 1,5,-1
 225 0 l 1,6,-1
 40 500 l 1,0,-1
EndSplineSet
EndChar

StartChar: w
Encoding: 119 119 90
Width: 809
GlyphClass: 2
Flags: W
LayerCount: 2
Fore
SplineSet
399 402 m 1,0,-1
 265 0 l 1,1,-1
 205 0 l 1,2,-1
 40 500 l 1,3,-1
 113 505 l 1,4,-1
 240 82 l 1,5,-1
 370 500 l 1,6,-1
 433 505 l 1,7,-1
 545 81 l 1,8,-1
 692 500 l 1,9,-1
 769 505 l 1,10,-1
 577 0 l 1,11,-1
 517 0 l 1,12,-1
 399 402 l 1,0,-1
EndSplineSet
EndChar

StartChar: x
Encoding: 120 120 91
Width: 505
GlyphClass: 2
Flags: W
LayerCount: 2
Fore
SplineSet
242 208 m 1,0,-1
 101 0 l 1,1,-1
 26 0 l 1,2,-1
 205 263 l 1,3,-1
 47 500 l 1,4,-1
 127 500 l 1,5,-1
 253 310 l 1,6,-1
 381 500 l 1,7,-1
 451 500 l 1,8,-1
 288 258 l 1,9,-1
 461 0 l 1,10,-1
 381 0 l 1,11,-1
 242 208 l 1,0,-1
EndSplineSet
EndChar

StartChar: y
Encoding: 121 121 92
Width: 566
GlyphClass: 2
Flags: W
LayerCount: 2
Fore
SplineSet
40 500 m 1,0,-1
 113 505 l 1,1,-1
 255 69 l 1,2,-1
 454 500 l 1,3,-1
 524 500 l 1,4,-1
 177 -250 l 1,5,-1
 108 -250 l 1,6,-1
 223 0 l 1,7,-1
 218 0 l 1,8,-1
 40 500 l 1,0,-1
EndSplineSet
EndChar

StartChar: z
Encoding: 122 122 93
Width: 500
GlyphClass: 2
Flags: W
LayerCount: 2
Fore
SplineSet
65 500 m 1,0,-1
 430 500 l 1,1,-1
 439 442 l 1,2,-1
 127 58 l 1,3,-1
 452 58 l 1,4,-1
 460 0 l 1,5,-1
 49 0 l 1,6,-1
 40 58 l 1,7,-1
 356 442 l 1,8,-1
 66 442 l 1,9,-1
 65 500 l 1,0,-1
EndSplineSet
PairPos2: "'kern' Horizontal Kerning in Latin lookup 0 per glyph data 1" oe dx=0 dy=0 dh=-29 dv=0 dx=0 dy=0 dh=0 dv=0
PairPos2: "'kern' Horizontal Kerning in Latin lookup 0 per glyph data 1" dotlessi dx=0 dy=0 dh=-24 dv=0 dx=0 dy=0 dh=0 dv=0
PairPos2: "'kern' Horizontal Kerning in Latin lookup 0 per glyph data 1" ydieresis dx=0 dy=0 dh=-29 dv=0 dx=0 dy=0 dh=0 dv=0
PairPos2: "'kern' Horizontal Kerning in Latin lookup 0 per glyph data 1" thorn dx=0 dy=0 dh=-24 dv=0 dx=0 dy=0 dh=0 dv=0
PairPos2: "'kern' Horizontal Kerning in Latin lookup 0 per glyph data 1" yacute dx=0 dy=0 dh=-29 dv=0 dx=0 dy=0 dh=0 dv=0
PairPos2: "'kern' Horizontal Kerning in Latin lookup 0 per glyph data 1" udieresis dx=0 dy=0 dh=-24 dv=0 dx=0 dy=0 dh=0 dv=0
PairPos2: "'kern' Horizontal Kerning in Latin lookup 0 per glyph data 1" ucircumflex dx=0 dy=0 dh=-24 dv=0 dx=0 dy=0 dh=0 dv=0
PairPos2: "'kern' Horizontal Kerning in Latin lookup 0 per glyph data 1" uacute dx=0 dy=0 dh=-24 dv=0 dx=0 dy=0 dh=0 dv=0
PairPos2: "'kern' Horizontal Kerning in Latin lookup 0 per glyph data 1" ugrave dx=0 dy=0 dh=-24 dv=0 dx=0 dy=0 dh=0 dv=0
PairPos2: "'kern' Horizontal Kerning in Latin lookup 0 per glyph data 1" odieresis dx=0 dy=0 dh=-29 dv=0 dx=0 dy=0 dh=0 dv=0
PairPos2: "'kern' Horizontal Kerning in Latin lookup 0 per glyph data 1" otilde dx=0 dy=0 dh=-29 dv=0 dx=0 dy=0 dh=0 dv=0
PairPos2: "'kern' Horizontal Kerning in Latin lookup 0 per glyph data 1" ocircumflex dx=0 dy=0 dh=-29 dv=0 dx=0 dy=0 dh=0 dv=0
PairPos2: "'kern' Horizontal Kerning in Latin lookup 0 per glyph data 1" oacute dx=0 dy=0 dh=-29 dv=0 dx=0 dy=0 dh=0 dv=0
PairPos2: "'kern' Horizontal Kerning in Latin lookup 0 per glyph data 1" ograve dx=0 dy=0 dh=-29 dv=0 dx=0 dy=0 dh=0 dv=0
PairPos2: "'kern' Horizontal Kerning in Latin lookup 0 per glyph data 1" ntilde dx=0 dy=0 dh=-24 dv=0 dx=0 dy=0 dh=0 dv=0
PairPos2: "'kern' Horizontal Kerning in Latin lookup 0 per glyph data 1" eth dx=0 dy=0 dh=-29 dv=0 dx=0 dy=0 dh=0 dv=0
PairPos2: "'kern' Horizontal Kerning in Latin lookup 0 per glyph data 1" idieresis dx=0 dy=0 dh=-24 dv=0 dx=0 dy=0 dh=0 dv=0
PairPos2: "'kern' Horizontal Kerning in Latin lookup 0 per glyph data 1" icircumflex dx=0 dy=0 dh=-24 dv=0 dx=0 dy=0 dh=0 dv=0
PairPos2: "'kern' Horizontal Kerning in Latin lookup 0 per glyph data 1" iacute dx=0 dy=0 dh=-24 dv=0 dx=0 dy=0 dh=0 dv=0
PairPos2: "'kern' Horizontal Kerning in Latin lookup 0 per glyph data 1" igrave dx=0 dy=0 dh=-24 dv=0 dx=0 dy=0 dh=0 dv=0
PairPos2: "'kern' Horizontal Kerning in Latin lookup 0 per glyph data 1" edieresis dx=0 dy=0 dh=-44 dv=0 dx=0 dy=0 dh=0 dv=0
PairPos2: "'kern' Horizontal Kerning in Latin lookup 0 per glyph data 1" ecircumflex dx=0 dy=0 dh=-44 dv=0 dx=0 dy=0 dh=0 dv=0
PairPos2: "'kern' Horizontal Kerning in Latin lookup 0 per glyph data 1" eacute dx=0 dy=0 dh=-44 dv=0 dx=0 dy=0 dh=0 dv=0
PairPos2: "'kern' Horizontal Kerning in Latin lookup 0 per glyph data 1" egrave dx=0 dy=0 dh=-44 dv=0 dx=0 dy=0 dh=0 dv=0
PairPos2: "'kern' Horizontal Kerning in Latin lookup 0 per glyph data 1" ccedilla dx=0 dy=0 dh=-44 dv=0 dx=0 dy=0 dh=0 dv=0
PairPos2: "'kern' Horizontal Kerning in Latin lookup 0 per glyph data 1" aring dx=0 dy=0 dh=-14 dv=0 dx=0 dy=0 dh=0 dv=0
PairPos2: "'kern' Horizontal Kerning in Latin lookup 0 per glyph data 1" adieresis dx=0 dy=0 dh=-14 dv=0 dx=0 dy=0 dh=0 dv=0
PairPos2: "'kern' Horizontal Kerning in Latin lookup 0 per glyph data 1" atilde dx=0 dy=0 dh=-14 dv=0 dx=0 dy=0 dh=0 dv=0
PairPos2: "'kern' Horizontal Kerning in Latin lookup 0 per glyph data 1" acircumflex dx=0 dy=0 dh=-14 dv=0 dx=0 dy=0 dh=0 dv=0
PairPos2: "'kern' Horizontal Kerning in Latin lookup 0 per glyph data 1" aacute dx=0 dy=0 dh=-14 dv=0 dx=0 dy=0 dh=0 dv=0
PairPos2: "'kern' Horizontal Kerning in Latin lookup 0 per glyph data 1" agrave dx=0 dy=0 dh=-14 dv=0 dx=0 dy=0 dh=0 dv=0
PairPos2: "'kern' Horizontal Kerning in Latin lookup 0 per glyph data 1" germandbls dx=0 dy=0 dh=-24 dv=0 dx=0 dy=0 dh=0 dv=0
PairPos2: "'kern' Horizontal Kerning in Latin lookup 0 per glyph data 1" mu dx=0 dy=0 dh=-24 dv=0 dx=0 dy=0 dh=0 dv=0
PairPos2: "'kern' Horizontal Kerning in Latin lookup 0 per glyph data 1" brokenbar dx=0 dy=0 dh=-24 dv=0 dx=0 dy=0 dh=0 dv=0
PairPos2: "'kern' Horizontal Kerning in Latin lookup 0 per glyph data 1" cent dx=0 dy=0 dh=-44 dv=0 dx=0 dy=0 dh=0 dv=0
PairPos2: "'kern' Horizontal Kerning in Latin lookup 0 per glyph data 1" exclamdown dx=0 dy=0 dh=-24 dv=0 dx=0 dy=0 dh=0 dv=0
PairPos2: "'kern' Horizontal Kerning in Latin lookup 0 per glyph data 1" bar dx=0 dy=0 dh=-24 dv=0 dx=0 dy=0 dh=0 dv=0
PairPos2: "'kern' Horizontal Kerning in Latin lookup 0 per glyph data 1" z dx=0 dy=0 dh=-7 dv=0 dx=0 dy=0 dh=0 dv=0
PairPos2: "'kern' Horizontal Kerning in Latin lookup 0 per glyph data 1" y dx=0 dy=0 dh=-29 dv=0 dx=0 dy=0 dh=0 dv=0
PairPos2: "'kern' Horizontal Kerning in Latin lookup 0 per glyph data 1" w dx=0 dy=0 dh=-15 dv=0 dx=0 dy=0 dh=0 dv=0
PairPos2: "'kern' Horizontal Kerning in Latin lookup 0 per glyph data 1" u dx=0 dy=0 dh=-24 dv=0 dx=0 dy=0 dh=0 dv=0
PairPos2: "'kern' Horizontal Kerning in Latin lookup 0 per glyph data 1" t dx=0 dy=0 dh=-24 dv=0 dx=0 dy=0 dh=0 dv=0
PairPos2: "'kern' Horizontal Kerning in Latin lookup 0 per glyph data 1" s dx=0 dy=0 dh=-7 dv=0 dx=0 dy=0 dh=0 dv=0
PairPos2: "'kern' Horizontal Kerning in Latin lookup 0 per glyph data 1" r dx=0 dy=0 dh=-24 dv=0 dx=0 dy=0 dh=0 dv=0
PairPos2: "'kern' Horizontal Kerning in Latin lookup 0 per glyph data 1" q dx=0 dy=0 dh=-44 dv=0 dx=0 dy=0 dh=0 dv=0
PairPos2: "'kern' Horizontal Kerning in Latin lookup 0 per glyph data 1" p dx=0 dy=0 dh=-24 dv=0 dx=0 dy=0 dh=0 dv=0
PairPos2: "'kern' Horizontal Kerning in Latin lookup 0 per glyph data 1" o dx=0 dy=0 dh=-29 dv=0 dx=0 dy=0 dh=0 dv=0
PairPos2: "'kern' Horizontal Kerning in Latin lookup 0 per glyph data 1" n dx=0 dy=0 dh=-24 dv=0 dx=0 dy=0 dh=0 dv=0
PairPos2: "'kern' Horizontal Kerning in Latin lookup 0 per glyph data 1" m dx=0 dy=0 dh=-24 dv=0 dx=0 dy=0 dh=0 dv=0
PairPos2: "'kern' Horizontal Kerning in Latin lookup 0 per glyph data 1" l dx=0 dy=0 dh=-24 dv=0 dx=0 dy=0 dh=0 dv=0
PairPos2: "'kern' Horizontal Kerning in Latin lookup 0 per glyph data 1" k dx=0 dy=0 dh=-24 dv=0 dx=0 dy=0 dh=0 dv=0
PairPos2: "'kern' Horizontal Kerning in Latin lookup 0 per glyph data 1" j dx=0 dy=0 dh=-24 dv=0 dx=0 dy=0 dh=0 dv=0
PairPos2: "'kern' Horizontal Kerning in Latin lookup 0 per glyph data 1" i dx=0 dy=0 dh=-24 dv=0 dx=0 dy=0 dh=0 dv=0
PairPos2: "'kern' Horizontal Kerning in Latin lookup 0 per glyph data 1" h dx=0 dy=0 dh=-24 dv=0 dx=0 dy=0 dh=0 dv=0
PairPos2: "'kern' Horizontal Kerning in Latin lookup 0 per glyph data 1" f dx=0 dy=0 dh=-24 dv=0 dx=0 dy=0 dh=0 dv=0
PairPos2: "'kern' Horizontal Kerning in Latin lookup 0 per glyph data 1" e dx=0 dy=0 dh=-44 dv=0 dx=0 dy=0 dh=0 dv=0
PairPos2: "'kern' Horizontal Kerning in Latin lookup 0 per glyph data 1" d dx=0 dy=0 dh=-44 dv=0 dx=0 dy=0 dh=0 dv=0
PairPos2: "'kern' Horizontal Kerning in Latin lookup 0 per glyph data 1" c dx=0 dy=0 dh=-44 dv=0 dx=0 dy=0 dh=0 dv=0
PairPos2: "'kern' Horizontal Kerning in Latin lookup 0 per glyph data 1" b dx=0 dy=0 dh=-24 dv=0 dx=0 dy=0 dh=0 dv=0
PairPos2: "'kern' Horizontal Kerning in Latin lookup 0 per glyph data 1" a dx=0 dy=0 dh=-14 dv=0 dx=0 dy=0 dh=0 dv=0
PairPos2: "'kern' Horizontal Kerning in Latin lookup 0 per glyph data 1" bracketright dx=0 dy=0 dh=-24 dv=0 dx=0 dy=0 dh=0 dv=0
PairPos2: "'kern' Horizontal Kerning in Latin lookup 0 per glyph data 1" bracketleft dx=0 dy=0 dh=-24 dv=0 dx=0 dy=0 dh=0 dv=0
PairPos2: "'kern' Horizontal Kerning in Latin lookup 0 per glyph data 1" W dx=0 dy=0 dh=-36 dv=0 dx=0 dy=0 dh=0 dv=0
PairPos2: "'kern' Horizontal Kerning in Latin lookup 0 per glyph data 1" one dx=0 dy=0 dh=-24 dv=0 dx=0 dy=0 dh=0 dv=0
PairPos2: "'kern' Horizontal Kerning in Latin lookup 0 per glyph data 1" parenright dx=0 dy=0 dh=-24 dv=0 dx=0 dy=0 dh=0 dv=0
PairPos2: "'kern' Horizontal Kerning in Latin lookup 0 per glyph data 1" parenleft dx=0 dy=0 dh=-24 dv=0 dx=0 dy=0 dh=0 dv=0
PairPos2: "'kern' Horizontal Kerning in Latin lookup 0 per glyph data 1" exclam dx=0 dy=0 dh=-24 dv=0 dx=0 dy=0 dh=0 dv=0
EndChar

StartChar: braceleft
Encoding: 123 123 94
Width: 453
GlyphClass: 2
Flags: W
LayerCount: 2
Fore
SplineSet
61 221 m 1,0,-1
 61 278 l 1,1,2
 80 278 80 278 100.5 281.5 c 128,-1,3
 121 285 121 285 138 295.5 c 128,-1,4
 155 306 155 306 166 326 c 128,-1,5
 177 346 177 346 177 378 c 2,6,-1
 177 613 l 2,7,8
 177 660 177 660 195 687.5 c 128,-1,9
 213 715 213 715 239.5 729 c 128,-1,10
 266 743 266 743 296.5 746 c 128,-1,11
 327 749 327 749 353 748 c 1,12,-1
 353 691 l 1,13,14
 333 692 333 692 312.5 688 c 128,-1,15
 292 684 292 684 275.5 673 c 128,-1,16
 259 662 259 662 248 642 c 128,-1,17
 237 622 237 622 237 591 c 2,18,-1
 237 381 l 2,19,20
 237 328 237 328 221 297 c 128,-1,21
 205 266 205 266 180 249 c 1,22,23
 205 232 205 232 221 201.5 c 128,-1,24
 237 171 237 171 237 118 c 2,25,-1
 237 -92 l 2,26,27
 237 -124 237 -124 248 -144 c 128,-1,28
 259 -164 259 -164 275.5 -175 c 128,-1,29
 292 -186 292 -186 312.5 -189.5 c 128,-1,30
 333 -193 333 -193 353 -192 c 1,31,-1
 353 -249 l 1,32,33
 327 -251 327 -251 296 -247.5 c 128,-1,34
 265 -244 265 -244 238.5 -230 c 128,-1,35
 212 -216 212 -216 194.5 -188.5 c 128,-1,36
 177 -161 177 -161 177 -114 c 2,37,-1
 177 96 l 2,38,39
 177 134 177 134 167 158 c 128,-1,40
 157 182 157 182 141 196 c 128,-1,41
 125 210 125 210 106 215 c 128,-1,42
 87 220 87 220 68 221 c 1,43,-1
 61 221 l 1,0,-1
EndSplineSet
EndChar

StartChar: bar
Encoding: 124 124 95
Width: 284
GlyphClass: 2
Flags: W
LayerCount: 2
Fore
SplineSet
172 749 m 1,0,-1
 172 -200 l 1,1,-1
 112 -200 l 1,2,-1
 112 749 l 1,3,-1
 172 749 l 1,0,-1
EndSplineSet
EndChar

StartChar: asciitilde
Encoding: 126 126 97
Width: 588
GlyphClass: 2
Flags: W
LayerCount: 2
Fore
SplineSet
122 315 m 1,0,1
 129 348 129 348 149 362.5 c 128,-1,2
 169 377 169 377 197 379 c 128,-1,3
 225 381 225 381 258 375 c 128,-1,4
 291 369 291 369 324 361 c 0,5,6
 366 350 366 350 390.5 347.5 c 128,-1,7
 415 345 415 345 427.5 349 c 128,-1,8
 440 353 440 353 445 362.5 c 128,-1,9
 450 372 450 372 453 386 c 1,10,-1
 488 379 l 1,11,12
 480 344 480 344 465.5 328.5 c 128,-1,13
 451 313 451 313 429.5 310 c 128,-1,14
 408 307 408 307 380 313 c 128,-1,15
 352 319 352 319 318 328 c 0,16,17
 276 338 276 338 246.5 341.5 c 128,-1,18
 217 345 217 345 198 342.5 c 128,-1,19
 179 340 179 340 169 331.5 c 128,-1,20
 159 323 159 323 156 308 c 1,21,-1
 122 315 l 1,0,1
EndSplineSet
EndChar

StartChar: cent
Encoding: 162 162 99
Width: 489
GlyphClass: 2
Flags: W
LayerCount: 2
Fore
SplineSet
391 433 m 1,0,1
 372 439 372 439 349.5 442.5 c 128,-1,2
 327 446 327 446 305 446 c 2,3,-1
 294 446 l 1,4,-1
 294 54 l 1,5,6
 318 55 318 55 342 58.5 c 128,-1,7
 366 62 366 62 385.5 66.5 c 128,-1,8
 405 71 405 71 417.5 75.5 c 128,-1,9
 430 80 430 80 433 82 c 1,10,-1
 449 28 l 1,11,12
 438 22 438 22 420.5 16.5 c 128,-1,13
 403 11 403 11 382 7 c 128,-1,14
 361 3 361 3 338.5 0.5 c 128,-1,15
 316 -2 316 -2 294 -3 c 1,16,-1
 294 -100 l 1,17,-1
 264 -100 l 1,18,-1
 264 -4 l 1,19,20
 229 -3 229 -3 191.5 6 c 128,-1,21
 154 15 154 15 122.5 40.5 c 128,-1,22
 91 66 91 66 70.5 111.5 c 128,-1,23
 50 157 50 157 50 230 c 0,24,25
 50 297 50 297 68 346 c 128,-1,26
 86 395 86 395 116 428 c 128,-1,27
 146 461 146 461 184.5 478.5 c 128,-1,28
 223 496 223 496 264 502 c 1,29,-1
 264 600 l 1,30,-1
 294 600 l 1,31,-1
 294 505 l 1,32,33
 317 506 317 506 339.5 503.5 c 128,-1,34
 362 501 362 501 382 495.5 c 128,-1,35
 402 490 402 490 418.5 482.5 c 128,-1,36
 435 475 435 475 445 466 c 1,37,-1
 445 345 l 1,38,-1
 396 338 l 1,39,-1
 391 433 l 1,0,1
115 231 m 0,40,41
 115 178 115 178 128.5 144.5 c 128,-1,42
 142 111 142 111 163.5 91.5 c 128,-1,43
 185 72 185 72 211.5 63.5 c 128,-1,44
 238 55 238 55 264 54 c 1,45,-1
 264 442 l 1,46,47
 197 430 197 430 156 376.5 c 128,-1,48
 115 323 115 323 115 231 c 0,40,41
EndSplineSet
EndChar

StartChar: sterling
Encoding: 163 163 100
Width: 502
GlyphClass: 2
Flags: W
LayerCount: 2
Fore
SplineSet
85 53 m 1,0,1
 99 54 99 54 113.5 63 c 128,-1,2
 128 72 128 72 137 92 c 128,-1,3
 146 112 146 112 146.5 144.5 c 128,-1,4
 147 177 147 177 133 225 c 0,5,6
 131 230 131 230 126 244.5 c 128,-1,7
 121 259 121 259 116 280 c 1,8,-1
 51 280 l 1,9,-1
 51 313 l 1,10,-1
 109 313 l 1,11,12
 104 338 104 338 101.5 367 c 128,-1,13
 99 396 99 396 101 427 c 0,14,15
 102 457 102 457 109 487.5 c 128,-1,16
 116 518 116 518 133.5 542 c 128,-1,17
 151 566 151 566 181 581.5 c 128,-1,18
 211 597 211 597 258 597 c 0,19,20
 306 597 306 597 335 583.5 c 128,-1,21
 364 570 364 570 379 557 c 1,22,-1
 356 515 l 1,23,24
 344 526 344 526 323 535 c 128,-1,25
 302 544 302 544 267 544 c 0,26,27
 208 544 208 544 184 509 c 128,-1,28
 160 474 160 474 160 396 c 0,29,30
 160 345 160 345 167 313 c 1,31,-1
 333 313 l 1,32,-1
 333 280 l 1,33,-1
 175 280 l 1,34,35
 183 252 183 252 191 230 c 0,36,37
 204 189 204 189 206.5 158.5 c 128,-1,38
 209 128 209 128 204 106.5 c 128,-1,39
 199 85 199 85 188.5 72 c 128,-1,40
 178 59 178 59 165 53 c 1,41,-1
 426 53 l 1,42,-1
 431 0 l 1,43,-1
 85 0 l 1,44,-1
 78 53 l 1,45,-1
 85 53 l 1,0,1
EndSplineSet
EndChar

StartChar: currency
Encoding: 164 164 101
Width: 600
GlyphClass: 2
Flags: W
LayerCount: 2
Fore
SplineSet
100 450 m 0,0,1
 100 485 100 485 110 516 c 128,-1,2
 120 547 120 547 138 571 c 1,3,-1
 90 620 l 1,4,-1
 131 661 l 1,5,-1
 180 612 l 1,6,7
 205 630 205 630 235 640 c 128,-1,8
 265 650 265 650 299 650 c 0,9,10
 334 650 334 650 366.5 641.5 c 128,-1,11
 399 633 399 633 425 615 c 1,12,-1
 473 663 l 1,13,-1
 515 621 l 1,14,-1
 466 572 l 1,15,16
 482 549 482 549 491 518.5 c 128,-1,17
 500 488 500 488 500 450 c 0,18,19
 500 415 500 415 490 384.5 c 128,-1,20
 480 354 480 354 462 330 c 1,21,-1
 515 277 l 1,22,-1
 474 236 l 1,23,-1
 421 289 l 1,24,25
 368 250 368 250 299 250 c 0,26,27
 228 250 228 250 177 283 c 1,28,-1
 131 237 l 1,29,-1
 89 279 l 1,30,-1
 134 324 l 1,31,32
 100 372 100 372 100 450 c 0,0,1
160 450 m 0,33,34
 160 416 160 416 171 389.5 c 128,-1,35
 182 363 182 363 201 345 c 128,-1,36
 220 327 220 327 245.5 317.5 c 128,-1,37
 271 308 271 308 300 308 c 256,38,39
 329 308 329 308 354.5 319 c 128,-1,40
 380 330 380 330 399 349.5 c 128,-1,41
 418 369 418 369 429 395 c 128,-1,42
 440 421 440 421 440 450 c 0,43,44
 440 484 440 484 429 510.5 c 128,-1,45
 418 537 418 537 399 555 c 128,-1,46
 380 573 380 573 354.5 582.5 c 128,-1,47
 329 592 329 592 300 592 c 256,48,49
 271 592 271 592 245.5 581 c 128,-1,50
 220 570 220 570 201 550.5 c 128,-1,51
 182 531 182 531 171 505 c 128,-1,52
 160 479 160 479 160 450 c 0,33,34
EndSplineSet
EndChar

StartChar: brokenbar
Encoding: 166 166 102
Width: 284
GlyphClass: 2
Flags: W
LayerCount: 2
Fore
SplineSet
172 200 m 1,0,-1
 172 -200 l 1,1,-1
 112 -200 l 1,2,-1
 112 200 l 1,3,-1
 172 200 l 1,0,-1
112 400 m 1,4,-1
 112 749 l 1,5,-1
 172 749 l 1,6,-1
 172 400 l 1,7,-1
 112 400 l 1,4,-1
EndSplineSet
EndChar

StartChar: section
Encoding: 167 167 103
Width: 500
GlyphClass: 2
Flags: W
LayerCount: 2
Fore
SplineSet
90 600 m 1,0,-1
 155 600 l 1,1,2
 156 551 156 551 175 524.5 c 128,-1,3
 194 498 194 498 222.5 481 c 128,-1,4
 251 464 251 464 283.5 451 c 128,-1,5
 316 438 316 438 344.5 417 c 128,-1,6
 373 396 373 396 391.5 360 c 128,-1,7
 410 324 410 324 410 262 c 1,8,-1
 345 262 l 1,9,10
 345 312 345 312 326 340.5 c 128,-1,11
 307 369 307 369 279 386.5 c 128,-1,12
 251 404 251 404 217.5 417.5 c 128,-1,13
 184 431 184 431 156 451.5 c 128,-1,14
 128 472 128 472 109 506 c 128,-1,15
 90 540 90 540 90 600 c 1,0,-1
90 361 m 1,16,-1
 155 361 l 1,17,18
 156 312 156 312 175 285 c 128,-1,19
 194 258 194 258 222.5 241 c 128,-1,20
 251 224 251 224 283.5 211 c 128,-1,21
 316 198 316 198 344.5 176.5 c 128,-1,22
 373 155 373 155 391.5 119.5 c 128,-1,23
 410 84 410 84 410 23 c 1,24,-1
 345 23 l 1,25,26
 345 73 345 73 326 101.5 c 128,-1,27
 307 130 307 130 279 147.5 c 128,-1,28
 251 165 251 165 217.5 178 c 128,-1,29
 184 191 184 191 156 211.5 c 128,-1,30
 128 232 128 232 109 266.5 c 128,-1,31
 90 301 90 301 90 361 c 1,16,-1
EndSplineSet
EndChar

StartChar: dieresis
Encoding: 168 168 104
Width: 500
GlyphClass: 2
Flags: W
LayerCount: 2
Fore
SplineSet
109 610 m 0,0,1
 109 629 109 629 119.5 639.5 c 128,-1,2
 130 650 130 650 147 650 c 0,3,4
 165 650 165 650 175.5 639.5 c 128,-1,5
 186 629 186 629 186 610 c 0,6,7
 186 590 186 590 175 580 c 128,-1,8
 164 570 164 570 147 570 c 0,9,10
 129 570 129 570 119 581.5 c 128,-1,11
 109 593 109 593 109 610 c 0,0,1
325 610 m 0,12,13
 325 629 325 629 335 639.5 c 128,-1,14
 345 650 345 650 362 650 c 0,15,16
 402 650 402 650 402 610 c 0,17,18
 402 590 402 590 390.5 580 c 128,-1,19
 379 570 379 570 362 570 c 0,20,21
 344 570 344 570 334.5 581.5 c 128,-1,22
 325 593 325 593 325 610 c 0,12,13
EndSplineSet
EndChar

StartChar: copyright
Encoding: 169 169 105
Width: 833
GlyphClass: 2
Flags: W
LayerCount: 2
Fore
SplineSet
85 310 m 0,0,1
 85 381 85 381 109 439 c 128,-1,2
 133 497 133 497 175 538.5 c 128,-1,3
 217 580 217 580 273.5 602.5 c 128,-1,4
 330 625 330 625 394 625 c 256,5,6
 458 625 458 625 514.5 605.5 c 128,-1,7
 571 586 571 586 613 546.5 c 128,-1,8
 655 507 655 507 679 448 c 128,-1,9
 703 389 703 389 703 310 c 0,10,11
 703 239 703 239 679 181 c 128,-1,12
 655 123 655 123 613 81.5 c 128,-1,13
 571 40 571 40 514.5 17.5 c 128,-1,14
 458 -5 458 -5 394 -5 c 256,15,16
 330 -5 330 -5 273.5 14.5 c 128,-1,17
 217 34 217 34 175 73 c 128,-1,18
 133 112 133 112 109 171 c 128,-1,19
 85 230 85 230 85 310 c 0,0,1
115 310 m 0,20,21
 115 242 115 242 137 188.5 c 128,-1,22
 159 135 159 135 197 98 c 128,-1,23
 235 61 235 61 285.5 42 c 128,-1,24
 336 23 336 23 394 23 c 256,25,26
 452 23 452 23 502.5 44 c 128,-1,27
 553 65 553 65 591 103 c 128,-1,28
 629 141 629 141 651 193.5 c 128,-1,29
 673 246 673 246 673 310 c 0,30,31
 673 378 673 378 651 431.5 c 128,-1,32
 629 485 629 485 591 521.5 c 128,-1,33
 553 558 553 558 502.5 577.5 c 128,-1,34
 452 597 452 597 394 597 c 256,35,36
 336 597 336 597 285.5 576 c 128,-1,37
 235 555 235 555 197 517 c 128,-1,38
 159 479 159 479 137 426.5 c 128,-1,39
 115 374 115 374 115 310 c 0,20,21
462 466 m 1,40,41
 450 471 450 471 434 474 c 128,-1,42
 418 477 418 477 400 477 c 0,43,44
 373 477 373 477 349 466.5 c 128,-1,45
 325 456 325 456 307 434 c 128,-1,46
 289 412 289 412 278 378.5 c 128,-1,47
 267 345 267 345 267 299 c 0,48,49
 267 250 267 250 278 221 c 128,-1,50
 289 192 289 192 306.5 176.5 c 128,-1,51
 324 161 324 161 344 156.5 c 128,-1,52
 364 152 364 152 382 152 c 0,53,54
 419 152 419 152 449.5 160 c 128,-1,55
 480 168 480 168 488 173 c 1,56,-1
 495 146 l 1,57,58
 487 141 487 141 474 136.5 c 128,-1,59
 461 132 461 132 444.5 129 c 128,-1,60
 428 126 428 126 410.5 124 c 128,-1,61
 393 122 393 122 378 122 c 0,62,63
 355 122 355 122 328.5 128 c 128,-1,64
 302 134 302 134 280 153 c 128,-1,65
 258 172 258 172 243.5 207 c 128,-1,66
 229 242 229 242 229 299 c 0,67,68
 229 352 229 352 242.5 390 c 128,-1,69
 256 428 256 428 277.5 453 c 128,-1,70
 299 478 299 478 327 490.5 c 128,-1,71
 355 503 355 503 384 506 c 0,72,73
 419 509 419 509 449 500 c 128,-1,74
 479 491 479 491 492 477 c 1,75,-1
 492 398 l 1,76,-1
 465 396 l 1,77,-1
 462 466 l 1,40,41
EndSplineSet
EndChar

StartChar: guillemotleft
Encoding: 171 171 107
Width: 694
GlyphClass: 2
Flags: W
LayerCount: 2
Fore
SplineSet
344 88 m 1,0,-1
 75 259 l 1,1,-1
 344 430 l 1,2,-1
 344 382 l 1,3,-1
 140 259 l 1,4,-1
 344 136 l 1,5,-1
 344 88 l 1,0,-1
600 88 m 1,6,-1
 331 259 l 1,7,-1
 600 430 l 1,8,-1
 600 382 l 1,9,-1
 396 259 l 1,10,-1
 600 136 l 1,11,-1
 600 88 l 1,6,-1
EndSplineSet
EndChar

StartChar: logicalnot
Encoding: 172 172 108
Width: 600
GlyphClass: 2
Flags: W
LayerCount: 2
Fore
SplineSet
295 265 m 1,0,-1
 295 290 l 1,1,-1
 500 290 l 1,2,-1
 500 193 l 1,3,-1
 250 193 l 1,4,-1
 250 265 l 1,5,-1
 295 265 l 1,0,-1
EndSplineSet
EndChar

StartChar: registered
Encoding: 174 174 109
Width: 599
GlyphClass: 2
Flags: W
LayerCount: 2
Fore
SplineSet
90 499 m 0,0,1
 90 547 90 547 106 585.5 c 128,-1,2
 122 624 122 624 150 652 c 128,-1,3
 178 680 178 680 215.5 695 c 128,-1,4
 253 710 253 710 296 710 c 256,5,6
 339 710 339 710 377 697 c 128,-1,7
 415 684 415 684 443 657.5 c 128,-1,8
 471 631 471 631 487 591.5 c 128,-1,9
 503 552 503 552 503 499 c 0,10,11
 503 452 503 452 487 413 c 128,-1,12
 471 374 471 374 443 346.5 c 128,-1,13
 415 319 415 319 377 304 c 128,-1,14
 339 289 339 289 296 289 c 256,15,16
 253 289 253 289 215.5 302 c 128,-1,17
 178 315 178 315 150 341 c 128,-1,18
 122 367 122 367 106 406.5 c 128,-1,19
 90 446 90 446 90 499 c 0,0,1
115 499 m 0,20,21
 115 452 115 452 129 417 c 128,-1,22
 143 382 143 382 168 358.5 c 128,-1,23
 193 335 193 335 225.5 323.5 c 128,-1,24
 258 312 258 312 296 312 c 0,25,26
 333 312 333 312 366.5 325 c 128,-1,27
 400 338 400 338 424.5 362 c 128,-1,28
 449 386 449 386 463.5 420.5 c 128,-1,29
 478 455 478 455 478 499 c 0,30,31
 478 545 478 545 463.5 580.5 c 128,-1,32
 449 616 449 616 424.5 639.5 c 128,-1,33
 400 663 400 663 366.5 675 c 128,-1,34
 333 687 333 687 296 687 c 0,35,36
 258 687 258 687 225.5 674 c 128,-1,37
 193 661 193 661 168 636.5 c 128,-1,38
 143 612 143 612 129 577 c 128,-1,39
 115 542 115 542 115 499 c 0,20,21
233 380 m 1,40,-1
 233 613 l 1,41,-1
 281 613 l 2,42,43
 319 613 319 613 340 600.5 c 128,-1,44
 361 588 361 588 361 550 c 0,45,46
 361 502 361 502 328 486 c 1,47,-1
 379 380 l 1,48,-1
 354 380 l 1,49,-1
 307 479 l 1,50,51
 301 478 301 478 294.5 477.5 c 128,-1,52
 288 477 288 477 281 477 c 2,53,-1
 255 477 l 1,54,-1
 255 380 l 1,55,-1
 233 380 l 1,40,-1
255 595 m 1,56,-1
 255 496 l 1,57,-1
 279 496 l 2,58,59
 308 496 308 496 323.5 507 c 128,-1,60
 339 518 339 518 339 549 c 0,61,62
 339 577 339 577 323 586 c 128,-1,63
 307 595 307 595 279 595 c 2,64,-1
 255 595 l 1,56,-1
EndSplineSet
EndChar

